<?xml version="1.0" encoding="UTF-8" standalone="no"?>
<!-- Created with Inkscape (http://www.inkscape.org/) -->

<svg
   xmlns:dc="http://purl.org/dc/elements/1.1/"
   xmlns:cc="http://creativecommons.org/ns#"
   xmlns:rdf="http://www.w3.org/1999/02/22-rdf-syntax-ns#"
   xmlns:svg="http://www.w3.org/2000/svg"
   xmlns="http://www.w3.org/2000/svg"
   xmlns:sodipodi="http://sodipodi.sourceforge.net/DTD/sodipodi-0.dtd"
   xmlns:inkscape="http://www.inkscape.org/namespaces/inkscape"
   sodipodi:docname="w3-000.svg"
   inkscape:version="0.47 r22583"
   version="1.1"
   id="svg2"
   height="1052.3622047"
   width="744.09448819">
  <sodipodi:namedview
     id="base"
     pagecolor="#ffffff"
     bordercolor="#666666"
     borderopacity="1.0"
     inkscape:pageopacity="0.0"
     inkscape:pageshadow="2"
     inkscape:zoom="1.2244263"
     inkscape:cx="413.17684"
     inkscape:cy="690.37267"
     inkscape:document-units="px"
     inkscape:current-layer="svg2"
     showgrid="false"
     inkscape:window-width="1247"
     inkscape:window-height="961"
     inkscape:window-x="2"
     inkscape:window-y="59"
     inkscape:window-maximized="0" />
  <defs
     id="defs4">
    <marker
       inkscape:stockid="Arrow1Lstart"
       orient="auto"
       refY="0.0"
       refX="0.0"
       id="Arrow1Lstart"
       style="overflow:visible">
      <path
         id="path7164"
         d="M 0.0,0.0 L 5.0,-5.0 L -12.5,0.0 L 5.0,5.0 L 0.0,0.0 z "
         style="fill-rule:evenodd;stroke:#000000;stroke-width:1.0pt;marker-start:none"
         transform="scale(0.8) translate(12.5,0)" />
    </marker>
    <inkscape:perspective
       id="perspective19"
       inkscape:persp3d-origin="372.04724 : 350.78739 : 1"
       inkscape:vp_z="744.09448 : 526.18109 : 1"
       inkscape:vp_y="0 : 1000 : 0"
       inkscape:vp_x="0 : 526.18109 : 1"
       sodipodi:type="inkscape:persp3d" />
  </defs>
  <metadata
     id="metadata7">
    <rdf:RDF>
      <cc:Work
         rdf:about="">
        <dc:format>image/svg+xml</dc:format>
        <dc:type
           rdf:resource="http://purl.org/dc/dcmitype/StillImage" />
        <dc:title />
      </cc:Work>
    </rdf:RDF>
  </metadata>
  <g
     id="layer1"
     inkscape:groupmode="layer"
     inkscape:label="Layer 1">
    <path
       id="path2825"
       d="m 192.20408,217.97036 0,267.9551 355.01224,0"
       style="fill:none;stroke:#929292;stroke-width:1px;stroke-linecap:butt;stroke-linejoin:miter;stroke-opacity:1" />
    <path
       style="fill:#666666;stroke:#a7a7a7;stroke-width:1px;stroke-linecap:butt;stroke-linejoin:miter;stroke-opacity:1"
       d="M 192.02845,484.84315 464.00927,312.08894"
       id="path3825" />
    <path
       sodipodi:nodetypes="cc"
       id="path2827"
       d="m 192.39298,485.42265 -69.46454,85.85702"
       style="fill:none;stroke:#959595;stroke-width:1px;stroke-linecap:butt;stroke-linejoin:miter;stroke-opacity:1" />
    <path
       transform="translate(21.415812,7.1386041)"
       d="m 444.73503,306.37805 a 2.1415813,2.1415813 0 1 1 -4.28317,0 2.1415813,2.1415813 0 1 1 4.28317,0 z"
       sodipodi:ry="2.1415813"
       sodipodi:rx="2.1415813"
       sodipodi:cy="306.37805"
       sodipodi:cx="442.59344"
       id="path3626"
       style="fill:none;stroke:#000000;stroke-width:3;stroke-linecap:round;stroke-linejoin:round;stroke-miterlimit:4;stroke-opacity:1;stroke-dasharray:none;stroke-dashoffset:0"
       sodipodi:type="arc" />
    <path
       d="M 425.94962,521.93035 251.3682,339.88692 384.82944,116.94745 612.62826,183.71583 634.01127,409.92379 425.94962,521.93035 z"
       inkscape:randomized="0.05"
       inkscape:rounded="1.0408341e-17"
       inkscape:flatsided="true"
       sodipodi:arg2="2.409479"
       sodipodi:arg1="1.7811604"
       sodipodi:r2="165.9428"
       sodipodi:r1="205.11658"
       sodipodi:cy="312.08894"
       sodipodi:cx="463.29541"
       sodipodi:sides="5"
       id="path3628"
       style="fill:none;stroke:#000000;stroke-width:3;stroke-linecap:round;stroke-linejoin:round;stroke-miterlimit:4;stroke-opacity:1;stroke-dasharray:none;stroke-dashoffset:0"
       sodipodi:type="star" />
    <path
       id="path3630"
       d="M 191.31459,486.27088 342.653,436.30065 464.00927,312.8028 l -211.30268,27.12669 -61.392,146.34139 z"
       style="fill:none;stroke:#000000;stroke-width:1px;stroke-linecap:butt;stroke-linejoin:miter;stroke-opacity:1" />
    <g
       id="g3643"
       transform="matrix(0.5,0,0,0.5,55.071779,197.76237)">
      <g
         word-spacing="normal"
         letter-spacing="normal"
         font-size-adjust="none"
         font-stretch="normal"
         font-weight="normal"
         font-variant="normal"
         font-style="normal"
         fill-rule="even-odd"
         stroke-miterlimit="10.433"
         xml:space="preserve"
         transform="matrix(1.0629921,0,0,-1.0629921,-186.02362,789.27165)"
         id="content"
         style="font-style:normal;font-variant:normal;font-weight:normal;font-stretch:normal;letter-spacing:normal;word-spacing:normal;text-anchor:start;fill:none;stroke:#000000;stroke-linecap:butt;stroke-linejoin:miter;stroke-miterlimit:10.43299961;stroke-opacity:1;stroke-dasharray:none;stroke-dashoffset:0"><path
           id="path3646"
           d="m 481.85,422.94 0.48,0.11 0.47,0.12 0.49,0.14 0.48,0.15 0.48,0.16 0.48,0.18 0.48,0.19 0.48,0.2 0.47,0.22 0.46,0.23 0.46,0.24 0.45,0.25 0.44,0.27 0.43,0.28 0.42,0.29 0.4,0.3 0.39,0.31 0.37,0.32 0.35,0.34 0.34,0.35 0.32,0.35 0.29,0.37 0.28,0.38 0.25,0.39 0.22,0.4 0.2,0.41 0.17,0.42 0.15,0.43 0.11,0.44 0.08,0.45 0.05,0.45 0.02,0.47 c 0,4.29 -4.48,7.47 -11.01,7.47 h -14.19 c -1,0 -1.45,0 -1.45,-0.99 0,-0.55 0.45,-0.55 1.4,-0.55 0.1,0 1.04,0 1.89,-0.1 0.9,-0.1 1.34,-0.15 1.34,-0.8 0,-0.2 -0.04,-0.35 -0.2,-0.94 l -6.67,-26.75 c -0.5,-1.95 -0.6,-2.35 -4.53,-2.35 -0.9,0 -1.35,0 -1.35,-0.99 0,-0.55 0.6,-0.55 0.7,-0.55 h 12.6 c 0.4,0 1,0 1,1 0,0.54 -0.45,0.54 -1.39,0.54 -1.85,0 -3.24,0 -3.24,0.9 0,0.3 0.09,0.55 0.15,0.85 l 3.28,13.2 h 5.93 l -0.05,1.1 h -5.58 l 3.24,13 c 0.3,1.19 0.45,1.69 1.39,1.84 0.45,0.05 2.05,0.05 3.04,0.05 3.54,0 9.07,0 9.07,-4.93 0,-1.7 -0.8,-5.14 -2.74,-7.08 -1.3,-1.29 -3.94,-2.88 -8.42,-2.88 l 0.05,-1.1 c 4.54,0 5.43,-2.79 5.43,-4.53 0,-0.75 -0.4,-2.3 -0.7,-3.44 -0.35,-1.4 -0.79,-3.24 -0.79,-4.23 0,-5.39 5.97,-5.39 6.62,-5.39 4.24,0 5.98,5.03 5.98,5.73 0,0.6 -0.55,0.6 -0.6,0.6 -0.45,0 -0.55,-0.35 -0.65,-0.7 -1.24,-3.68 -3.38,-4.53 -4.53,-4.53 -1.64,0 -1.99,1.1 -1.99,3.04 0,1.54 0.3,4.08 0.5,5.68 0.1,0.69 0.2,1.64 0.2,2.34 0,3.83 -3.34,5.38 -4.69,5.88 z"
           style="fill:#000000;stroke-width:0" /><path
           id="path3648"
           d="m 511.62,411.66 0,0.12 0,0.12 -0.01,0.12 -0.01,0.12 -0.01,0.11 -0.01,0.1 -0.01,0.11 -0.02,0.1 -0.02,0.09 -0.02,0.1 -0.02,0.09 -0.02,0.08 -0.03,0.08 -0.02,0.08 -0.03,0.08 -0.03,0.08 -0.03,0.07 -0.03,0.06 -0.03,0.07 -0.03,0.06 -0.04,0.06 -0.03,0.06 -0.04,0.05 -0.03,0.06 -0.04,0.04 -0.04,0.05 -0.08,0.09 -0.07,0.08 -0.08,0.07 -0.08,0.06 -0.08,0.05 -0.08,0.05 -0.08,0.04 -0.07,0.03 -0.07,0.03 -0.07,0.03 -0.07,0.02 -0.06,0.01 -0.05,0.01 -0.06,0.01 -0.04,0.01 -0.04,0 -0.03,0 -0.02,0 -0.01,0 c -0.91,0 -1.89,-0.94 -1.89,-1.85 0,-0.59 0.35,-0.87 0.6,-1.08 0.59,-0.48 1.29,-1.39 1.29,-2.78 0,-1.58 -2.31,-9.07 -6.45,-9.07 -2.83,0 -2.83,2.51 -2.83,3.1 0,1.61 0.63,3.56 1.92,6.8 0.28,0.73 0.49,1.26 0.49,1.85 0,1.81 -1.54,3 -3.31,3 -3.49,0 -5.06,-4.78 -5.06,-5.34 0,-0.45 0.49,-0.45 0.59,-0.45 0.49,0 0.52,0.17 0.63,0.56 0.84,2.86 2.34,4.25 3.73,4.25 0.59,0 0.87,-0.38 0.87,-1.22 0,-0.8 -0.28,-1.54 -0.62,-2.34 -1.5,-3.87 -1.89,-5.37 -1.89,-6.62 0,-3.45 2.72,-4.57 5.37,-4.57 5.86,0 8.3,10.15 8.3,13.01 z"
           style="fill:#000000;stroke-width:0" /></g>    </g>
    <g
       style="fill:#666666"
       transform="matrix(0.5,0,0,0.5,184.07626,189.11691)"
       id="g3843">
      <g
         style="font-style:normal;font-variant:normal;font-weight:normal;font-stretch:normal;letter-spacing:normal;word-spacing:normal;text-anchor:start;fill:#666666;stroke:#000000;stroke-linecap:butt;stroke-linejoin:miter;stroke-miterlimit:10.43299960999999954;stroke-opacity:1;stroke-dasharray:none;stroke-dashoffset:0"
         id="g3845"
         transform="matrix(1.0629921,0,0,-1.0629921,-186.02362,789.27165)"
         xml:space="preserve"
         stroke-miterlimit="10.433"
         fill-rule="even-odd"
         font-style="normal"
         font-variant="normal"
         font-weight="normal"
         font-stretch="normal"
         font-size-adjust="none"
         letter-spacing="normal"
         word-spacing="normal"><path
           style="fill:#666666;stroke-width:0"
           d="m 481.85,422.94 0.48,0.11 0.47,0.12 0.49,0.14 0.48,0.15 0.48,0.16 0.48,0.18 0.48,0.19 0.48,0.2 0.47,0.22 0.46,0.23 0.46,0.24 0.45,0.25 0.44,0.27 0.43,0.28 0.42,0.29 0.4,0.3 0.39,0.31 0.37,0.32 0.35,0.34 0.34,0.35 0.32,0.35 0.29,0.37 0.28,0.38 0.25,0.39 0.22,0.4 0.2,0.41 0.17,0.42 0.15,0.43 0.11,0.44 0.08,0.45 0.05,0.45 0.02,0.47 c 0,4.29 -4.48,7.47 -11.01,7.47 h -14.19 c -1,0 -1.45,0 -1.45,-0.99 0,-0.55 0.45,-0.55 1.4,-0.55 0.1,0 1.04,0 1.89,-0.1 0.9,-0.1 1.34,-0.15 1.34,-0.8 0,-0.2 -0.04,-0.35 -0.2,-0.94 l -6.67,-26.75 c -0.5,-1.95 -0.6,-2.35 -4.53,-2.35 -0.9,0 -1.35,0 -1.35,-0.99 0,-0.55 0.6,-0.55 0.7,-0.55 h 12.6 c 0.4,0 1,0 1,1 0,0.54 -0.45,0.54 -1.39,0.54 -1.85,0 -3.24,0 -3.24,0.9 0,0.3 0.09,0.55 0.15,0.85 l 3.28,13.2 h 5.93 l -0.05,1.1 h -5.58 l 3.24,13 c 0.3,1.19 0.45,1.69 1.39,1.84 0.45,0.05 2.05,0.05 3.04,0.05 3.54,0 9.07,0 9.07,-4.93 0,-1.7 -0.8,-5.14 -2.74,-7.08 -1.3,-1.29 -3.94,-2.88 -8.42,-2.88 l 0.05,-1.1 c 4.54,0 5.43,-2.79 5.43,-4.53 0,-0.75 -0.4,-2.3 -0.7,-3.44 -0.35,-1.4 -0.79,-3.24 -0.79,-4.23 0,-5.39 5.97,-5.39 6.62,-5.39 4.24,0 5.98,5.03 5.98,5.73 0,0.6 -0.55,0.6 -0.6,0.6 -0.45,0 -0.55,-0.35 -0.65,-0.7 -1.24,-3.68 -3.38,-4.53 -4.53,-4.53 -1.64,0 -1.99,1.1 -1.99,3.04 0,1.54 0.3,4.08 0.5,5.68 0.1,0.69 0.2,1.64 0.2,2.34 0,3.83 -3.34,5.38 -4.69,5.88 z"
           id="path3847" /><path
           style="fill:#666666;stroke-width:0"
           d="m 507.19,412.77 h 3.42 c 0.69,0 1.15,0 1.15,0.77 0,0.49 -0.46,0.49 -1.08,0.49 h -3.24 c 0.8,4.43 1.08,6.03 1.36,7.04 0.17,0.77 0.94,1.5 1.77,1.5 0.04,0 0.98,0 1.65,-0.42 -1.43,-0.45 -1.54,-1.7 -1.54,-1.92 0,-0.76 0.59,-1.28 1.39,-1.28 0.95,0 1.99,0.8 1.99,2.12 0,1.61 -1.71,2.48 -3.49,2.48 -1.53,0 -3.24,-0.87 -4.18,-2.62 -0.7,-1.29 -0.98,-2.86 -1.71,-6.9 h -2.75 c -0.7,0 -1.15,0 -1.15,-0.77 0,-0.49 0.45,-0.49 1.08,-0.49 h 2.58 c -0.04,-0.21 -2.23,-12.76 -3.07,-16.49 -0.17,-0.77 -0.77,-3.42 -2.44,-3.42 -0.04,0 -0.88,0 -1.54,0.42 1.43,0.45 1.54,1.71 1.54,1.92 0,0.76 -0.59,1.29 -1.4,1.29 -0.94,0 -1.98,-0.8 -1.98,-2.13 0,-1.57 1.63,-2.47 3.38,-2.47 2.23,0 3.77,2.3 4.18,3.07 1.26,2.33 2.06,6.62 2.13,7.04 z"
           id="path3849" /></g>    </g>
    <path
       style="fill:none;stroke:#000000;stroke-width:1px;stroke-linecap:butt;stroke-linejoin:miter;stroke-opacity:1;marker-start:url(#Arrow1Lstart)"
       d="m 274.41423,463.51499 c 0,0 -21.23444,24.50127 -22.86785,32.66836 -1.63342,8.16709 22.05114,-8.9838 19.60101,-0.81671 -2.45013,8.16709 -22.86785,34.30178 -22.86785,34.30178"
       id="path7159" />
  </g>
  <g
     transform="matrix(0.5,0,0,0.5,141.82479,111.71048)"
     id="g4044">
    <g
       style="font-style:normal;font-variant:normal;font-weight:normal;font-stretch:normal;letter-spacing:normal;word-spacing:normal;text-anchor:start;fill:none;stroke:#000000;stroke-linecap:butt;stroke-linejoin:miter;stroke-miterlimit:10.43299961;stroke-opacity:1;stroke-dasharray:none;stroke-dashoffset:0"
       id="g4046"
       transform="matrix(1.0629921,0,0,-1.0629921,-186.02362,789.27165)"
       xml:space="preserve"
       stroke-miterlimit="10.433"
       fill-rule="even-odd"
       font-style="normal"
       font-variant="normal"
       font-weight="normal"
       font-stretch="normal"
       font-size-adjust="none"
       letter-spacing="normal"
       word-spacing="normal"><path
         style="fill:#000000;stroke-width:0"
         d="m 479.11,371.8 -10.71,37.36 -6.92,-8.12 0.8,-0.75 3.38,3.99 11.46,-39.95 c 1.65,0 1.69,0 2.09,1.19 L 506.56,452 c 0.25,0.75 0.25,0.95 0.25,1 0,0.54 -0.4,0.99 -1,0.99 -0.74,0 -0.94,-0.65 -1.14,-1.29 z"
         id="path4048" /><polyline
         style="fill:#000000;fill-rule:nonzero;stroke-width:0"
         points="505,452 691.12,452 691.12,454.04 505,454.04 "
         id="polyline4050" /><path
         style="fill:#000000;stroke-width:0"
         d="m 530.85,414.94 0.48,0.11 0.47,0.12 0.49,0.14 0.48,0.15 0.48,0.16 0.48,0.18 0.48,0.19 0.48,0.2 0.47,0.22 0.46,0.23 0.46,0.24 0.45,0.25 0.44,0.27 0.43,0.28 0.42,0.29 0.4,0.3 0.39,0.31 0.37,0.32 0.35,0.34 0.34,0.35 0.32,0.35 0.29,0.37 0.28,0.38 0.25,0.39 0.22,0.4 0.2,0.41 0.17,0.42 0.15,0.43 0.11,0.44 0.08,0.45 0.05,0.45 0.02,0.47 c 0,4.29 -4.48,7.47 -11.01,7.47 h -14.2 c -0.99,0 -1.44,0 -1.44,-0.99 0,-0.55 0.45,-0.55 1.4,-0.55 0.1,0 1.04,0 1.89,-0.1 0.9,-0.1 1.34,-0.15 1.34,-0.8 0,-0.2 -0.04,-0.35 -0.2,-0.94 l -6.67,-26.75 c -0.5,-1.95 -0.6,-2.35 -4.53,-2.35 -0.9,0 -1.35,0 -1.35,-0.99 0,-0.55 0.6,-0.55 0.7,-0.55 h 12.6 c 0.4,0 1,0 1,1 0,0.54 -0.45,0.54 -1.39,0.54 -1.85,0 -3.24,0 -3.24,0.9 0,0.3 0.09,0.55 0.14,0.85 l 3.3,13.2 h 5.92 l -0.05,1.1 h -5.58 l 3.24,13 c 0.3,1.19 0.45,1.69 1.39,1.84 0.45,0.05 2.05,0.05 3.04,0.05 3.54,0 9.07,0 9.07,-4.93 0,-1.7 -0.8,-5.14 -2.74,-7.08 -1.29,-1.29 -3.94,-2.88 -8.42,-2.88 l 0.05,-1.1 c 4.53,0 5.43,-2.79 5.43,-4.53 0,-0.75 -0.4,-2.3 -0.7,-3.44 -0.35,-1.4 -0.79,-3.24 -0.79,-4.23 0,-5.39 5.97,-5.39 6.62,-5.39 4.24,0 5.98,5.03 5.98,5.73 0,0.6 -0.55,0.6 -0.6,0.6 -0.45,0 -0.54,-0.35 -0.65,-0.7 -1.24,-3.68 -3.38,-4.53 -4.53,-4.53 -1.64,0 -1.99,1.1 -1.99,3.04 0,1.54 0.3,4.08 0.5,5.68 0.1,0.69 0.19,1.64 0.19,2.34 0,3.83 -3.33,5.38 -4.68,5.88 z"
         id="path4052" /><path
         style="fill:#000000;stroke-width:0"
         d="m 560.61,418.35 h -1.19 c -0.1,-0.77 -0.45,-2.83 -0.9,-3.18 -0.28,-0.21 -2.97,-0.21 -3.45,-0.21 h -6.42 c 3.66,3.25 4.88,4.22 6.97,5.86 2.58,2.06 4.99,4.22 4.99,7.54 0,4.21 -3.7,6.79 -8.16,6.79 -4.33,0 -7.25,-3.03 -7.25,-6.24 0,-1.78 1.5,-1.95 1.84,-1.95 0.84,0 1.86,0.59 1.86,1.85 0,0.62 -0.25,1.85 -2.06,1.85 1.08,2.47 3.45,3.24 5.09,3.24 3.48,0 5.3,-2.72 5.3,-5.54 0,-3.04 -2.16,-5.45 -3.28,-6.7 l -8.4,-8.3 c -0.35,-0.31 -0.35,-0.38 -0.35,-1.36 h 14.36 z"
         id="path4054" /><path
         style="fill:#000000;stroke-width:0"
         d="m 561.62,398.66 0,0.12 0,0.12 -0.01,0.12 -0.01,0.12 -0.01,0.11 -0.01,0.1 -0.01,0.11 -0.02,0.1 -0.02,0.09 -0.02,0.1 -0.02,0.09 -0.02,0.08 -0.03,0.08 -0.02,0.08 -0.03,0.08 -0.03,0.08 -0.03,0.07 -0.03,0.06 -0.03,0.07 -0.03,0.06 -0.04,0.06 -0.03,0.06 -0.04,0.05 -0.03,0.06 -0.04,0.04 -0.04,0.05 -0.08,0.09 -0.07,0.08 -0.08,0.07 -0.08,0.06 -0.08,0.05 -0.08,0.05 -0.08,0.04 -0.07,0.03 -0.07,0.03 -0.07,0.03 -0.07,0.02 -0.06,0.01 -0.05,0.01 -0.06,0.01 -0.04,0.01 -0.04,0 -0.03,0 -0.02,0 -0.01,0 c -0.91,0 -1.89,-0.94 -1.89,-1.85 0,-0.59 0.35,-0.87 0.6,-1.08 0.59,-0.48 1.29,-1.39 1.29,-2.78 0,-1.58 -2.31,-9.07 -6.45,-9.07 -2.83,0 -2.83,2.51 -2.83,3.1 0,1.61 0.63,3.56 1.92,6.8 0.28,0.73 0.49,1.26 0.49,1.85 0,1.81 -1.54,3 -3.31,3 -3.49,0 -5.06,-4.78 -5.06,-5.34 0,-0.45 0.49,-0.45 0.59,-0.45 0.49,0 0.52,0.17 0.63,0.56 0.84,2.86 2.34,4.25 3.73,4.25 0.59,0 0.87,-0.38 0.87,-1.22 0,-0.8 -0.28,-1.54 -0.62,-2.34 -1.5,-3.87 -1.89,-5.37 -1.89,-6.62 0,-3.45 2.72,-4.57 5.37,-4.57 5.86,0 8.3,10.15 8.3,13.01 z"
         id="path4056" /><path
         style="fill:#000000;stroke-width:0"
         d="m 610.83,409.46 0.16,0 0.16,0 0.15,0 0.08,0.01 0.08,0 0.07,0.01 0.08,0.01 0.07,0.01 0.07,0.01 0.07,0.01 0.07,0.02 0.06,0.02 0.07,0.02 0.06,0.03 0.05,0.02 0.06,0.04 0.05,0.03 0.05,0.04 0.05,0.04 0.04,0.05 0.04,0.05 0.01,0.02 0.02,0.03 0.02,0.03 0.01,0.03 0.02,0.03 0.01,0.04 0.01,0.03 0.01,0.03 0.01,0.04 0.01,0.04 0,0.04 0.01,0.04 0,0.04 0.01,0.04 0,0.05 0,0.04 c 0,1 -0.9,1 -1.74,1 h -26.95 c -0.85,0 -1.75,0 -1.75,-1 0,-0.99 0.9,-0.99 1.75,-0.99 z"
         id="path4058" /><path
         style="fill:#000000;stroke-width:0"
         d="m 653.85,414.94 0.48,0.11 0.47,0.12 0.49,0.14 0.48,0.15 0.48,0.16 0.48,0.18 0.48,0.19 0.48,0.2 0.47,0.22 0.46,0.23 0.46,0.24 0.45,0.25 0.44,0.27 0.43,0.28 0.42,0.29 0.4,0.3 0.39,0.31 0.37,0.32 0.35,0.34 0.34,0.35 0.32,0.35 0.29,0.37 0.28,0.38 0.25,0.39 0.22,0.4 0.2,0.41 0.17,0.42 0.15,0.43 0.11,0.44 0.08,0.45 0.05,0.45 0.02,0.47 c 0,4.29 -4.48,7.47 -11.01,7.47 h -14.2 c -0.99,0 -1.44,0 -1.44,-0.99 0,-0.55 0.45,-0.55 1.4,-0.55 0.1,0 1.04,0 1.89,-0.1 0.9,-0.1 1.34,-0.15 1.34,-0.8 0,-0.2 -0.04,-0.35 -0.2,-0.94 l -6.67,-26.75 c -0.5,-1.95 -0.6,-2.35 -4.53,-2.35 -0.9,0 -1.35,0 -1.35,-0.99 0,-0.55 0.6,-0.55 0.7,-0.55 h 12.6 c 0.4,0 1,0 1,1 0,0.54 -0.45,0.54 -1.39,0.54 -1.85,0 -3.24,0 -3.24,0.9 0,0.3 0.09,0.55 0.14,0.85 l 3.3,13.2 h 5.92 l -0.05,1.1 h -5.58 l 3.24,13 c 0.3,1.19 0.45,1.69 1.39,1.84 0.45,0.05 2.05,0.05 3.04,0.05 3.54,0 9.07,0 9.07,-4.93 0,-1.7 -0.8,-5.14 -2.74,-7.08 -1.29,-1.29 -3.94,-2.88 -8.42,-2.88 l 0.05,-1.1 c 4.53,0 5.43,-2.79 5.43,-4.53 0,-0.75 -0.4,-2.3 -0.7,-3.44 -0.35,-1.4 -0.79,-3.24 -0.79,-4.23 0,-5.39 5.97,-5.39 6.62,-5.39 4.24,0 5.98,5.03 5.98,5.73 0,0.6 -0.55,0.6 -0.6,0.6 -0.45,0 -0.54,-0.35 -0.65,-0.7 -1.24,-3.68 -3.38,-4.53 -4.53,-4.53 -1.64,0 -1.99,1.1 -1.99,3.04 0,1.54 0.3,4.08 0.5,5.68 0.1,0.69 0.19,1.64 0.19,2.34 0,3.83 -3.33,5.38 -4.68,5.88 z"
         id="path4060" /><path
         style="fill:#000000;stroke-width:0"
         d="m 683.61,421.35 h -1.19 c -0.1,-0.77 -0.45,-2.83 -0.9,-3.18 -0.28,-0.21 -2.97,-0.21 -3.45,-0.21 h -6.42 c 3.66,3.25 4.88,4.22 6.97,5.86 2.58,2.06 4.99,4.22 4.99,7.54 0,4.21 -3.7,6.79 -8.16,6.79 -4.33,0 -7.25,-3.03 -7.25,-6.24 0,-1.78 1.5,-1.95 1.84,-1.95 0.84,0 1.86,0.59 1.86,1.85 0,0.62 -0.25,1.85 -2.06,1.85 1.08,2.47 3.45,3.24 5.09,3.24 3.48,0 5.3,-2.72 5.3,-5.54 0,-3.04 -2.16,-5.45 -3.28,-6.7 l -8.4,-8.3 c -0.35,-0.31 -0.35,-0.38 -0.35,-1.36 h 14.36 z"
         id="path4062" /><path
         style="fill:#000000;stroke-width:0"
         d="m 680.19,396.77 h 3.42 c 0.69,0 1.15,0 1.15,0.77 0,0.49 -0.46,0.49 -1.08,0.49 h -3.24 c 0.8,4.43 1.08,6.03 1.36,7.04 0.17,0.77 0.94,1.5 1.77,1.5 0.04,0 0.98,0 1.65,-0.42 -1.44,-0.45 -1.54,-1.7 -1.54,-1.92 0,-0.76 0.59,-1.28 1.39,-1.28 0.95,0 1.99,0.8 1.99,2.12 0,1.61 -1.71,2.48 -3.49,2.48 -1.53,0 -3.24,-0.87 -4.18,-2.62 -0.7,-1.29 -0.98,-2.86 -1.71,-6.9 h -2.75 c -0.7,0 -1.15,0 -1.15,-0.77 0,-0.49 0.45,-0.49 1.07,-0.49 h 2.59 c -0.04,-0.21 -2.23,-12.76 -3.07,-16.49 -0.17,-0.77 -0.77,-3.42 -2.44,-3.42 -0.03,0 -0.88,0 -1.53,0.42 1.42,0.45 1.53,1.71 1.53,1.92 0,0.76 -0.59,1.29 -1.4,1.29 -0.94,0 -1.98,-0.8 -1.98,-2.13 0,-1.57 1.63,-2.47 3.38,-2.47 2.23,0 3.77,2.3 4.18,3.07 1.26,2.33 2.06,6.62 2.13,7.04 z"
         id="path4064" /></g>  </g>
  <g
     transform="matrix(0.5,0,0,0.5,237.61118,222.89132)"
     id="g4134">
    <g
       style="font-style:normal;font-variant:normal;font-weight:normal;font-stretch:normal;letter-spacing:normal;word-spacing:normal;text-anchor:start;fill:none;stroke:#000000;stroke-linecap:butt;stroke-linejoin:miter;stroke-miterlimit:10.43299961;stroke-opacity:1;stroke-dasharray:none;stroke-dashoffset:0"
       word-spacing="normal"
       letter-spacing="normal"
       font-size-adjust="none"
       font-stretch="normal"
       font-weight="normal"
       font-variant="normal"
       font-style="normal"
       fill-rule="even-odd"
       stroke-miterlimit="10.433"
       xml:space="preserve"
       transform="matrix(1.0629921,0,0,-1.0629921,-186.02362,789.27165)"
       id="g4136"><path
         style="fill:#000000;stroke-width:0"
         id="path4138"
         d="m 479.11,371.8 -10.71,37.36 -6.92,-8.12 0.8,-0.75 3.38,3.99 11.46,-39.95 c 1.65,0 1.69,0 2.09,1.19 L 506.56,452 c 0.25,0.75 0.25,0.95 0.25,1 0,0.54 -0.4,0.99 -1,0.99 -0.74,0 -0.94,-0.65 -1.14,-1.29 z" /><polyline
         style="fill:#000000;fill-rule:nonzero;stroke-width:0"
         id="polyline4140"
         points="505,452 691.12,452 691.12,454.04 505,454.04 " /><path
         style="fill:#000000;stroke-width:0"
         id="path4142"
         d="m 530.85,414.94 0.48,0.11 0.47,0.12 0.49,0.14 0.48,0.15 0.48,0.16 0.48,0.18 0.48,0.19 0.48,0.2 0.47,0.22 0.46,0.23 0.46,0.24 0.45,0.25 0.44,0.27 0.43,0.28 0.42,0.29 0.4,0.3 0.39,0.31 0.37,0.32 0.35,0.34 0.34,0.35 0.32,0.35 0.29,0.37 0.28,0.38 0.25,0.39 0.22,0.4 0.2,0.41 0.17,0.42 0.15,0.43 0.11,0.44 0.08,0.45 0.05,0.45 0.02,0.47 c 0,4.29 -4.48,7.47 -11.01,7.47 h -14.2 c -0.99,0 -1.44,0 -1.44,-0.99 0,-0.55 0.45,-0.55 1.4,-0.55 0.1,0 1.04,0 1.89,-0.1 0.9,-0.1 1.34,-0.15 1.34,-0.8 0,-0.2 -0.04,-0.35 -0.2,-0.94 l -6.67,-26.75 c -0.5,-1.95 -0.6,-2.35 -4.53,-2.35 -0.9,0 -1.35,0 -1.35,-0.99 0,-0.55 0.6,-0.55 0.7,-0.55 h 12.6 c 0.4,0 1,0 1,1 0,0.54 -0.45,0.54 -1.39,0.54 -1.85,0 -3.24,0 -3.24,0.9 0,0.3 0.09,0.55 0.14,0.85 l 3.3,13.2 h 5.92 l -0.05,1.1 h -5.58 l 3.24,13 c 0.3,1.19 0.45,1.69 1.39,1.84 0.45,0.05 2.05,0.05 3.04,0.05 3.54,0 9.07,0 9.07,-4.93 0,-1.7 -0.8,-5.14 -2.74,-7.08 -1.29,-1.29 -3.94,-2.88 -8.42,-2.88 l 0.05,-1.1 c 4.53,0 5.43,-2.79 5.43,-4.53 0,-0.75 -0.4,-2.3 -0.7,-3.44 -0.35,-1.4 -0.79,-3.24 -0.79,-4.23 0,-5.39 5.97,-5.39 6.62,-5.39 4.24,0 5.98,5.03 5.98,5.73 0,0.6 -0.55,0.6 -0.6,0.6 -0.45,0 -0.54,-0.35 -0.65,-0.7 -1.24,-3.68 -3.38,-4.53 -4.53,-4.53 -1.64,0 -1.99,1.1 -1.99,3.04 0,1.54 0.3,4.08 0.5,5.68 0.1,0.69 0.19,1.64 0.19,2.34 0,3.83 -3.33,5.38 -4.68,5.88 z" /><path
         style="fill:#000000;stroke-width:0"
         id="path4144"
         d="m 560.61,418.35 h -1.19 c -0.1,-0.77 -0.45,-2.83 -0.9,-3.18 -0.28,-0.21 -2.97,-0.21 -3.45,-0.21 h -6.42 c 3.66,3.25 4.88,4.22 6.97,5.86 2.58,2.06 4.99,4.22 4.99,7.54 0,4.21 -3.7,6.79 -8.16,6.79 -4.33,0 -7.25,-3.03 -7.25,-6.24 0,-1.78 1.5,-1.95 1.84,-1.95 0.84,0 1.86,0.59 1.86,1.85 0,0.62 -0.25,1.85 -2.06,1.85 1.08,2.47 3.45,3.24 5.09,3.24 3.48,0 5.3,-2.72 5.3,-5.54 0,-3.04 -2.16,-5.45 -3.28,-6.7 l -8.4,-8.3 c -0.35,-0.31 -0.35,-0.38 -0.35,-1.36 h 14.36 z" /><path
         style="fill:#000000;stroke-width:0"
         id="path4146"
         d="m 561.62,398.66 0,0.12 0,0.12 -0.01,0.12 -0.01,0.12 -0.01,0.11 -0.01,0.1 -0.01,0.11 -0.02,0.1 -0.02,0.09 -0.02,0.1 -0.02,0.09 -0.02,0.08 -0.03,0.08 -0.02,0.08 -0.03,0.08 -0.03,0.08 -0.03,0.07 -0.03,0.06 -0.03,0.07 -0.03,0.06 -0.04,0.06 -0.03,0.06 -0.04,0.05 -0.03,0.06 -0.04,0.04 -0.04,0.05 -0.08,0.09 -0.07,0.08 -0.08,0.07 -0.08,0.06 -0.08,0.05 -0.08,0.05 -0.08,0.04 -0.07,0.03 -0.07,0.03 -0.07,0.03 -0.07,0.02 -0.06,0.01 -0.05,0.01 -0.06,0.01 -0.04,0.01 -0.04,0 -0.03,0 -0.02,0 -0.01,0 c -0.91,0 -1.89,-0.94 -1.89,-1.85 0,-0.59 0.35,-0.87 0.6,-1.08 0.59,-0.48 1.29,-1.39 1.29,-2.78 0,-1.58 -2.31,-9.07 -6.45,-9.07 -2.83,0 -2.83,2.51 -2.83,3.1 0,1.61 0.63,3.56 1.92,6.8 0.28,0.73 0.49,1.26 0.49,1.85 0,1.81 -1.54,3 -3.31,3 -3.49,0 -5.06,-4.78 -5.06,-5.34 0,-0.45 0.49,-0.45 0.59,-0.45 0.49,0 0.52,0.17 0.63,0.56 0.84,2.86 2.34,4.25 3.73,4.25 0.59,0 0.87,-0.38 0.87,-1.22 0,-0.8 -0.28,-1.54 -0.62,-2.34 -1.5,-3.87 -1.89,-5.37 -1.89,-6.62 0,-3.45 2.72,-4.57 5.37,-4.57 5.86,0 8.3,10.15 8.3,13.01 z" /><path
         style="fill:#000000;stroke-width:0"
         id="path4148"
         d="m 610.83,409.46 0.16,0 0.16,0 0.15,0 0.08,0.01 0.08,0 0.07,0.01 0.08,0.01 0.07,0.01 0.07,0.01 0.07,0.01 0.07,0.02 0.06,0.02 0.07,0.02 0.06,0.03 0.05,0.02 0.06,0.04 0.05,0.03 0.05,0.04 0.05,0.04 0.04,0.05 0.04,0.05 0.01,0.02 0.02,0.03 0.02,0.03 0.01,0.03 0.02,0.03 0.01,0.04 0.01,0.03 0.01,0.03 0.01,0.04 0.01,0.04 0,0.04 0.01,0.04 0,0.04 0.01,0.04 0,0.05 0,0.04 c 0,1 -0.9,1 -1.74,1 h -26.95 c -0.85,0 -1.75,0 -1.75,-1 0,-0.99 0.9,-0.99 1.75,-0.99 z" /><path
         style="fill:#000000;stroke-width:0"
         id="path4150"
         d="m 653.85,414.94 0.48,0.11 0.47,0.12 0.49,0.14 0.48,0.15 0.48,0.16 0.48,0.18 0.48,0.19 0.48,0.2 0.47,0.22 0.46,0.23 0.46,0.24 0.45,0.25 0.44,0.27 0.43,0.28 0.42,0.29 0.4,0.3 0.39,0.31 0.37,0.32 0.35,0.34 0.34,0.35 0.32,0.35 0.29,0.37 0.28,0.38 0.25,0.39 0.22,0.4 0.2,0.41 0.17,0.42 0.15,0.43 0.11,0.44 0.08,0.45 0.05,0.45 0.02,0.47 c 0,4.29 -4.48,7.47 -11.01,7.47 h -14.2 c -0.99,0 -1.44,0 -1.44,-0.99 0,-0.55 0.45,-0.55 1.4,-0.55 0.1,0 1.04,0 1.89,-0.1 0.9,-0.1 1.34,-0.15 1.34,-0.8 0,-0.2 -0.04,-0.35 -0.2,-0.94 l -6.67,-26.75 c -0.5,-1.95 -0.6,-2.35 -4.53,-2.35 -0.9,0 -1.35,0 -1.35,-0.99 0,-0.55 0.6,-0.55 0.7,-0.55 h 12.6 c 0.4,0 1,0 1,1 0,0.54 -0.45,0.54 -1.39,0.54 -1.85,0 -3.24,0 -3.24,0.9 0,0.3 0.09,0.55 0.14,0.85 l 3.3,13.2 h 5.92 l -0.05,1.1 h -5.58 l 3.24,13 c 0.3,1.19 0.45,1.69 1.39,1.84 0.45,0.05 2.05,0.05 3.04,0.05 3.54,0 9.07,0 9.07,-4.93 0,-1.7 -0.8,-5.14 -2.74,-7.08 -1.29,-1.29 -3.94,-2.88 -8.42,-2.88 l 0.05,-1.1 c 4.53,0 5.43,-2.79 5.43,-4.53 0,-0.75 -0.4,-2.3 -0.7,-3.44 -0.35,-1.4 -0.79,-3.24 -0.79,-4.23 0,-5.39 5.97,-5.39 6.62,-5.39 4.24,0 5.98,5.03 5.98,5.73 0,0.6 -0.55,0.6 -0.6,0.6 -0.45,0 -0.54,-0.35 -0.65,-0.7 -1.24,-3.68 -3.38,-4.53 -4.53,-4.53 -1.64,0 -1.99,1.1 -1.99,3.04 0,1.54 0.3,4.08 0.5,5.68 0.1,0.69 0.19,1.64 0.19,2.34 0,3.83 -3.33,5.38 -4.68,5.88 z" /><path
         style="fill:#000000;stroke-width:0"
         id="path4152"
         d="m 683.61,421.35 h -1.19 c -0.1,-0.77 -0.45,-2.83 -0.9,-3.18 -0.28,-0.21 -2.97,-0.21 -3.45,-0.21 h -6.42 c 3.66,3.25 4.88,4.22 6.97,5.86 2.58,2.06 4.99,4.22 4.99,7.54 0,4.21 -3.7,6.79 -8.16,6.79 -4.33,0 -7.25,-3.03 -7.25,-6.24 0,-1.78 1.5,-1.95 1.84,-1.95 0.84,0 1.86,0.59 1.86,1.85 0,0.62 -0.25,1.85 -2.06,1.85 1.08,2.47 3.45,3.24 5.09,3.24 3.48,0 5.3,-2.72 5.3,-5.54 0,-3.04 -2.16,-5.45 -3.28,-6.7 l -8.4,-8.3 c -0.35,-0.31 -0.35,-0.38 -0.35,-1.36 h 14.36 z" /><path
         style="fill:#000000;stroke-width:0"
         id="path4154"
         d="m 680.19,396.77 h 3.42 c 0.69,0 1.15,0 1.15,0.77 0,0.49 -0.46,0.49 -1.08,0.49 h -3.24 c 0.8,4.43 1.08,6.03 1.36,7.04 0.17,0.77 0.94,1.5 1.77,1.5 0.04,0 0.98,0 1.65,-0.42 -1.44,-0.45 -1.54,-1.7 -1.54,-1.92 0,-0.76 0.59,-1.28 1.39,-1.28 0.95,0 1.99,0.8 1.99,2.12 0,1.61 -1.71,2.48 -3.49,2.48 -1.53,0 -3.24,-0.87 -4.18,-2.62 -0.7,-1.29 -0.98,-2.86 -1.71,-6.9 h -2.75 c -0.7,0 -1.15,0 -1.15,-0.77 0,-0.49 0.45,-0.49 1.07,-0.49 h 2.59 c -0.04,-0.21 -2.23,-12.76 -3.07,-16.49 -0.17,-0.77 -0.77,-3.42 -2.44,-3.42 -0.03,0 -0.88,0 -1.53,0.42 1.42,0.45 1.53,1.71 1.53,1.92 0,0.76 -0.59,1.29 -1.4,1.29 -0.94,0 -1.98,-0.8 -1.98,-2.13 0,-1.57 1.63,-2.47 3.38,-2.47 2.23,0 3.77,2.3 4.18,3.07 1.26,2.33 2.06,6.62 2.13,7.04 z" /><path
         style="fill:#000000;stroke-width:0"
         id="path4156"
         d="m 705.83,408.86 0,0.38 0.01,0.36 0.01,0.36 0.02,0.35 0.03,0.34 0.03,0.34 0.04,0.32 0.04,0.32 0.05,0.31 0.05,0.3 0.05,0.29 0.06,0.29 0.14,0.54 0.15,0.52 0.16,0.49 0.19,0.46 0.19,0.43 0.21,0.4 0.22,0.37 0.23,0.35 0.24,0.33 0.25,0.3 0.26,0.28 0.26,0.25 0.27,0.23 0.28,0.21 0.27,0.19 0.28,0.17 0.29,0.15 0.28,0.13 0.28,0.11 0.28,0.09 0.28,0.08 0.28,0.06 0.27,0.05 0.26,0.03 0.26,0.02 0.25,0.01 c 0.45,0 3.59,-0.05 5.33,-1.84 -2.04,-0.15 -2.34,-1.64 -2.34,-2.29 0,-1.3 0.9,-2.3 2.29,-2.3 1.3,0 2.29,0.85 2.29,2.34 0,3.4 -3.78,5.34 -7.62,5.34 -6.22,0 -10.8,-5.38 -10.8,-11.56 0,-6.38 4.92,-11.31 10.7,-11.31 6.68,0 8.27,5.98 8.27,6.48 0,0.5 -0.49,0.5 -0.65,0.5 -0.44,0 -0.54,-0.2 -0.64,-0.5 -1.45,-4.63 -4.68,-5.23 -6.53,-5.23 -2.64,0 -7.02,2.14 -7.02,10.16 z" /><path
         style="fill:#000000;stroke-width:0"
         id="path4158"
         d="m 745.46,408.66 -0.01,0.59 -0.05,0.59 -0.07,0.58 -0.09,0.57 -0.13,0.56 -0.15,0.55 -0.17,0.54 -0.2,0.53 -0.22,0.52 -0.25,0.5 -0.26,0.49 -0.29,0.47 -0.31,0.46 -0.33,0.44 -0.35,0.42 -0.36,0.41 -0.39,0.39 -0.4,0.36 -0.41,0.35 -0.44,0.33 -0.44,0.3 -0.46,0.29 -0.48,0.26 -0.48,0.23 -0.5,0.21 -0.51,0.19 -0.52,0.16 -0.53,0.13 -0.54,0.1 -0.55,0.08 -0.56,0.04 -0.56,0.02 -0.05,-1.1 c 2.19,0 4.34,-1.1 5.63,-3.24 1.3,-2.14 1.3,-5.03 1.3,-6.92 0,-1.79 0,-4.49 -1.1,-6.68 -1.09,-2.24 -3.28,-3.68 -5.78,-3.68 h 0 c -2.14,0 -4.33,1.04 -5.68,3.34 -1.24,2.19 -1.24,5.23 -1.24,7.02 0,1.94 0,4.63 1.2,6.82 1.34,2.3 3.68,3.34 5.67,3.34 l 0.05,1.1 c -6.22,0 -11.05,-5.43 -11.05,-11.66 0,-6.43 5.17,-11.21 11,-11.21 6.03,0 11.06,4.88 11.06,11.21 z" /><path
         style="fill:#000000;stroke-width:0"
         id="path4160"
         d="m 757.36,407.66 0.11,-0.02 0.13,-0.02 0.14,-0.03 0.16,-0.03 0.17,-0.04 0.18,-0.05 0.18,-0.05 0.2,-0.05 0.21,-0.06 0.21,-0.07 0.21,-0.08 0.22,-0.09 0.22,-0.09 0.22,-0.1 0.22,-0.12 0.22,-0.12 0.22,-0.13 0.21,-0.14 0.2,-0.15 0.2,-0.16 0.19,-0.18 0.18,-0.19 0.17,-0.2 0.16,-0.21 0.14,-0.22 0.07,-0.12 0.06,-0.12 0.06,-0.13 0.05,-0.12 0.05,-0.13 0.05,-0.14 0.04,-0.14 0.03,-0.14 0.03,-0.15 0.03,-0.15 0.02,-0.15 0.01,-0.16 0.01,-0.16 0,-0.17 c 0,-2.54 -1.74,-4.53 -5.63,-4.53 -4.18,0 -5.98,2.84 -6.92,7.07 -0.15,0.65 -0.2,0.85 -0.7,0.85 -0.64,0 -0.64,-0.35 -0.64,-1.25 v -6.57 c 0,-0.85 0,-1.2 0.54,-1.2 0.25,0 0.3,0.05 1.25,1 0.09,0.1 0.09,0.2 0.99,1.14 2.19,-2.09 4.44,-2.14 5.48,-2.14 5.73,0 8.02,3.34 8.02,6.93 0,2.64 -1.49,4.13 -2.09,4.73 -1.64,1.59 -3.59,1.99 -5.68,2.39 -2.79,0.55 -6.13,1.2 -6.13,4.09 0,1.74 1.3,3.78 5.58,3.78 5.48,0 5.73,-4.48 5.83,-6.03 0.05,-0.45 0.5,-0.45 0.6,-0.45 0.65,0 0.65,0.25 0.65,1.2 v 5.03 c 0,0.85 0,1.2 -0.55,1.2 -0.25,0 -0.35,0 -0.99,-0.6 -0.16,-0.2 -0.65,-0.65 -0.85,-0.8 -1.9,1.4 -3.94,1.4 -4.69,1.4 -6.08,0 -7.96,-3.34 -7.96,-6.13 0,-1.74 0.79,-3.14 2.13,-4.23 1.6,-1.3 2.99,-1.6 6.58,-2.3 z" /><path
         style="fill:#000000;stroke-width:0"
         id="path4162"
         d="m 782.49,386.04 0,0.03 0,0.03 -0.01,0.01 0,0.02 0,0.01 -0.01,0.02 0,0.02 -0.01,0.01 -0.01,0.02 -0.01,0.02 -0.01,0.03 -0.01,0.02 -0.02,0.02 -0.02,0.03 -0.02,0.03 -0.02,0.03 -0.03,0.03 -0.03,0.04 -0.01,0.02 -0.02,0.02 -0.02,0.02 -0.02,0.02 -0.02,0.02 -0.02,0.03 -0.02,0.02 -0.02,0.02 -0.02,0.03 -0.03,0.02 -0.02,0.03 -0.03,0.03 -0.02,0.03 -0.03,0.03 -0.03,0.03 -0.03,0.03 -0.03,0.03 -0.03,0.03 -0.04,0.04 -0.03,0.03 -0.04,0.04 -0.03,0.03 -0.04,0.04 -0.04,0.04 c -6.23,6.28 -7.82,15.69 -7.82,23.31 0,8.67 1.9,17.34 8.02,23.57 0.65,0.59 0.65,0.69 0.65,0.84 0,0.35 -0.2,0.5 -0.5,0.5 -0.5,0 -4.98,-3.39 -7.92,-9.72 -2.54,-5.47 -3.14,-11 -3.14,-15.19 0,-3.88 0.55,-9.91 3.29,-15.54 2.99,-6.12 7.27,-9.36 7.77,-9.36 0.3,0 0.5,0.15 0.5,0.49 z" /><path
         style="fill:#000000;stroke-width:0"
         id="path4164"
         d="m 809.61,424.35 h -1.19 c -0.1,-0.77 -0.45,-2.83 -0.9,-3.18 -0.28,-0.21 -2.97,-0.21 -3.45,-0.21 h -6.42 c 3.66,3.25 4.88,4.22 6.97,5.86 2.58,2.06 4.99,4.22 4.99,7.54 0,4.21 -3.7,6.79 -8.16,6.79 -4.33,0 -7.25,-3.03 -7.25,-6.24 0,-1.78 1.5,-1.95 1.84,-1.95 0.84,0 1.86,0.59 1.86,1.85 0,0.62 -0.25,1.85 -2.06,1.85 1.08,2.47 3.45,3.24 5.09,3.24 3.48,0 5.3,-2.72 5.3,-5.54 0,-3.04 -2.16,-5.45 -3.28,-6.7 l -8.4,-8.3 c -0.35,-0.31 -0.35,-0.38 -0.35,-1.36 h 14.36 z" /><path
         style="fill:#000000;stroke-width:0"
         id="path4166"
         d="m 822.84,430.66 h 4.15 c -0.52,-2.09 -1.29,-5.27 -1.29,-8.02 0,-1.4 0.18,-2.34 0.39,-3.1 0.56,-1.75 1.01,-1.89 1.57,-1.89 0.8,0 1.64,0.73 1.64,1.57 0,0.28 -0.07,0.42 -0.28,0.77 -0.67,1.29 -1.29,3.28 -1.29,6.13 0,0.67 0,2.06 0.49,4.54 h 4.35 c 0.63,0 0.91,0 1.29,0.28 0.49,0.35 0.6,0.9 0.6,1.08 0,1.01 -0.91,1.01 -1.5,1.01 h -13.15 c -1.43,0 -2.4,-0.32 -3.97,-1.78 -0.91,-0.8 -2.27,-2.68 -2.27,-3 0,-0.42 0.45,-0.42 0.59,-0.42 0.39,0 0.42,0.07 0.63,0.38 1.78,2.45 3.94,2.45 4.71,2.45 h 2.12 c -1.08,-3.84 -2.96,-7.95 -4.01,-10.05 -0.2,-0.45 -0.56,-1.18 -0.66,-1.32 -0.03,-0.14 -0.1,-0.28 -0.1,-0.52 0,-0.56 0.42,-1.12 1.22,-1.12 1.39,0 1.77,1.57 2.61,4.71 z" /><polyline
         style="fill:#000000;fill-rule:nonzero;stroke-width:0"
         id="polyline4168"
         points="792,409 836.52,409 836.52,411.04 792,411.04 " /><path
         style="fill:#000000;stroke-width:0"
         id="path4170"
         d="m 828.6,401.99 0.03,0.12 0.03,0.11 0.03,0.11 0.02,0.1 0.03,0.09 0.03,0.1 0.03,0.08 0.03,0.08 0.04,0.08 0.04,0.07 0.04,0.06 0.05,0.06 0.05,0.06 0.05,0.05 0.06,0.05 0.07,0.05 0.08,0.04 0.08,0.04 0.09,0.03 0.1,0.03 0.1,0.03 0.06,0.01 0.06,0.02 0.06,0.01 0.06,0.01 0.07,0.01 0.07,0.01 0.07,0 0.07,0.01 0.08,0.01 0.08,0 0.08,0.01 0.09,0.01 0.09,0 0.09,0 0.1,0.01 0.09,0 0.11,0 0.1,0.01 0.11,0 0.11,0 0.12,0 0.12,0 c 0.73,0 1.18,0 1.18,0.73 0,0.53 -0.42,0.53 -1.05,0.53 h -4.74 c -1.01,0 -1.04,-0.04 -1.49,-0.7 L 812,384.24 l -3.45,19.64 c -0.17,0.9 -0.17,0.94 -1.22,0.94 h -4.99 c -0.69,0 -1.14,0 -1.14,-0.77 0,-0.49 0.41,-0.49 1.18,-0.49 0.56,0 0.7,0 1.32,-0.07 0.7,-0.07 0.77,-0.14 0.77,-0.49 0,-0.03 0,-0.24 -0.14,-0.77 l -4.39,-17.5 c -0.32,-1.18 -0.84,-2.37 -3.63,-2.48 -0.28,0 -0.73,-0.03 -0.73,-0.76 0,-0.04 0.03,-0.49 0.52,-0.49 h 7.33 c 0.17,0 0.69,0 0.69,0.77 0,0.45 -0.45,0.48 -0.77,0.48 -2.23,0.07 -2.23,0.98 -2.23,1.47 0,0.14 0,0.32 0.15,0.87 l 4.63,18.55 h 0.04 l 3.73,-21.2 c 0.1,-0.63 0.17,-0.94 0.69,-0.94 0.49,0 0.77,0.38 1.02,0.77 l 14.64,21.72 0.03,-0.03 -4.91,-19.74 c -0.28,-1.18 -0.35,-1.47 -3.07,-1.47 -0.63,0 -1.05,0 -1.05,-0.76 0,-0.04 0,-0.49 0.56,-0.49 0.67,0 1.47,0.11 2.17,0.11 0.69,0 1.49,0.03 2.19,0.03 0.98,0 3.46,-0.14 4.43,-0.14 0.21,0 0.73,0 0.73,0.77 0,0.48 -0.42,0.48 -1.12,0.48 -0.03,0 -0.69,0 -1.32,0.07 -0.8,0.07 -0.8,0.18 -0.8,0.53 0,0.21 0.11,0.56 0.14,0.76 z" /><path
         style="fill:#000000;stroke-width:0"
         id="path4172"
         d="m 856.4,410.45 -0.01,0.37 0,0.39 -0.01,0.39 -0.01,0.41 -0.04,0.84 -0.06,0.88 -0.09,0.92 -0.1,0.94 -0.14,0.98 -0.16,1 -0.2,1.02 -0.23,1.04 -0.27,1.05 -0.3,1.06 -0.35,1.06 -0.39,1.07 -0.22,0.53 -0.22,0.54 -0.24,0.53 -0.25,0.53 c -2.99,6.12 -7.27,9.36 -7.77,9.36 -0.3,0 -0.5,-0.2 -0.5,-0.5 0,-0.15 0,-0.25 0.94,-1.15 4.89,-4.92 7.73,-12.85 7.73,-23.26 0,-8.52 -1.85,-17.28 -8.02,-23.56 -0.65,-0.6 -0.65,-0.69 -0.65,-0.85 0,-0.29 0.2,-0.49 0.5,-0.49 0.5,0 4.98,3.38 7.92,9.71 2.54,5.48 3.14,11.01 3.14,15.19 z" /></g>  </g>
  <g
     id="g6967"
     transform="matrix(0.5,0,0,0.5,72.993069,374.79919)">
    <g
       word-spacing="normal"
       letter-spacing="normal"
       font-size-adjust="none"
       font-stretch="normal"
       font-weight="normal"
       font-variant="normal"
       font-style="normal"
       fill-rule="even-odd"
       stroke-miterlimit="10.433"
       xml:space="preserve"
       transform="matrix(1.0629921,0,0,-1.0629921,-186.02362,789.27165)"
       id="g6969"
       style="font-style:normal;font-variant:normal;font-weight:normal;font-stretch:normal;letter-spacing:normal;word-spacing:normal;text-anchor:start;fill:none;stroke:#000000;stroke-linecap:butt;stroke-linejoin:miter;stroke-miterlimit:10.43299961;stroke-opacity:1;stroke-dasharray:none;stroke-dashoffset:0"><path
         id="path6971"
         d="m 481.85,412.94 0.48,0.11 0.47,0.12 0.49,0.14 0.48,0.15 0.48,0.16 0.48,0.18 0.48,0.19 0.48,0.2 0.47,0.22 0.46,0.23 0.46,0.24 0.45,0.25 0.44,0.27 0.43,0.28 0.42,0.29 0.4,0.3 0.39,0.31 0.37,0.32 0.35,0.34 0.34,0.35 0.32,0.35 0.29,0.37 0.28,0.38 0.25,0.39 0.22,0.4 0.2,0.41 0.17,0.42 0.15,0.43 0.11,0.44 0.08,0.45 0.05,0.45 0.02,0.47 c 0,4.29 -4.48,7.47 -11.01,7.47 h -14.19 c -1,0 -1.45,0 -1.45,-0.99 0,-0.55 0.45,-0.55 1.4,-0.55 0.1,0 1.04,0 1.89,-0.1 0.9,-0.1 1.34,-0.15 1.34,-0.8 0,-0.2 -0.04,-0.35 -0.2,-0.94 l -6.67,-26.75 c -0.5,-1.95 -0.6,-2.35 -4.53,-2.35 -0.9,0 -1.35,0 -1.35,-0.99 0,-0.55 0.6,-0.55 0.7,-0.55 h 12.6 c 0.4,0 1,0 1,1 0,0.54 -0.45,0.54 -1.39,0.54 -1.85,0 -3.24,0 -3.24,0.9 0,0.3 0.09,0.55 0.15,0.85 l 3.28,13.2 h 5.93 l -0.05,1.1 h -5.58 l 3.24,13 c 0.3,1.19 0.45,1.69 1.39,1.84 0.45,0.05 2.05,0.05 3.04,0.05 3.54,0 9.07,0 9.07,-4.93 0,-1.7 -0.8,-5.14 -2.74,-7.08 -1.3,-1.29 -3.94,-2.88 -8.42,-2.88 l 0.05,-1.1 c 4.54,0 5.43,-2.79 5.43,-4.53 0,-0.75 -0.4,-2.3 -0.7,-3.44 -0.35,-1.4 -0.79,-3.24 -0.79,-4.23 0,-5.39 5.97,-5.39 6.62,-5.39 4.24,0 5.98,5.03 5.98,5.73 0,0.6 -0.55,0.6 -0.6,0.6 -0.45,0 -0.55,-0.35 -0.65,-0.7 -1.24,-3.68 -3.38,-4.53 -4.53,-4.53 -1.64,0 -1.99,1.1 -1.99,3.04 0,1.54 0.3,4.08 0.5,5.68 0.1,0.69 0.2,1.64 0.2,2.34 0,3.83 -3.34,5.38 -4.69,5.88 z"
         style="fill:#000000;stroke-width:0" /><path
         id="path6973"
         d="m 500.81,396.95 0.1,0 0.1,0 0.12,0 0.13,0 0.13,0.01 0.14,0 0.15,0 0.15,0.01 0.17,0.01 0.17,0.01 0.17,0.01 0.18,0.01 0.18,0.01 0.19,0.01 0.39,0.04 0.39,0.04 0.41,0.05 0.41,0.06 0.4,0.07 0.4,0.08 0.2,0.04 0.19,0.05 0.2,0.05 0.18,0.06 0.19,0.05 0.18,0.06 c 2.57,0.91 3.06,2.58 3.06,3.63 0,1.92 -1.92,3.07 -4.32,3.07 v -0.98 c 1.53,0 2.82,-0.77 2.82,-2.09 0,-3.38 -5.89,-3.38 -7.39,-3.38 h -1.71 c 1.43,5.05 5.3,5.47 6.28,5.47 v 0.98 c -4.19,0 -9.83,-3.21 -9.83,-9.17 0,-3.53 2.19,-6.56 6.27,-6.56 5.89,0 8.65,3.45 8.65,3.94 0,0.21 -0.31,0.59 -0.59,0.59 -0.21,0 -0.28,-0.07 -0.56,-0.34 -2.72,-3.21 -6.8,-3.21 -7.43,-3.21 -2.09,0 -3.48,1.39 -3.48,4.22 0,0.49 0,1.18 0.41,3.1 z"
         style="fill:#000000;stroke-width:0" /><path
         id="path6975"
         d="m 563.22,412.29 0.14,0 0.15,0 0.15,0.01 0.07,0 0.07,0 0.07,0.01 0.08,0.01 0.07,0.01 0.07,0.01 0.06,0.02 0.07,0.01 0.07,0.02 0.06,0.02 0.06,0.03 0.06,0.03 0.05,0.03 0.06,0.03 0.05,0.04 0.04,0.04 0.05,0.05 0.03,0.05 0.02,0.03 0.02,0.02 0.02,0.03 0.01,0.03 0.02,0.03 0.01,0.04 0.01,0.03 0.01,0.04 0.01,0.03 0.01,0.04 0.01,0.04 0,0.04 0.01,0.04 0,0.04 0,0.05 0,0.05 c 0,0.99 -0.94,0.99 -1.64,0.99 h -29.84 c -0.7,0 -1.64,0 -1.64,-0.99 0,-1 0.94,-1 1.69,-1 z"
         style="fill:#000000;stroke-width:0" /><path
         id="path6977"
         d="m 563.27,402.62 0.13,0.01 0.14,0 0.14,0 0.07,0.01 0.07,0 0.07,0.01 0.07,0.01 0.07,0.01 0.07,0.01 0.06,0.01 0.07,0.02 0.06,0.02 0.06,0.02 0.06,0.02 0.06,0.03 0.06,0.03 0.05,0.04 0.05,0.04 0.04,0.04 0.05,0.04 0.02,0.03 0.02,0.03 0.01,0.02 0.02,0.03 0.02,0.03 0.01,0.03 0.02,0.03 0.01,0.03 0.01,0.04 0.01,0.03 0.01,0.04 0.01,0.04 0.01,0.04 0,0.04 0.01,0.04 0,0.04 0,0.05 0,0.04 c 0,1 -0.94,1 -1.69,1 h -29.74 c -0.75,0 -1.69,0 -1.69,-1 0,-1 0.94,-1 1.64,-1 z"
         style="fill:#000000;stroke-width:0" /><path
         id="path6979"
         d="m 604.11,371.8 -10.71,37.36 -6.92,-8.12 0.8,-0.75 3.38,3.99 11.46,-39.95 c 1.65,0 1.69,0 2.1,1.19 L 631.56,452 c 0.25,0.75 0.25,0.95 0.25,1 0,0.54 -0.4,0.99 -1,0.99 -0.74,0 -0.94,-0.65 -1.14,-1.29 z"
         style="fill:#000000;stroke-width:0" /><polyline
         id="polyline6981"
         points="631,452 1226.9,452 1226.9,454.04 631,454.04 "
         style="fill:#000000;fill-rule:nonzero;stroke-width:0" /><path
         id="path6983"
         d="m 656.85,412.94 0.48,0.11 0.47,0.12 0.49,0.14 0.48,0.15 0.48,0.16 0.48,0.18 0.48,0.19 0.48,0.2 0.47,0.22 0.46,0.23 0.46,0.24 0.45,0.25 0.44,0.27 0.43,0.28 0.42,0.29 0.4,0.3 0.39,0.31 0.37,0.32 0.35,0.34 0.34,0.35 0.32,0.35 0.29,0.37 0.28,0.38 0.25,0.39 0.22,0.4 0.2,0.41 0.17,0.42 0.15,0.43 0.11,0.44 0.08,0.45 0.05,0.45 0.02,0.47 c 0,4.29 -4.48,7.47 -11.01,7.47 h -14.2 c -0.99,0 -1.44,0 -1.44,-0.99 0,-0.55 0.45,-0.55 1.4,-0.55 0.1,0 1.04,0 1.89,-0.1 0.9,-0.1 1.34,-0.15 1.34,-0.8 0,-0.2 -0.04,-0.35 -0.2,-0.94 l -6.67,-26.75 c -0.5,-1.95 -0.6,-2.35 -4.53,-2.35 -0.9,0 -1.35,0 -1.35,-0.99 0,-0.55 0.6,-0.55 0.7,-0.55 h 12.6 c 0.4,0 1,0 1,1 0,0.54 -0.45,0.54 -1.39,0.54 -1.85,0 -3.24,0 -3.24,0.9 0,0.3 0.09,0.55 0.14,0.85 l 3.3,13.2 h 5.92 l -0.05,1.1 h -5.58 l 3.24,13 c 0.3,1.19 0.45,1.69 1.39,1.84 0.45,0.05 2.05,0.05 3.04,0.05 3.54,0 9.07,0 9.07,-4.93 0,-1.7 -0.8,-5.14 -2.74,-7.08 -1.29,-1.29 -3.94,-2.88 -8.42,-2.88 l 0.05,-1.1 c 4.53,0 5.43,-2.79 5.43,-4.53 0,-0.75 -0.4,-2.3 -0.7,-3.44 -0.35,-1.4 -0.79,-3.24 -0.79,-4.23 0,-5.39 5.97,-5.39 6.62,-5.39 4.24,0 5.98,5.03 5.98,5.73 0,0.6 -0.55,0.6 -0.6,0.6 -0.45,0 -0.54,-0.35 -0.65,-0.7 -1.24,-3.68 -3.38,-4.53 -4.53,-4.53 -1.64,0 -1.99,1.1 -1.99,3.04 0,1.54 0.3,4.08 0.5,5.68 0.1,0.69 0.19,1.64 0.19,2.34 0,3.83 -3.33,5.38 -4.68,5.88 z"
         style="fill:#000000;stroke-width:0" /><path
         id="path6985"
         d="m 686.61,419.35 h -1.19 c -0.1,-0.77 -0.45,-2.83 -0.9,-3.18 -0.28,-0.21 -2.97,-0.21 -3.45,-0.21 h -6.42 c 3.66,3.25 4.88,4.22 6.97,5.86 2.58,2.06 4.99,4.22 4.99,7.54 0,4.21 -3.7,6.79 -8.16,6.79 -4.33,0 -7.25,-3.03 -7.25,-6.24 0,-1.78 1.5,-1.95 1.84,-1.95 0.84,0 1.86,0.59 1.86,1.85 0,0.62 -0.25,1.85 -2.06,1.85 1.08,2.47 3.45,3.24 5.09,3.24 3.48,0 5.3,-2.72 5.3,-5.54 0,-3.04 -2.16,-5.45 -3.28,-6.7 l -8.4,-8.3 c -0.35,-0.31 -0.35,-0.38 -0.35,-1.36 h 14.36 z"
         style="fill:#000000;stroke-width:0" /><path
         id="path6987"
         d="m 683.19,394.77 h 3.42 c 0.69,0 1.15,0 1.15,0.77 0,0.49 -0.46,0.49 -1.08,0.49 h -3.24 c 0.8,4.43 1.08,6.03 1.36,7.04 0.17,0.77 0.94,1.5 1.77,1.5 0.04,0 0.98,0 1.65,-0.42 -1.44,-0.45 -1.54,-1.7 -1.54,-1.92 0,-0.76 0.59,-1.28 1.39,-1.28 0.95,0 1.99,0.8 1.99,2.12 0,1.61 -1.71,2.48 -3.49,2.48 -1.53,0 -3.24,-0.87 -4.18,-2.62 -0.7,-1.29 -0.98,-2.86 -1.71,-6.9 h -2.75 c -0.7,0 -1.15,0 -1.15,-0.77 0,-0.49 0.45,-0.49 1.07,-0.49 h 2.59 c -0.04,-0.21 -2.23,-12.76 -3.07,-16.49 -0.17,-0.77 -0.77,-3.42 -2.44,-3.42 -0.03,0 -0.88,0 -1.53,0.42 1.42,0.45 1.53,1.71 1.53,1.92 0,0.76 -0.59,1.29 -1.4,1.29 -0.94,0 -1.98,-0.8 -1.98,-2.13 0,-1.57 1.63,-2.47 3.38,-2.47 2.23,0 3.77,2.3 4.18,3.07 1.26,2.33 2.06,6.62 2.13,7.04 z"
         style="fill:#000000;stroke-width:0" /><path
         id="path6989"
         d="m 713.36,405.66 0.11,-0.02 0.13,-0.02 0.14,-0.03 0.16,-0.03 0.17,-0.04 0.18,-0.05 0.18,-0.05 0.2,-0.05 0.21,-0.06 0.21,-0.07 0.21,-0.08 0.22,-0.09 0.22,-0.09 0.22,-0.1 0.22,-0.12 0.22,-0.12 0.22,-0.13 0.21,-0.14 0.2,-0.15 0.2,-0.16 0.19,-0.18 0.18,-0.19 0.17,-0.2 0.16,-0.21 0.14,-0.22 0.07,-0.12 0.06,-0.12 0.06,-0.13 0.05,-0.12 0.05,-0.13 0.05,-0.14 0.04,-0.14 0.03,-0.14 0.03,-0.15 0.03,-0.15 0.02,-0.15 0.01,-0.16 0.01,-0.16 0,-0.17 c 0,-2.54 -1.74,-4.53 -5.63,-4.53 -4.18,0 -5.98,2.84 -6.92,7.07 -0.15,0.65 -0.2,0.85 -0.7,0.85 -0.64,0 -0.64,-0.35 -0.64,-1.25 v -6.57 c 0,-0.85 0,-1.2 0.54,-1.2 0.25,0 0.3,0.05 1.25,1 0.09,0.1 0.09,0.2 0.99,1.14 2.19,-2.09 4.44,-2.14 5.48,-2.14 5.73,0 8.02,3.34 8.02,6.93 0,2.64 -1.49,4.13 -2.09,4.73 -1.64,1.59 -3.59,1.99 -5.68,2.39 -2.79,0.55 -6.13,1.2 -6.13,4.09 0,1.74 1.3,3.78 5.58,3.78 5.48,0 5.73,-4.48 5.83,-6.03 0.05,-0.45 0.5,-0.45 0.6,-0.45 0.65,0 0.65,0.25 0.65,1.2 v 5.03 c 0,0.85 0,1.2 -0.55,1.2 -0.25,0 -0.35,0 -0.99,-0.6 -0.16,-0.2 -0.65,-0.65 -0.85,-0.8 -1.9,1.4 -3.94,1.4 -4.69,1.4 -6.08,0 -7.96,-3.34 -7.96,-6.13 0,-1.74 0.79,-3.14 2.13,-4.23 1.6,-1.3 2.99,-1.6 6.58,-2.3 z"
         style="fill:#000000;stroke-width:0" /><path
         id="path6991"
         d="m 731.82,418.02 -6.98,-0.55 v -1.54 c 3.24,0 3.69,-0.31 3.69,-2.75 v -13.39 c 0,-2.25 -0.55,-2.25 -3.88,-2.25 V 396 h 10.65 v 1.54 c -3.28,0 -3.48,0.25 -3.48,2.19 z"
         style="fill:#000000;stroke-width:0" /><path
         id="path6993"
         d="m 732.02,426.68 -0.01,0.15 -0.01,0.15 -0.02,0.14 -0.02,0.13 -0.03,0.14 -0.04,0.13 -0.04,0.13 -0.05,0.12 -0.06,0.12 -0.06,0.11 -0.06,0.11 -0.07,0.11 -0.08,0.1 -0.08,0.1 -0.08,0.09 -0.09,0.09 -0.09,0.09 -0.1,0.07 -0.1,0.08 -0.11,0.07 -0.1,0.06 -0.11,0.06 -0.12,0.06 -0.11,0.05 -0.12,0.04 -0.12,0.04 -0.13,0.03 -0.12,0.03 -0.13,0.02 -0.13,0.01 -0.12,0.01 -0.13,0 c -1.55,0 -2.65,-1.34 -2.65,-2.64 0,-1.34 1.1,-2.64 2.65,-2.64 1.39,0 2.64,1.05 2.64,2.64 z"
         style="fill:#000000;stroke-width:0" /><path
         id="path6995"
         d="m 741.48,413.14 v -13.35 c 0,-2.25 -0.55,-2.25 -3.89,-2.25 V 396 h 11.21 v 1.54 c -3.33,0 -3.88,0 -3.88,2.25 v 9.16 c 0,5.18 3.53,7.97 6.72,7.97 3.14,0 3.69,-2.69 3.69,-5.53 v -11.6 c 0,-2.25 -0.55,-2.25 -3.89,-2.25 V 396 h 11.21 v 1.54 c -2.59,0 -3.84,0 -3.88,1.5 v 9.51 c 0,4.29 0,5.83 -1.55,7.63 -0.7,0.84 -2.34,1.84 -5.23,1.84 -3.64,0 -5.98,-2.14 -7.37,-5.23 v 5.23 l -7.03,-0.55 v -1.54 c 3.49,0 3.89,-0.35 3.89,-2.79 z"
         style="fill:#000000;stroke-width:0" /><path
         id="path6997"
         d="m 781.61,423.35 h -1.19 c -0.1,-0.77 -0.45,-2.83 -0.9,-3.18 -0.28,-0.21 -2.97,-0.21 -3.45,-0.21 h -6.42 c 3.66,3.25 4.88,4.22 6.97,5.86 2.58,2.06 4.99,4.22 4.99,7.54 0,4.21 -3.7,6.79 -8.16,6.79 -4.33,0 -7.25,-3.03 -7.25,-6.24 0,-1.78 1.5,-1.95 1.84,-1.95 0.84,0 1.86,0.59 1.86,1.85 0,0.62 -0.25,1.85 -2.06,1.85 1.08,2.47 3.45,3.24 5.09,3.24 3.48,0 5.3,-2.72 5.3,-5.54 0,-3.04 -2.16,-5.45 -3.28,-6.7 l -8.4,-8.3 c -0.35,-0.31 -0.35,-0.38 -0.35,-1.36 h 14.36 z"
         style="fill:#000000;stroke-width:0" /><path
         id="path6999"
         d="m 815.57,378.77 0,0.01 0,0.02 0,0.02 0,0.02 0,0.01 -0.01,0.02 0,0.01 0,0.02 -0.01,0.01 0,0.02 -0.01,0.01 0,0.02 -0.01,0.01 -0.01,0.01 0,0.01 -0.01,0.02 -0.01,0.02 -0.02,0.03 -0.02,0.02 -0.01,0.03 -0.02,0.02 -0.02,0.03 -0.02,0.03 -0.01,0.02 c -2.3,2.44 -5.68,6.48 -7.78,14.6 -1.14,4.53 -1.59,9.66 -1.59,14.3 0,13.1 3.14,22.26 9.11,28.74 0.45,0.45 0.45,0.54 0.45,0.65 0,0.49 -0.39,0.49 -0.59,0.49 -0.75,0 -3.44,-2.99 -4.09,-3.73 -5.08,-6.03 -8.32,-15 -8.32,-26.1 0,-7.08 1.25,-17.09 7.77,-25.51 0.5,-0.6 3.74,-4.38 4.64,-4.38 0.2,0 0.59,0 0.59,0.5 z"
         style="fill:#000000;stroke-width:0" /><path
         id="path7001"
         d="m 841.61,422.35 h -1.19 c -0.1,-0.77 -0.45,-2.83 -0.9,-3.18 -0.28,-0.21 -2.97,-0.21 -3.45,-0.21 h -6.42 c 3.66,3.25 4.88,4.22 6.97,5.86 2.58,2.06 4.99,4.22 4.99,7.54 0,4.21 -3.7,6.79 -8.16,6.79 -4.33,0 -7.25,-3.03 -7.25,-6.24 0,-1.78 1.5,-1.95 1.84,-1.95 0.84,0 1.86,0.59 1.86,1.85 0,0.62 -0.25,1.85 -2.06,1.85 1.08,2.47 3.45,3.24 5.09,3.24 3.48,0 5.3,-2.72 5.3,-5.54 0,-3.04 -2.16,-5.45 -3.28,-6.7 l -8.4,-8.3 c -0.35,-0.31 -0.35,-0.38 -0.35,-1.36 h 14.36 z"
         style="fill:#000000;stroke-width:0" /><path
         id="path7003"
         d="m 853.84,428.66 h 4.15 c -0.52,-2.09 -1.29,-5.27 -1.29,-8.02 0,-1.4 0.18,-2.34 0.39,-3.1 0.56,-1.75 1.01,-1.89 1.57,-1.89 0.8,0 1.64,0.73 1.64,1.57 0,0.28 -0.07,0.42 -0.28,0.77 -0.67,1.29 -1.29,3.28 -1.29,6.13 0,0.67 0,2.06 0.49,4.54 h 4.35 c 0.63,0 0.91,0 1.29,0.28 0.49,0.35 0.6,0.9 0.6,1.08 0,1.01 -0.91,1.01 -1.5,1.01 h -13.15 c -1.43,0 -2.4,-0.32 -3.97,-1.78 -0.91,-0.8 -2.27,-2.68 -2.27,-3 0,-0.42 0.45,-0.42 0.59,-0.42 0.39,0 0.42,0.07 0.63,0.38 1.78,2.45 3.94,2.45 4.71,2.45 h 2.12 c -1.08,-3.84 -2.96,-7.95 -4.01,-10.05 -0.2,-0.45 -0.56,-1.18 -0.66,-1.32 -0.03,-0.14 -0.1,-0.28 -0.1,-0.52 0,-0.56 0.42,-1.12 1.22,-1.12 1.39,0 1.77,1.57 2.61,4.71 z"
         style="fill:#000000;stroke-width:0" /><polyline
         id="polyline7005"
         points="824,408 868.52,408 868.52,410.04 824,410.04 "
         style="fill:#000000;fill-rule:nonzero;stroke-width:0" /><path
         id="path7007"
         d="m 860.6,399.99 0.03,0.12 0.03,0.11 0.03,0.11 0.02,0.1 0.03,0.09 0.03,0.1 0.03,0.08 0.03,0.08 0.04,0.08 0.04,0.07 0.04,0.06 0.05,0.06 0.05,0.06 0.05,0.05 0.06,0.05 0.07,0.05 0.08,0.04 0.08,0.04 0.09,0.03 0.1,0.03 0.1,0.03 0.06,0.01 0.06,0.02 0.06,0.01 0.06,0.01 0.07,0.01 0.07,0.01 0.07,0 0.07,0.01 0.08,0.01 0.08,0 0.08,0.01 0.09,0.01 0.09,0 0.09,0 0.1,0.01 0.09,0 0.11,0 0.1,0.01 0.11,0 0.11,0 0.12,0 0.12,0 c 0.73,0 1.18,0 1.18,0.73 0,0.53 -0.42,0.53 -1.05,0.53 h -4.74 c -1.01,0 -1.04,-0.04 -1.49,-0.7 L 844,382.24 l -3.45,19.64 c -0.17,0.9 -0.17,0.94 -1.22,0.94 h -4.99 c -0.69,0 -1.14,0 -1.14,-0.77 0,-0.49 0.41,-0.49 1.18,-0.49 0.56,0 0.7,0 1.32,-0.07 0.7,-0.07 0.77,-0.14 0.77,-0.49 0,-0.03 0,-0.24 -0.14,-0.77 l -4.39,-17.5 c -0.32,-1.18 -0.84,-2.37 -3.63,-2.48 -0.28,0 -0.73,-0.03 -0.73,-0.76 0,-0.04 0.03,-0.49 0.52,-0.49 h 7.33 c 0.17,0 0.69,0 0.69,0.77 0,0.45 -0.45,0.48 -0.77,0.48 -2.23,0.07 -2.23,0.98 -2.23,1.47 0,0.14 0,0.32 0.15,0.87 l 4.63,18.55 h 0.04 l 3.73,-21.2 c 0.1,-0.63 0.17,-0.94 0.69,-0.94 0.49,0 0.77,0.38 1.02,0.77 l 14.64,21.72 0.03,-0.03 -4.91,-19.74 c -0.28,-1.18 -0.35,-1.47 -3.07,-1.47 -0.63,0 -1.05,0 -1.05,-0.76 0,-0.04 0,-0.49 0.56,-0.49 0.67,0 1.47,0.11 2.17,0.11 0.69,0 1.49,0.03 2.19,0.03 0.98,0 3.46,-0.14 4.43,-0.14 0.21,0 0.73,0 0.73,0.77 0,0.48 -0.42,0.48 -1.12,0.48 -0.03,0 -0.69,0 -1.32,0.07 -0.8,0.07 -0.8,0.18 -0.8,0.53 0,0.21 0.11,0.56 0.14,0.76 z"
         style="fill:#000000;stroke-width:0" /><path
         id="path7009"
         d="m 889.19,408.11 -0.01,1.35 -0.06,1.43 -0.09,1.47 -0.14,1.53 -0.19,1.57 -0.25,1.6 -0.31,1.64 -0.39,1.65 -0.22,0.84 -0.24,0.83 -0.26,0.84 -0.28,0.85 -0.31,0.84 -0.32,0.84 -0.36,0.84 -0.37,0.84 -0.4,0.83 -0.43,0.84 -0.45,0.82 -0.48,0.83 -0.51,0.81 -0.54,0.81 -0.56,0.81 -0.6,0.79 c -0.49,0.6 -3.73,4.38 -4.63,4.38 -0.25,0 -0.6,-0.1 -0.6,-0.49 0,-0.2 0.1,-0.36 0.3,-0.5 2.39,-2.59 5.63,-6.63 7.67,-14.55 1.15,-4.53 1.6,-9.66 1.6,-14.29 0,-5.04 -0.45,-10.12 -1.75,-15 -1.89,-6.97 -4.83,-10.96 -7.37,-13.75 -0.45,-0.45 -0.45,-0.55 -0.45,-0.64 0,-0.4 0.35,-0.5 0.6,-0.5 0.74,0 3.49,3.03 4.09,3.73 5.08,6.03 8.31,15 8.31,26.11 z"
         style="fill:#000000;stroke-width:0" /><path
         id="path7011"
         d="m 928.38,407.46 h 13.89 c 0.7,0 1.64,0 1.64,0.99 0,1 -0.94,1 -1.64,1 h -13.89 v 13.95 c 0,0.69 0,1.64 -1,1.64 -1,0 -1,-0.95 -1,-1.64 v -13.95 h -13.95 c -0.7,0 -1.64,0 -1.64,-1 0,-0.99 0.94,-0.99 1.64,-0.99 h 13.95 v -13.95 c 0,-0.7 0,-1.64 1,-1.64 1,0 1,0.94 1,1.64 z"
         style="fill:#000000;stroke-width:0" /><path
         id="path7013"
         d="m 983.85,412.94 0.48,0.11 0.47,0.12 0.49,0.14 0.48,0.15 0.48,0.16 0.48,0.18 0.48,0.19 0.48,0.2 0.47,0.22 0.46,0.23 0.46,0.24 0.45,0.25 0.44,0.27 0.43,0.28 0.42,0.29 0.4,0.3 0.39,0.31 0.37,0.32 0.35,0.34 0.34,0.35 0.32,0.35 0.29,0.37 0.28,0.38 0.25,0.39 0.22,0.4 0.2,0.41 0.17,0.42 0.15,0.43 0.11,0.44 0.08,0.45 0.05,0.45 0.02,0.47 c 0,4.29 -4.48,7.47 -11.01,7.47 h -14.2 c -0.99,0 -1.44,0 -1.44,-0.99 0,-0.55 0.45,-0.55 1.4,-0.55 0.1,0 1.04,0 1.89,-0.1 0.9,-0.1 1.34,-0.15 1.34,-0.8 0,-0.2 -0.04,-0.35 -0.2,-0.94 l -6.67,-26.75 c -0.5,-1.95 -0.6,-2.35 -4.53,-2.35 -0.9,0 -1.35,0 -1.35,-0.99 0,-0.55 0.6,-0.55 0.7,-0.55 h 12.6 c 0.4,0 1,0 1,1 0,0.54 -0.45,0.54 -1.39,0.54 -1.85,0 -3.24,0 -3.24,0.9 0,0.3 0.09,0.55 0.14,0.85 l 3.3,13.2 h 5.92 l -0.05,1.1 h -5.58 l 3.24,13 c 0.3,1.19 0.45,1.69 1.39,1.84 0.45,0.05 2.05,0.05 3.04,0.05 3.54,0 9.07,0 9.07,-4.93 0,-1.7 -0.8,-5.14 -2.74,-7.08 -1.29,-1.29 -3.94,-2.88 -8.42,-2.88 l 0.05,-1.1 c 4.53,0 5.43,-2.79 5.43,-4.53 0,-0.75 -0.4,-2.3 -0.7,-3.44 -0.35,-1.4 -0.79,-3.24 -0.79,-4.23 0,-5.39 5.97,-5.39 6.62,-5.39 4.24,0 5.98,5.03 5.98,5.73 0,0.6 -0.55,0.6 -0.6,0.6 -0.45,0 -0.54,-0.35 -0.65,-0.7 -1.24,-3.68 -3.38,-4.53 -4.53,-4.53 -1.64,0 -1.99,1.1 -1.99,3.04 0,1.54 0.3,4.08 0.5,5.68 0.1,0.69 0.19,1.64 0.19,2.34 0,3.83 -3.33,5.38 -4.68,5.88 z"
         style="fill:#000000;stroke-width:0" /><path
         id="path7015"
         d="m 1013.6,417.35 h -1.2 c -0.1,-0.77 -0.4,-2.83 -0.9,-3.18 -0.3,-0.21 -3,-0.21 -3.4,-0.21 h -6.4 c 3.6,3.25 4.8,4.22 6.9,5.86 2.6,2.06 5,4.22 5,7.54 0,4.21 -3.7,6.79 -8.1,6.79 -4.4,0 -7.3,-3.03 -7.3,-6.24 0,-1.78 1.5,-1.95 1.8,-1.95 0.9,0 1.9,0.59 1.9,1.85 0,0.62 -0.2,1.85 -2.06,1.85 1.06,2.47 3.46,3.24 5.06,3.24 3.5,0 5.3,-2.72 5.3,-5.54 0,-3.04 -2.1,-5.45 -3.2,-6.7 l -8.45,-8.3 c -0.35,-0.31 -0.35,-0.38 -0.35,-1.36 h 14.4 z"
         style="fill:#000000;stroke-width:0" /><path
         id="path7017"
         d="m 1014.6,396.66 0,0.12 0,0.12 0,0.12 0,0.12 0,0.11 0,0.1 0,0.11 -0.1,0.1 0,0.09 0,0.1 0,0.09 0,0.08 -0.1,0.08 0,0.08 0,0.08 0,0.08 -0.1,0.07 0,0.06 0,0.07 -0.1,0.06 0,0.06 0,0.06 -0.1,0.05 0,0.06 0,0.04 -0.1,0.05 -0.1,0.09 0,0.08 -0.1,0.07 -0.1,0.06 -0.1,0.05 0,0.05 -0.1,0.04 -0.1,0.03 -0.1,0.03 0,0.03 -0.1,0.02 -0.1,0.01 0,0.01 -0.1,0.01 0,0.01 -0.1,0 0,0 0,0 0,0 c -0.9,0 -1.9,-0.94 -1.9,-1.85 0,-0.59 0.3,-0.87 0.6,-1.08 0.6,-0.48 1.3,-1.39 1.3,-2.78 0,-1.58 -2.3,-9.07 -6.5,-9.07 -2.8,0 -2.8,2.51 -2.8,3.1 0,1.61 0.6,3.56 1.9,6.8 0.3,0.73 0.5,1.26 0.5,1.85 0,1.81 -1.5,3 -3.3,3 -3.49,0 -5.06,-4.78 -5.06,-5.34 0,-0.45 0.49,-0.45 0.59,-0.45 0.49,0 0.52,0.17 0.63,0.56 0.84,2.86 2.34,4.25 3.74,4.25 0.6,0 0.9,-0.38 0.9,-1.22 0,-0.8 -0.3,-1.54 -0.7,-2.34 -1.5,-3.87 -1.8,-5.37 -1.8,-6.62 0,-3.45 2.7,-4.57 5.3,-4.57 5.9,0 8.3,10.15 8.3,13.01 z"
         style="fill:#000000;stroke-width:0" /><path
         id="path7019"
         d="m 1032.8,406.86 0,0.38 0,0.36 0.1,0.36 0,0.35 0,0.34 0,0.34 0.1,0.32 0,0.32 0.1,0.31 0,0.3 0.1,0.29 0,0.29 0.2,0.54 0.1,0.52 0.2,0.49 0.2,0.46 0.2,0.43 0.2,0.4 0.2,0.37 0.2,0.35 0.3,0.33 0.2,0.3 0.3,0.28 0.2,0.25 0.3,0.23 0.3,0.21 0.2,0.19 0.3,0.17 0.3,0.15 0.3,0.13 0.3,0.11 0.2,0.09 0.3,0.08 0.3,0.06 0.3,0.05 0.2,0.03 0.3,0.02 0.3,0.01 c 0.4,0 3.5,-0.05 5.3,-1.84 -2.1,-0.15 -2.4,-1.64 -2.4,-2.29 0,-1.3 0.9,-2.3 2.3,-2.3 1.3,0 2.3,0.85 2.3,2.34 0,3.4 -3.8,5.34 -7.6,5.34 -6.2,0 -10.8,-5.38 -10.8,-11.56 0,-6.38 4.9,-11.31 10.7,-11.31 6.7,0 8.3,5.98 8.3,6.48 0,0.5 -0.5,0.5 -0.7,0.5 -0.4,0 -0.5,-0.2 -0.6,-0.5 -1.5,-4.63 -4.7,-5.23 -6.6,-5.23 -2.6,0 -7,2.14 -7,10.16 z"
         style="fill:#000000;stroke-width:0" /><path
         id="path7021"
         d="m 1073.5,406.66 -0.1,0.59 0,0.59 -0.1,0.58 -0.1,0.57 -0.1,0.56 -0.1,0.55 -0.2,0.54 -0.2,0.53 -0.2,0.52 -0.3,0.5 -0.2,0.49 -0.3,0.47 -0.3,0.46 -0.4,0.44 -0.3,0.42 -0.4,0.41 -0.4,0.39 -0.4,0.36 -0.4,0.35 -0.4,0.33 -0.5,0.3 -0.4,0.29 -0.5,0.26 -0.5,0.23 -0.5,0.21 -0.5,0.19 -0.5,0.16 -0.5,0.13 -0.6,0.1 -0.5,0.08 -0.6,0.04 -0.6,0.02 0,-1.1 c 2.2,0 4.3,-1.1 5.6,-3.24 1.3,-2.14 1.3,-5.03 1.3,-6.92 0,-1.79 0,-4.49 -1.1,-6.68 -1.1,-2.24 -3.3,-3.68 -5.8,-3.68 h 0 c -2.1,0 -4.3,1.04 -5.6,3.34 -1.3,2.19 -1.3,5.23 -1.3,7.02 0,1.94 0,4.63 1.2,6.82 1.4,2.3 3.7,3.34 5.7,3.34 l 0,1.1 c -6.2,0 -11,-5.43 -11,-11.66 0,-6.43 5.2,-11.21 11,-11.21 6,0 11.1,4.88 11.1,11.21 z"
         style="fill:#000000;stroke-width:0" /><path
         id="path7023"
         d="m 1084.4,405.66 0.1,-0.02 0.1,-0.02 0.1,-0.03 0.2,-0.03 0.2,-0.04 0.1,-0.05 0.2,-0.05 0.2,-0.05 0.2,-0.06 0.2,-0.07 0.3,-0.08 0.2,-0.09 0.2,-0.09 0.2,-0.1 0.2,-0.12 0.3,-0.12 0.2,-0.13 0.2,-0.14 0.2,-0.15 0.2,-0.16 0.2,-0.18 0.2,-0.19 0.1,-0.2 0.2,-0.21 0.1,-0.22 0.1,-0.12 0.1,-0.12 0,-0.13 0.1,-0.12 0,-0.13 0.1,-0.14 0,-0.14 0,-0.14 0.1,-0.15 0,-0.15 0,-0.15 0,-0.16 0,-0.16 0,-0.17 c 0,-2.54 -1.7,-4.53 -5.6,-4.53 -4.2,0 -6,2.84 -6.9,7.07 -0.2,0.65 -0.2,0.85 -0.7,0.85 -0.7,0 -0.7,-0.35 -0.7,-1.25 v -6.57 c 0,-0.85 0,-1.2 0.6,-1.2 0.2,0 0.3,0.05 1.2,1 0.1,0.1 0.1,0.2 1,1.14 2.2,-2.09 4.5,-2.14 5.5,-2.14 5.7,0 8,3.34 8,6.93 0,2.64 -1.5,4.13 -2.1,4.73 -1.6,1.59 -3.6,1.99 -5.6,2.39 -2.8,0.55 -6.2,1.2 -6.2,4.09 0,1.74 1.3,3.78 5.6,3.78 5.5,0 5.7,-4.48 5.8,-6.03 0.1,-0.45 0.5,-0.45 0.6,-0.45 0.7,0 0.7,0.25 0.7,1.2 v 5.03 c 0,0.85 0,1.2 -0.6,1.2 -0.2,0 -0.3,0 -1,-0.6 -0.1,-0.2 -0.6,-0.65 -0.8,-0.8 -1.9,1.4 -3.9,1.4 -4.7,1.4 -6.1,0 -8,-3.34 -8,-6.13 0,-1.74 0.8,-3.14 2.2,-4.23 1.6,-1.3 3,-1.6 6.6,-2.3 z"
         style="fill:#000000;stroke-width:0" /><path
         id="path7025"
         d="m 1111.6,417.35 h -1.2 c -0.1,-0.77 -0.4,-2.83 -0.9,-3.18 -0.3,-0.21 -2.9,-0.21 -3.4,-0.21 h -6.4 c 3.6,3.25 4.8,4.22 6.9,5.86 2.6,2.06 5,4.22 5,7.54 0,4.21 -3.7,6.79 -8.2,6.79 -4.3,0 -7.2,-3.03 -7.2,-6.24 0,-1.78 1.5,-1.95 1.8,-1.95 0.9,0 1.9,0.59 1.9,1.85 0,0.62 -0.2,1.85 -2.1,1.85 1.1,2.47 3.5,3.24 5.1,3.24 3.5,0 5.3,-2.72 5.3,-5.54 0,-3.04 -2.1,-5.45 -3.3,-6.7 l -8.3,-8.3 c -0.4,-0.31 -0.4,-0.38 -0.4,-1.36 h 14.4 z"
         style="fill:#000000;stroke-width:0" /><path
         id="path7027"
         d="m 1145.6,378.77 0,0.01 0,0.02 0,0.02 0,0.02 0,0.01 0,0.02 0,0.01 0,0.02 -0.1,0.01 0,0.02 0,0.01 0,0.02 0,0.01 0,0.01 0,0.03 0,0.02 0,0.03 0,0.02 -0.1,0.03 0,0.02 0,0.03 0,0.03 0,0.02 c -2.3,2.44 -5.7,6.48 -7.8,14.6 -1.1,4.53 -1.6,9.66 -1.6,14.3 0,13.1 3.2,22.26 9.1,28.74 0.5,0.45 0.5,0.54 0.5,0.65 0,0.49 -0.4,0.49 -0.6,0.49 -0.8,0 -3.5,-2.99 -4.1,-3.73 -5.1,-6.03 -8.3,-15 -8.3,-26.1 0,-7.08 1.2,-17.09 7.7,-25.51 0.5,-0.6 3.8,-4.38 4.7,-4.38 0.2,0 0.6,0 0.6,0.5 z"
         style="fill:#000000;stroke-width:0" /><path
         id="path7029"
         d="m 1171.6,422.35 h -1.2 c -0.1,-0.77 -0.4,-2.83 -0.9,-3.18 -0.3,-0.21 -2.9,-0.21 -3.4,-0.21 h -6.4 c 3.6,3.25 4.8,4.22 6.9,5.86 2.6,2.06 5,4.22 5,7.54 0,4.21 -3.7,6.79 -8.2,6.79 -4.3,0 -7.2,-3.03 -7.2,-6.24 0,-1.78 1.5,-1.95 1.8,-1.95 0.9,0 1.9,0.59 1.9,1.85 0,0.62 -0.2,1.85 -2.1,1.85 1.1,2.47 3.5,3.24 5.1,3.24 3.5,0 5.3,-2.72 5.3,-5.54 0,-3.04 -2.1,-5.45 -3.3,-6.7 l -8.3,-8.3 c -0.4,-0.31 -0.4,-0.38 -0.4,-1.36 h 14.4 z"
         style="fill:#000000;stroke-width:0" /><path
         id="path7031"
         d="m 1183.8,428.66 h 4.2 c -0.5,-2.09 -1.3,-5.27 -1.3,-8.02 0,-1.4 0.2,-2.34 0.4,-3.1 0.5,-1.75 1,-1.89 1.6,-1.89 0.8,0 1.6,0.73 1.6,1.57 0,0.28 -0.1,0.42 -0.3,0.77 -0.6,1.29 -1.3,3.28 -1.3,6.13 0,0.67 0,2.06 0.5,4.54 h 4.4 c 0.6,0 0.9,0 1.3,0.28 0.4,0.35 0.6,0.9 0.6,1.08 0,1.01 -0.9,1.01 -1.5,1.01 h -13.2 c -1.4,0 -2.4,-0.32 -4,-1.78 -0.9,-0.8 -2.2,-2.68 -2.2,-3 0,-0.42 0.4,-0.42 0.6,-0.42 0.4,0 0.4,0.07 0.6,0.38 1.8,2.45 3.9,2.45 4.7,2.45 h 2.1 c -1.1,-3.84 -2.9,-7.95 -4,-10.05 -0.2,-0.45 -0.5,-1.18 -0.7,-1.32 0,-0.14 -0.1,-0.28 -0.1,-0.52 0,-0.56 0.5,-1.12 1.3,-1.12 1.4,0 1.7,1.57 2.6,4.71 z"
         style="fill:#000000;stroke-width:0" /><polyline
         id="polyline7033"
         points="1154,408 1198.5,408 1198.5,410.04 1154,410.04 "
         style="fill:#000000;fill-rule:nonzero;stroke-width:0" /><path
         id="path7035"
         d="m 1190.6,399.99 0,0.12 0.1,0.11 0,0.11 0,0.1 0,0.09 0.1,0.1 0,0.08 0,0.08 0.1,0.08 0,0.07 0,0.06 0.1,0.06 0,0.06 0.1,0.05 0.1,0.05 0,0.05 0.1,0.04 0.1,0.04 0.1,0.03 0.1,0.03 0.1,0.03 0,0.01 0.1,0.02 0.1,0.01 0,0.01 0.1,0.01 0.1,0.01 0,0 0.1,0.01 0.1,0.01 0.1,0 0,0.01 0.1,0.01 0.1,0 0.1,0 0.1,0.01 0.1,0 0.1,0 0.1,0.01 0.1,0 0.1,0 0.2,0 0.1,0 c 0.7,0 1.2,0 1.2,0.73 0,0.53 -0.5,0.53 -1.1,0.53 h -4.7 c -1.1,0 -1.1,-0.04 -1.5,-0.7 l -13.5,-19.88 -3.4,19.64 c -0.2,0.9 -0.2,0.94 -1.3,0.94 h -5 c -0.6,0 -1.1,0 -1.1,-0.77 0,-0.49 0.4,-0.49 1.2,-0.49 0.5,0 0.7,0 1.3,-0.07 0.7,-0.07 0.8,-0.14 0.8,-0.49 0,-0.03 0,-0.24 -0.2,-0.77 l -4.4,-17.5 c -0.3,-1.18 -0.8,-2.37 -3.6,-2.48 -0.3,0 -0.7,-0.03 -0.7,-0.76 0,-0.04 0,-0.49 0.5,-0.49 h 7.3 c 0.2,0 0.7,0 0.7,0.77 0,0.45 -0.4,0.48 -0.7,0.48 -2.3,0.07 -2.3,0.98 -2.3,1.47 0,0.14 0,0.32 0.2,0.87 l 4.6,18.55 h 0 l 3.8,-21.2 c 0.1,-0.63 0.1,-0.94 0.7,-0.94 0.4,0 0.7,0.38 1,0.77 l 14.6,21.72 0.1,-0.03 -5,-19.74 c -0.2,-1.18 -0.3,-1.47 -3,-1.47 -0.7,0 -1.1,0 -1.1,-0.76 0,-0.04 0,-0.49 0.6,-0.49 0.6,0 1.5,0.11 2.2,0.11 0.6,0 1.4,0.03 2.1,0.03 1,0 3.5,-0.14 4.5,-0.14 0.2,0 0.7,0 0.7,0.77 0,0.48 -0.4,0.48 -1.1,0.48 -0.1,0 -0.7,0 -1.3,0.07 -0.8,0.07 -0.8,0.18 -0.8,0.53 0,0.21 0.1,0.56 0.1,0.76 z"
         style="fill:#000000;stroke-width:0" /><path
         id="path7037"
         d="m 1219.2,408.11 0,1.35 -0.1,1.43 -0.1,1.47 -0.1,1.53 -0.2,1.57 -0.2,1.6 -0.4,1.64 -0.3,1.65 -0.3,0.84 -0.2,0.83 -0.3,0.84 -0.3,0.85 -0.3,0.84 -0.3,0.84 -0.3,0.84 -0.4,0.84 -0.4,0.83 -0.4,0.84 -0.5,0.82 -0.5,0.83 -0.5,0.81 -0.5,0.81 -0.6,0.81 -0.6,0.79 c -0.5,0.6 -3.7,4.38 -4.6,4.38 -0.3,0 -0.6,-0.1 -0.6,-0.49 0,-0.2 0.1,-0.36 0.3,-0.5 2.4,-2.59 5.6,-6.63 7.7,-14.55 1.1,-4.53 1.6,-9.66 1.6,-14.29 0,-5.04 -0.5,-10.12 -1.8,-15 -1.9,-6.97 -4.8,-10.96 -7.4,-13.75 -0.4,-0.45 -0.4,-0.55 -0.4,-0.64 0,-0.4 0.3,-0.5 0.6,-0.5 0.7,0 3.5,3.03 4.1,3.73 5.1,6.03 8.3,15 8.3,26.11 z"
         style="fill:#000000;stroke-width:0" /></g>  </g>
</svg>
