<?xml version="1.0" encoding="UTF-8" standalone="no"?>
<!-- Created with Inkscape (http://www.inkscape.org/) -->

<svg
   xmlns:dc="http://purl.org/dc/elements/1.1/"
   xmlns:cc="http://creativecommons.org/ns#"
   xmlns:rdf="http://www.w3.org/1999/02/22-rdf-syntax-ns#"
   xmlns:svg="http://www.w3.org/2000/svg"
   xmlns="http://www.w3.org/2000/svg"
   xmlns:sodipodi="http://sodipodi.sourceforge.net/DTD/sodipodi-0.dtd"
   xmlns:inkscape="http://www.inkscape.org/namespaces/inkscape"
   id="svg2"
   version="1.1"
   inkscape:version="0.47 r22583"
   width="765"
   height="990"
   xml:space="preserve"
   sodipodi:docname="four-rods-diagram.svg"><metadata
     id="metadata8"><rdf:RDF><cc:Work
         rdf:about=""><dc:format>image/svg+xml</dc:format><dc:type
           rdf:resource="http://purl.org/dc/dcmitype/StillImage" /><dc:title /></cc:Work></rdf:RDF></metadata><defs
     id="defs6"><marker
       inkscape:stockid="Arrow1Mend"
       orient="auto"
       refY="0.0"
       refX="0.0"
       id="Arrow1Mend"
       style="overflow:visible;"><path
         id="path3638"
         d="M 0.0,0.0 L 5.0,-5.0 L -12.5,0.0 L 5.0,5.0 L 0.0,0.0 z "
         style="fill-rule:evenodd;stroke:#000000;stroke-width:1.0pt;marker-start:none;"
         transform="scale(0.4) rotate(180) translate(10,0)" /></marker><marker
       inkscape:stockid="Arrow1Mstart"
       orient="auto"
       refY="0.0"
       refX="0.0"
       id="Arrow1Mstart"
       style="overflow:visible"><path
         id="path3635"
         d="M 0.0,0.0 L 5.0,-5.0 L -12.5,0.0 L 5.0,5.0 L 0.0,0.0 z "
         style="fill-rule:evenodd;stroke:#000000;stroke-width:1.0pt;marker-start:none"
         transform="scale(0.4) translate(10,0)" /></marker><marker
       inkscape:stockid="Arrow1Lstart"
       orient="auto"
       refY="0.0"
       refX="0.0"
       id="Arrow1Lstart"
       style="overflow:visible"><path
         id="path3629"
         d="M 0.0,0.0 L 5.0,-5.0 L -12.5,0.0 L 5.0,5.0 L 0.0,0.0 z "
         style="fill-rule:evenodd;stroke:#000000;stroke-width:1.0pt;marker-start:none"
         transform="scale(0.8) translate(12.5,0)" /></marker><inkscape:perspective
       sodipodi:type="inkscape:persp3d"
       inkscape:vp_x="0 : 0.5 : 1"
       inkscape:vp_y="0 : 1000 : 0"
       inkscape:vp_z="1 : 0.5 : 1"
       inkscape:persp3d-origin="0.5 : 0.33333333 : 1"
       id="perspective10" /><clipPath
       clipPathUnits="userSpaceOnUse"
       id="clipPath20"><path
         d="m 0,0 3240,0 0,3420 L 0,3420 0,0 z"
         id="path22" /></clipPath><inkscape:perspective
       id="perspective3610"
       inkscape:persp3d-origin="0.5 : 0.33333333 : 1"
       inkscape:vp_z="1 : 0.5 : 1"
       inkscape:vp_y="0 : 1000 : 0"
       inkscape:vp_x="0 : 0.5 : 1"
       sodipodi:type="inkscape:persp3d" /><inkscape:perspective
       id="perspective4466"
       inkscape:persp3d-origin="0.5 : 0.33333333 : 1"
       inkscape:vp_z="1 : 0.5 : 1"
       inkscape:vp_y="0 : 1000 : 0"
       inkscape:vp_x="0 : 0.5 : 1"
       sodipodi:type="inkscape:persp3d" /><inkscape:perspective
       id="perspective4466-7"
       inkscape:persp3d-origin="0.5 : 0.33333333 : 1"
       inkscape:vp_z="1 : 0.5 : 1"
       inkscape:vp_y="0 : 1000 : 0"
       inkscape:vp_x="0 : 0.5 : 1"
       sodipodi:type="inkscape:persp3d" /><inkscape:perspective
       id="perspective4466-4"
       inkscape:persp3d-origin="0.5 : 0.33333333 : 1"
       inkscape:vp_z="1 : 0.5 : 1"
       inkscape:vp_y="0 : 1000 : 0"
       inkscape:vp_x="0 : 0.5 : 1"
       sodipodi:type="inkscape:persp3d" /><inkscape:perspective
       id="perspective4466-48"
       inkscape:persp3d-origin="0.5 : 0.33333333 : 1"
       inkscape:vp_z="1 : 0.5 : 1"
       inkscape:vp_y="0 : 1000 : 0"
       inkscape:vp_x="0 : 0.5 : 1"
       sodipodi:type="inkscape:persp3d" /><inkscape:perspective
       id="perspective4466-3"
       inkscape:persp3d-origin="0.5 : 0.33333333 : 1"
       inkscape:vp_z="1 : 0.5 : 1"
       inkscape:vp_y="0 : 1000 : 0"
       inkscape:vp_x="0 : 0.5 : 1"
       sodipodi:type="inkscape:persp3d" /><inkscape:perspective
       id="perspective4466-6"
       inkscape:persp3d-origin="0.5 : 0.33333333 : 1"
       inkscape:vp_z="1 : 0.5 : 1"
       inkscape:vp_y="0 : 1000 : 0"
       inkscape:vp_x="0 : 0.5 : 1"
       sodipodi:type="inkscape:persp3d" /><inkscape:perspective
       id="perspective4466-5"
       inkscape:persp3d-origin="0.5 : 0.33333333 : 1"
       inkscape:vp_z="1 : 0.5 : 1"
       inkscape:vp_y="0 : 1000 : 0"
       inkscape:vp_x="0 : 0.5 : 1"
       sodipodi:type="inkscape:persp3d" /><inkscape:perspective
       id="perspective4466-69"
       inkscape:persp3d-origin="0.5 : 0.33333333 : 1"
       inkscape:vp_z="1 : 0.5 : 1"
       inkscape:vp_y="0 : 1000 : 0"
       inkscape:vp_x="0 : 0.5 : 1"
       sodipodi:type="inkscape:persp3d" /><inkscape:perspective
       id="perspective4466-75"
       inkscape:persp3d-origin="0.5 : 0.33333333 : 1"
       inkscape:vp_z="1 : 0.5 : 1"
       inkscape:vp_y="0 : 1000 : 0"
       inkscape:vp_x="0 : 0.5 : 1"
       sodipodi:type="inkscape:persp3d" /><inkscape:perspective
       id="perspective4466-30"
       inkscape:persp3d-origin="0.5 : 0.33333333 : 1"
       inkscape:vp_z="1 : 0.5 : 1"
       inkscape:vp_y="0 : 1000 : 0"
       inkscape:vp_x="0 : 0.5 : 1"
       sodipodi:type="inkscape:persp3d" /><inkscape:perspective
       id="perspective4466-53"
       inkscape:persp3d-origin="0.5 : 0.33333333 : 1"
       inkscape:vp_z="1 : 0.5 : 1"
       inkscape:vp_y="0 : 1000 : 0"
       inkscape:vp_x="0 : 0.5 : 1"
       sodipodi:type="inkscape:persp3d" /><inkscape:perspective
       id="perspective4466-50"
       inkscape:persp3d-origin="0.5 : 0.33333333 : 1"
       inkscape:vp_z="1 : 0.5 : 1"
       inkscape:vp_y="0 : 1000 : 0"
       inkscape:vp_x="0 : 0.5 : 1"
       sodipodi:type="inkscape:persp3d" /><inkscape:perspective
       id="perspective4466-67"
       inkscape:persp3d-origin="0.5 : 0.33333333 : 1"
       inkscape:vp_z="1 : 0.5 : 1"
       inkscape:vp_y="0 : 1000 : 0"
       inkscape:vp_x="0 : 0.5 : 1"
       sodipodi:type="inkscape:persp3d" /><inkscape:perspective
       id="perspective4596"
       inkscape:persp3d-origin="0.5 : 0.33333333 : 1"
       inkscape:vp_z="1 : 0.5 : 1"
       inkscape:vp_y="0 : 1000 : 0"
       inkscape:vp_x="0 : 0.5 : 1"
       sodipodi:type="inkscape:persp3d" /><marker
       inkscape:stockid="Arrow1Mstart"
       orient="auto"
       refY="0"
       refX="0"
       id="Arrow1Mstart-1"
       style="overflow:visible"><path
         id="path3635-1"
         d="M 0,0 5,-5 -12.5,0 5,5 0,0 z"
         style="fill-rule:evenodd;stroke:#000000;stroke-width:1pt;marker-start:none"
         transform="matrix(0.4,0,0,0.4,4,0)" /></marker><marker
       inkscape:stockid="Arrow1Mend"
       orient="auto"
       refY="0"
       refX="0"
       id="Arrow1Mend-4"
       style="overflow:visible"><path
         id="path3638-9"
         d="M 0,0 5,-5 -12.5,0 5,5 0,0 z"
         style="fill-rule:evenodd;stroke:#000000;stroke-width:1pt;marker-start:none"
         transform="matrix(-0.4,0,0,-0.4,-4,0)" /></marker><inkscape:perspective
       id="perspective4630"
       inkscape:persp3d-origin="0.5 : 0.33333333 : 1"
       inkscape:vp_z="1 : 0.5 : 1"
       inkscape:vp_y="0 : 1000 : 0"
       inkscape:vp_x="0 : 0.5 : 1"
       sodipodi:type="inkscape:persp3d" /><inkscape:perspective
       id="perspective2867"
       inkscape:persp3d-origin="0.5 : 0.33333333 : 1"
       inkscape:vp_z="1 : 0.5 : 1"
       inkscape:vp_y="0 : 1000 : 0"
       inkscape:vp_x="0 : 0.5 : 1"
       sodipodi:type="inkscape:persp3d" /><marker
       inkscape:stockid="Arrow1Mstart"
       orient="auto"
       refY="0"
       refX="0"
       id="Arrow1Mstart-9"
       style="overflow:visible"><path
         id="path3635-7"
         d="M 0,0 5,-5 -12.5,0 5,5 0,0 z"
         style="fill-rule:evenodd;stroke:#000000;stroke-width:1pt;marker-start:none"
         transform="matrix(0.4,0,0,0.4,4,0)" /></marker><marker
       inkscape:stockid="Arrow1Mend"
       orient="auto"
       refY="0"
       refX="0"
       id="Arrow1Mend-7"
       style="overflow:visible"><path
         id="path3638-6"
         d="M 0,0 5,-5 -12.5,0 5,5 0,0 z"
         style="fill-rule:evenodd;stroke:#000000;stroke-width:1pt;marker-start:none"
         transform="matrix(-0.4,0,0,-0.4,-4,0)" /></marker><marker
       inkscape:stockid="Arrow1Mstart"
       orient="auto"
       refY="0"
       refX="0"
       id="marker2875"
       style="overflow:visible"><path
         id="path2877"
         d="M 0,0 5,-5 -12.5,0 5,5 0,0 z"
         style="fill-rule:evenodd;stroke:#000000;stroke-width:1pt;marker-start:none"
         transform="matrix(0.4,0,0,0.4,4,0)" /></marker><marker
       inkscape:stockid="Arrow1Mend"
       orient="auto"
       refY="0"
       refX="0"
       id="marker2879"
       style="overflow:visible"><path
         id="path2881"
         d="M 0,0 5,-5 -12.5,0 5,5 0,0 z"
         style="fill-rule:evenodd;stroke:#000000;stroke-width:1pt;marker-start:none"
         transform="matrix(-0.4,0,0,-0.4,-4,0)" /></marker><inkscape:perspective
       id="perspective2938"
       inkscape:persp3d-origin="0.5 : 0.33333333 : 1"
       inkscape:vp_z="1 : 0.5 : 1"
       inkscape:vp_y="0 : 1000 : 0"
       inkscape:vp_x="0 : 0.5 : 1"
       sodipodi:type="inkscape:persp3d" /><marker
       inkscape:stockid="Arrow1Mstart"
       orient="auto"
       refY="0"
       refX="0"
       id="Arrow1Mstart-15"
       style="overflow:visible"><path
         id="path3635-9"
         d="M 0,0 5,-5 -12.5,0 5,5 0,0 z"
         style="fill-rule:evenodd;stroke:#000000;stroke-width:1pt;marker-start:none"
         transform="matrix(0.4,0,0,0.4,4,0)" /></marker><marker
       inkscape:stockid="Arrow1Mend"
       orient="auto"
       refY="0"
       refX="0"
       id="Arrow1Mend-8"
       style="overflow:visible"><path
         id="path3638-4"
         d="M 0,0 5,-5 -12.5,0 5,5 0,0 z"
         style="fill-rule:evenodd;stroke:#000000;stroke-width:1pt;marker-start:none"
         transform="matrix(-0.4,0,0,-0.4,-4,0)" /></marker><inkscape:perspective
       id="perspective2972"
       inkscape:persp3d-origin="0.5 : 0.33333333 : 1"
       inkscape:vp_z="1 : 0.5 : 1"
       inkscape:vp_y="0 : 1000 : 0"
       inkscape:vp_x="0 : 0.5 : 1"
       sodipodi:type="inkscape:persp3d" /><inkscape:perspective
       id="perspective3050"
       inkscape:persp3d-origin="0.5 : 0.33333333 : 1"
       inkscape:vp_z="1 : 0.5 : 1"
       inkscape:vp_y="0 : 1000 : 0"
       inkscape:vp_x="0 : 0.5 : 1"
       sodipodi:type="inkscape:persp3d" /></defs><sodipodi:namedview
     pagecolor="#ffffff"
     bordercolor="#666666"
     borderopacity="1"
     objecttolerance="10"
     gridtolerance="10"
     guidetolerance="10"
     inkscape:pageopacity="0"
     inkscape:pageshadow="2"
     inkscape:window-width="863"
     inkscape:window-height="907"
     id="namedview4"
     showgrid="false"
     inkscape:zoom="0.41083825"
     inkscape:cx="431.21063"
     inkscape:cy="253.14204"
     inkscape:window-x="1049"
     inkscape:window-y="25"
     inkscape:window-maximized="0"
     inkscape:current-layer="g12" /><g
     id="g12"
     inkscape:groupmode="layer"
     inkscape:label="ink_ext_XXXXXX"
     transform="matrix(1.25,0,0,-1.25,0,990)"><g
   id="g3029"
   transform="translate(146.04288,-27.261337)"><path
     sodipodi:nodetypes="cscscscscsc"
     id="path4456-5"
     d="m -429.80893,493.11039 c 0,0 10.03929,-40.15715 47.68662,-42.66697 37.64732,-2.50982 57.7259,50.19643 57.7259,50.19643 0,0 12.54911,-60.23572 52.70626,-62.74554 40.15715,-2.50983 50.19643,55.21608 50.19643,55.21608 0,0 12.54912,-47.68662 42.66698,-45.17679 30.11786,2.50982 45.17679,47.68661 45.17679,47.68661 0,0 10.03929,-40.15715 42.666976,-40.15715 32.62768,0 47.6866,40.15715 47.6866,40.15715 0,0 -7.52946,-35.1375 32.62769,-40.15715 40.15715,-5.01964 65.25537,32.62769 65.25537,32.62769"
     style="fill:none;stroke:#0907ff;stroke-width:0.80000001px;stroke-linecap:butt;stroke-linejoin:miter;stroke-opacity:1" /><path
     sodipodi:nodetypes="ccscscscscscsc"
     id="path4456-0-8"
     d="m 246.47043,246.99926 c 40.15715,-2.50983 50.19643,55.21608 50.19643,55.21608 0,0 12.54911,-47.68662 42.66697,-45.1768 30.11791,2.50983 45.17679,47.68662 45.17679,47.68662 0,0 10.03928,-40.15715 42.66696,-40.15715 32.62768,0 47.68664,40.15715 47.68664,40.15715 0,0 -7.52944,-35.1375 32.62768,-40.15715 40.15714,-5.01964 65.25534,32.62769 65.25534,32.62769 0,0 12.5491,-42.66698 42.667,-42.66698 30.1179,0 32.6277,50.19644 32.6277,50.19644 0,0 15.0589,-45.17679 40.1572,-45.17679 25.0981,0 42.6669,35.1375 42.6669,35.1375 0,0 10.0393,-40.15715 32.6277,-42.66697 22.5884,-2.50982 32.6277,40.15715 32.6277,40.15715"
     style="fill:none;stroke:#0907ff;stroke-width:0.80000001px;stroke-linecap:butt;stroke-linejoin:miter;stroke-opacity:1" /><path
     sodipodi:nodetypes="cscscscscsc"
     id="path4456-4-7"
     d="m -382.65022,177.77203 c 0,0 10.03928,-40.15716 47.68661,-42.66697 37.64733,-2.50983 57.72591,50.19643 57.72591,50.19643 0,0 12.5491,-60.23572 52.70626,-62.74554 40.15716,-2.50983 50.19644,55.21608 50.19644,55.21608 0,0 12.5491,-47.68662 42.66696,-45.1768 30.11787,2.50983 45.176796,47.68662 45.176796,47.68662 0,0 10.03928,-40.15715 42.66697,-40.15715 32.62768,0 47.68661,40.15715 47.68661,40.15715 0,0 -7.52946,-35.1375 32.62769,-40.15715 40.15715,-5.01964 65.255374,32.62769 65.255374,32.62769"
     style="fill:none;stroke:#0907ff;stroke-width:0.80000001px;stroke-linecap:butt;stroke-linejoin:miter;stroke-opacity:1" /><path
     sodipodi:nodetypes="cscscscscscscscsc"
     id="path4456-15-0"
     d="m 51.786116,488.08624 c 0,0 10.03929,-40.15716 47.68662,-42.66697 37.647334,-2.50983 57.725904,50.19643 57.725904,50.19643 0,0 12.5491,-60.23572 52.70626,-62.74554 40.15715,-2.50983 50.19643,55.21608 50.19643,55.21608 0,0 12.54911,-47.68662 42.66697,-45.1768 30.11787,2.50983 45.1768,47.68662 45.1768,47.68662 0,0 10.03928,-40.15715 42.66696,-40.15715 32.62768,0 47.68664,40.15715 47.68664,40.15715 0,0 -7.52944,-35.1375 32.62768,-40.15715 40.15712,-5.01964 65.25536,32.62769 65.25536,32.62769 0,0 12.5491,-42.66698 42.667,-42.66698 30.1178,0 32.6276,50.19644 32.6276,50.19644 0,0 15.059,-45.17679 40.1572,-45.17679 25.0982,0 42.667,35.1375 42.667,35.1375 0,0 10.0393,-40.15715 32.6277,-42.66697 22.5884,-2.50982 32.6277,40.15715 32.6277,40.15715"
     style="fill:none;stroke:#0907ff;stroke-width:0.80000001px;stroke-linecap:butt;stroke-linejoin:miter;stroke-opacity:1" /><path
     sodipodi:nodetypes="cscscscscscscscsc"
     id="path4456-46-4"
     d="m 99.795746,179.99397 c 0,0 10.039294,-40.15716 47.686624,-42.66697 37.64733,-2.50983 57.7259,50.19643 57.7259,50.19643 0,0 12.5491,-60.23572 52.70626,-62.74554 40.15715,-2.50983 50.19643,55.21608 50.19643,55.21608 0,0 12.54911,-47.68662 42.66694,-45.1768 30.11792,2.50983 45.1768,47.68662 45.1768,47.68662 0,0 10.03928,-40.15715 42.66704,-40.15715 32.62768,0 47.68656,40.15715 47.68656,40.15715 0,0 -7.52944,-35.1375 32.62768,-40.15715 40.15716,-5.01964 65.25536,32.62769 65.25536,32.62769 0,0 12.5491,-42.66698 42.667,-42.66698 30.1179,0 32.6277,50.19644 32.6277,50.19644 0,0 15.0589,-45.17679 40.1571,-45.17679 25.0983,0 42.667,35.1375 42.667,35.1375 0,0 10.0393,-40.15715 32.6277,-42.66697 22.5884,-2.50982 32.6277,40.15715 32.6277,40.15715"
     style="fill:none;stroke:#0907ff;stroke-width:0.80000001px;stroke-linecap:butt;stroke-linejoin:miter;stroke-opacity:1" /><path
     sodipodi:nodetypes="cscscscscscscscsc"
     id="path4456-6-8"
     d="m -455.96386,258.48362 c 0,0 10.03928,-40.15716 47.68661,-42.66697 37.64733,-2.50983 57.72591,50.19643 57.72591,50.19643 0,0 12.5491,-60.23572 52.70626,-62.74554 40.15715,-2.50983 50.19643,55.21608 50.19643,55.21608 0,0 12.54911,-47.68662 42.66697,-45.1768 30.11787,2.50983 45.1768,47.68662 45.1768,47.68662 0,0 10.03928,-40.15715 42.66696,-40.15715 32.627676,0 47.686616,40.15715 47.686616,40.15715 0,0 -7.52946,-35.1375 32.62769,-40.15715 40.15715,-5.01964 65.25537,32.62769 65.25537,32.62769 0,0 12.54911,-42.66698 42.66696,-42.66698 30.117874,0 32.627694,50.19644 32.627694,50.19644 0,0 15.05893,-45.17679 40.15715,-45.17679 25.09822,0 42.66697,35.1375 42.66697,35.1375 0,0 10.03929,-40.15715 32.62768,-42.66697 22.5884,-2.50982 32.62769,40.15715 32.62769,40.15715"
     style="fill:none;stroke:#0907ff;stroke-width:0.80000001px;stroke-linecap:butt;stroke-linejoin:miter;stroke-opacity:1" /><path
     sodipodi:nodetypes="ccscscscscscsc"
     id="path4456-64-0"
     d="m 254.05759,180.4872 c 40.15715,-2.50983 50.19643,55.21608 50.19643,55.21608 0,0 12.54911,-47.68662 42.667,-45.1768 30.11784,2.50983 45.1768,47.68662 45.1768,47.68662 0,0 10.03928,-40.15715 42.66696,-40.15715 32.62768,0 47.68656,40.15715 47.68656,40.15715 0,0 -7.52944,-35.1375 32.62776,-40.15715 40.15714,-5.01964 65.25534,32.62769 65.25534,32.62769 0,0 12.5491,-42.66698 42.667,-42.66698 30.1178,0 32.6277,50.19644 32.6277,50.19644 0,0 15.0588,-45.17679 40.1571,-45.17679 25.0982,0 42.6669,35.1375 42.6669,35.1375 0,0 10.0393,-40.15715 32.6277,-42.66697 22.5884,-2.50982 32.6277,40.15715 32.6277,40.15715"
     style="fill:none;stroke:#0907ff;stroke-width:0.80000001px;stroke-linecap:butt;stroke-linejoin:miter;stroke-opacity:1" /><path
     sodipodi:nodetypes="ccscscscscscscsc"
     id="path4456-02-4"
     d="m 185.32852,328.73289 c 37.64733,-2.50983 57.7259,50.19643 57.7259,50.19643 0,0 12.5491,-60.23572 52.70626,-62.74554 40.15715,-2.50983 50.19642,55.21608 50.19642,55.21608 0,0 12.54912,-47.68662 42.66696,-45.1768 30.11792,2.50983 45.1768,47.68662 45.1768,47.68662 0,0 10.03928,-40.15715 42.66696,-40.15715 32.62768,0 47.68664,40.15715 47.68664,40.15715 0,0 -7.52944,-35.1375 32.62768,-40.15715 40.1572,-5.01964 65.2554,32.62769 65.2554,32.62769 0,0 12.5491,-42.66698 42.6669,-42.66698 30.1179,0 32.6277,50.19644 32.6277,50.19644 0,0 15.059,-45.17679 40.1572,-45.17679 25.0982,0 42.667,35.1375 42.667,35.1375 0,0 10.0392,-40.15715 32.6276,-42.66697 22.5884,-2.50982 32.6276,40.15715 32.6276,40.15715"
     style="fill:none;stroke:#0907ff;stroke-width:0.80000001px;stroke-linecap:butt;stroke-linejoin:miter;stroke-opacity:1" /><path
     sodipodi:nodetypes="ccscscscscscsc"
     id="path4456-8-2"
     d="m 261.84117,370.31294 c 40.15715,-2.50983 50.19643,55.21608 50.19643,55.21608 0,0 12.54911,-47.68662 42.66694,-45.1768 30.11792,2.50983 45.1768,47.68662 45.1768,47.68662 0,0 10.03928,-40.15715 42.66704,-40.15715 32.62768,0 47.68656,40.15715 47.68656,40.15715 0,0 -7.52944,-35.1375 32.62768,-40.15715 40.15722,-5.01964 65.25532,32.62769 65.25532,32.62769 0,0 12.5492,-42.66698 42.667,-42.66698 30.1179,0 32.6278,50.19644 32.6278,50.19644 0,0 15.0588,-45.17679 40.1571,-45.17679 25.0982,0 42.6669,35.1375 42.6669,35.1375 0,0 10.0393,-40.15715 32.6277,-42.66697 22.5884,-2.50982 32.6278,40.15715 32.6278,40.15715"
     style="fill:none;stroke:#0907ff;stroke-width:0.80000001px;stroke-linecap:butt;stroke-linejoin:miter;stroke-opacity:1" /><path
     sodipodi:nodetypes="cscscscscscscscsc"
     id="path4456-56-9"
     d="m -437.01848,418.9154 c 0,0 10.03928,-40.1572 47.68661,-42.667 37.64733,-2.5098 57.72591,50.1964 57.72591,50.1964 0,0 12.5491,-60.2357 52.70626,-62.7455 40.15715,-2.5099 50.19643,55.2161 50.19643,55.2161 0,0 12.54911,-47.6867 42.66697,-45.1768 30.11786,2.5098 45.1768,47.6866 45.1768,47.6866 0,0 10.03928,-40.1572 42.666966,-40.1572 32.62768,0 47.6866,40.1572 47.6866,40.1572 0,0 -7.52946,-35.1375 32.62769,-40.1572 40.15716,-5.0196 65.25538,32.6277 65.25538,32.6277 0,0 12.54911,-42.667 42.66696,-42.667 30.117874,0 32.627694,50.1965 32.627694,50.1965 0,0 15.05893,-45.1768 40.15715,-45.1768 25.09822,0 42.66697,35.1375 42.66697,35.1375 0,0 10.03929,-40.1572 32.62768,-42.667 22.5884,-2.5098 32.62769,40.1572 32.62769,40.1572"
     style="fill:none;stroke:#0907ff;stroke-width:0.80000001px;stroke-linecap:butt;stroke-linejoin:miter;stroke-opacity:1" /><path
     sodipodi:nodetypes="cscscscscscscscsc"
     id="path4456-34-6"
     d="m -439.58244,345.66615 c 0,0 10.03929,-40.15716 47.68661,-42.66697 37.64733,-2.50983 57.72591,50.19643 57.72591,50.19643 0,0 12.5491,-60.23572 52.70626,-62.74554 40.15714,-2.50983 50.19642,55.21608 50.19642,55.21608 0,0 12.54912,-47.68662 42.66697,-45.1768 30.11787,2.50983 45.1768,47.68662 45.1768,47.68662 0,0 10.03928,-40.15715 42.66697,-40.15715 32.627676,0 47.686616,40.15715 47.686616,40.15715 0,0 -7.52947,-35.1375 32.62769,-40.15715 40.15715,-5.01964 65.25537,32.62769 65.25537,32.62769 0,0 12.54911,-42.66698 42.66696,-42.66698 30.117874,0 32.627694,50.19644 32.627694,50.19644 0,0 15.05893,-45.17679 40.15715,-45.17679 25.09822,0 42.66697,35.1375 42.66697,35.1375 0,0 10.03929,-40.15715 32.62768,-42.66697 22.5884,-2.50982 32.62769,40.15715 32.62769,40.15715"
     style="fill:none;stroke:#0907ff;stroke-width:0.80000001px;stroke-linecap:butt;stroke-linejoin:miter;stroke-opacity:1" /></g><path
   style="fill:none;stroke:#0907ff;stroke-width:0.80000001px;stroke-linecap:butt;stroke-linejoin:miter;stroke-opacity:1"
   d="m -266.24092,90.03205 c 0,0 10.03929,-40.15715 47.68662,-42.66697 37.64732,-2.50982 57.7259,50.19643 57.7259,50.19643 0,0 12.54911,-60.23572 52.70626,-62.74554 40.15715,-2.50983 50.19643,55.21608 50.19643,55.21608 0,0 12.54912,-47.68662 42.66698,-45.17679 30.11786,2.50982 45.17679,47.68661 45.17679,47.68661 0,0 10.03929,-40.15715 42.666976,-40.15715 32.627684,0 47.686604,40.15715 47.686604,40.15715 0,0 -7.52946,-35.1375 32.62769,-40.15715 40.15715,-5.01964 65.25537,32.62769 65.25537,32.62769"
   id="path4456-5-0"
   sodipodi:nodetypes="cscscscscsc" /><path
   style="fill:none;stroke:#0907ff;stroke-width:0.80000001px;stroke-linecap:butt;stroke-linejoin:miter;stroke-opacity:1"
   d="m 215.35413,85.0079 c 0,0 10.03929,-40.15716 47.68662,-42.66697 37.64733,-2.50983 57.7259,50.19643 57.7259,50.19643 0,0 12.5491,-60.23572 52.70626,-62.74554 40.15715,-2.50983 50.19643,55.21608 50.19643,55.21608 0,0 12.54911,-47.68662 42.66697,-45.1768 30.11787,2.50983 45.1768,47.68662 45.1768,47.68662 0,0 10.03928,-40.15715 42.66696,-40.15715 32.62768,0 47.68664,40.15715 47.68664,40.15715 0,0 -7.52944,-35.1375 32.62768,-40.15715 40.15712,-5.01964 65.25536,32.62769 65.25536,32.62769 0,0 12.5491,-42.66698 42.667,-42.66698 30.1178,0 32.6276,50.19644 32.6276,50.19644 0,0 15.059,-45.17679 40.1572,-45.17679 25.0982,0 42.667,35.1375 42.667,35.1375 0,0 10.0393,-40.15715 32.6277,-42.66697 22.5884,-2.50982 32.6277,40.15715 32.6277,40.15715"
   id="path4456-15-0-2"
   sodipodi:nodetypes="cscscscscscscscsc" /><path
   style="fill:none;stroke:#0907ff;stroke-width:0.80000001px;stroke-linecap:butt;stroke-linejoin:miter;stroke-opacity:1"
   d="m 348.89653,-74.34545 c 37.64733,-2.50983 57.7259,50.19643 57.7259,50.19643 0,0 12.5491,-60.23572 52.70626,-62.74554 40.15715,-2.50983 50.19642,55.21608 50.19642,55.21608 0,0 12.54912,-47.68662 42.66696,-45.1768 30.11792,2.50983 45.1768,47.68662 45.1768,47.68662 0,0 10.03928,-40.15715 42.66696,-40.15715 32.62768,0 47.68664,40.15715 47.68664,40.15715 0,0 -7.52944,-35.1375 32.62768,-40.15715 40.1572,-5.01964 65.2554,32.62769 65.2554,32.62769 0,0 12.5491,-42.66698 42.6669,-42.66698 30.1179,0 32.6277,50.19644 32.6277,50.19644 0,0 15.059,-45.17679 40.1572,-45.17679 25.0982,0 42.667,35.1375 42.667,35.1375 0,0 10.0392,-40.15715 32.6276,-42.66697 22.5884,-2.50982 32.62765,40.15715 32.62765,40.15715"
   id="path4456-02-4-5"
   sodipodi:nodetypes="ccscscscscscscsc" /><path
   style="fill:none;stroke:#0907ff;stroke-width:0.80000001px;stroke-linecap:butt;stroke-linejoin:miter;stroke-opacity:1"
   d="m 425.40918,-32.7654 c 40.15715,-2.50983 50.19643,55.21608 50.19643,55.21608 0,0 12.54911,-47.68662 42.66694,-45.1768 30.11792,2.50983 45.1768,47.68662 45.1768,47.68662 0,0 10.03928,-40.15715 42.66704,-40.15715 32.62768,0 47.68656,40.15715 47.68656,40.15715 0,0 -7.52944,-35.1375 32.62768,-40.15715 40.15722,-5.01964 65.25532,32.62769 65.25532,32.62769 0,0 12.5492,-42.66698 42.667,-42.66698 30.1179,0 32.6278,50.19644 32.6278,50.19644 0,0 15.0588,-45.17679 40.1571,-45.17679 25.0982,0 42.6669,35.1375 42.6669,35.1375 0,0 10.0393,-40.15715 32.6277,-42.66697 22.5884,-2.50982 32.6278,40.15715 32.6278,40.15715"
   id="path4456-8-2-2"
   sodipodi:nodetypes="ccscscscscscsc" /><path
   style="fill:none;stroke:#0907ff;stroke-width:0.80000001px;stroke-linecap:butt;stroke-linejoin:miter;stroke-opacity:1"
   d="m -273.45047,15.83706 c 0,0 10.03928,-40.1572 47.68661,-42.667 37.64733,-2.5098 57.72591,50.1964 57.72591,50.1964 0,0 12.5491,-60.2357 52.70626,-62.7455 40.15715,-2.5099 50.19643,55.2161 50.19643,55.2161 0,0 12.54911,-47.6867 42.66697,-45.1768 30.11786,2.5098 45.1768,47.6866 45.1768,47.6866 0,0 10.03928,-40.1572 42.666966,-40.1572 32.62768,0 47.686604,40.1572 47.686604,40.1572 0,0 -7.52946,-35.1375 32.62769,-40.1572 40.15716,-5.0196 65.25538,32.6277 65.25538,32.6277 0,0 12.54911,-42.667 42.66696,-42.667 30.11787,0 32.62769,50.1965 32.62769,50.1965 0,0 15.05893,-45.1768 40.15715,-45.1768 25.09822,0 42.66697,35.1375 42.66697,35.1375 0,0 10.03929,-40.1572 32.62768,-42.667 22.5884,-2.5098 32.62769,40.1572 32.62769,40.1572"
   id="path4456-56-9-9"
   sodipodi:nodetypes="cscscscscscscscsc" /><path
   style="fill:none;stroke:#0907ff;stroke-width:0.80000001px;stroke-linecap:butt;stroke-linejoin:miter;stroke-opacity:1"
   d="m -248.75309,-32.098091 c 0,0 10.03929,-40.15716 47.68661,-42.66697 37.64733,-2.50983 57.72591,50.19643 57.72591,50.19643 0,0 12.5491,-60.23572 52.706255,-62.74554 40.157142,-2.50983 50.196422,55.21608 50.196422,55.21608 0,0 12.54912,-47.68662 42.6669704,-45.1768 30.1178696,2.50983 45.1767996,47.68662 45.1767996,47.68662 0,0 10.03928,-40.15715 42.66697,-40.15715 32.627673,0 47.686623,40.15715 47.686623,40.15715 0,0 -7.52947,-35.1375 32.62769,-40.15715 40.15715,-5.01964 65.25537,32.62769 65.25537,32.62769 0,0 12.54911,-42.66698 42.66696,-42.66698 30.11787,0 32.62769,50.19644 32.62769,50.19644 0,0 15.05893,-45.17679 40.15715,-45.17679"
   id="path4456-34-6-0"
   sodipodi:nodetypes="cscscscscscscs" /><g
   id="g2987"><path
     sodipodi:nodetypes="cscscscscsc"
     id="path4456"
     d="m -278.32718,842.90331 c 0,0 10.03929,-40.15715 47.68662,-42.66697 37.64732,-2.50982 57.7259,50.19643 57.7259,50.19643 0,0 12.54911,-60.23572 52.70626,-62.74554 40.157152,-2.50983 50.196432,55.21608 50.196432,55.21608 0,0 12.549112,-47.68662 42.666976,-45.17679 30.1178637,2.50982 45.176792,47.68661 45.176792,47.68661 0,0 10.039288,-40.15715 42.666976,-40.15715 32.62768,0 47.686604,40.15715 47.686604,40.15715 0,0 -7.52946,-35.1375 32.62769,-40.15715 40.15715,-5.01964 65.25537,32.62769 65.25537,32.62769"
     style="fill:none;stroke:#0907ff;stroke-width:0.80000000999999998px;stroke-linecap:butt;stroke-linejoin:miter;stroke-opacity:1;fill-opacity:1" /><path
     sodipodi:nodetypes="ccscscscscscsc"
     id="path4456-0"
     d="m 397.95218,596.79218 c 40.15715,-2.50983 50.19643,55.21608 50.19643,55.21608 0,0 12.54911,-47.68662 42.66697,-45.1768 30.11787,2.50983 45.1768,47.68662 45.1768,47.68662 0,0 10.03928,-40.15715 42.66697,-40.15715 32.62768,0 47.68661,40.15715 47.68661,40.15715 0,0 -7.52946,-35.1375 32.62769,-40.15715 40.15715,-5.01964 65.25537,32.62769 65.25537,32.62769 0,0 12.54911,-42.66698 42.66696,-42.66698 30.11787,0 32.62769,50.19644 32.62769,50.19644 0,0 15.05893,-45.17679 40.15715,-45.17679 25.09822,0 42.66697,35.1375 42.66697,35.1375 0,0 10.03929,-40.15715 32.62768,-42.66697 22.5884,-2.50982 32.62769,40.15715 32.62769,40.15715"
     style="fill:none;stroke:#0907ff;stroke-width:0.80000001px;stroke-linecap:butt;stroke-linejoin:miter;stroke-opacity:1" /><path
     sodipodi:nodetypes="cscscscscsc"
     id="path4456-4"
     d="m -231.16847,527.56495 c 0,0 10.03929,-40.15716 47.68661,-42.66697 37.64733,-2.50983 57.72591,50.19643 57.72591,50.19643 0,0 12.5491,-60.23572 52.706262,-62.74554 40.15715,-2.50983 50.19643,55.21608 50.19643,55.21608 0,0 12.54911,-47.68662 42.66697,-45.1768 30.117866,2.50983 45.176796,47.68662 45.176796,47.68662 0,0 10.03928,-40.15715 42.666972,-40.15715 32.62768,0 47.68661,40.15715 47.68661,40.15715 0,0 -7.52946,-35.1375 32.62769,-40.15715 40.15715,-5.01964 65.25537,32.62769 65.25537,32.62769"
     style="fill:none;fill-opacity:1;stroke:#0907ff;stroke-width:0.80000000999999998px;stroke-linecap:butt;stroke-linejoin:miter;stroke-opacity:1" /><path
     sodipodi:nodetypes="cscscscscscscscsc"
     id="path4456-15"
     d="m 203.26787,837.87916 c 0,0 10.03929,-40.15716 47.68662,-42.66697 37.64733,-2.50983 57.7259,50.19643 57.7259,50.19643 0,0 12.5491,-60.23572 52.70626,-62.74554 40.15715,-2.50983 50.19643,55.21608 50.19643,55.21608 0,0 12.54911,-47.68662 42.66697,-45.1768 30.11787,2.50983 45.1768,47.68662 45.1768,47.68662 0,0 10.03928,-40.15715 42.66697,-40.15715 32.62768,0 47.68661,40.15715 47.68661,40.15715 0,0 -7.52946,-35.1375 32.62769,-40.15715 40.15715,-5.01964 65.25537,32.62769 65.25537,32.62769 0,0 12.54911,-42.66698 42.66696,-42.66698 30.11787,0 32.62769,50.19644 32.62769,50.19644 0,0 15.05893,-45.17679 40.15715,-45.17679 25.09822,0 42.66697,35.1375 42.66697,35.1375 0,0 10.03929,-40.15715 32.62768,-42.66697 22.5884,-2.50982 32.62769,40.15715 32.62769,40.15715"
     style="fill:none;stroke:#0907ff;stroke-width:0.80000001px;stroke-linecap:butt;stroke-linejoin:miter;stroke-opacity:1" /><path
     sodipodi:nodetypes="cscscscscscscscsc"
     id="path4456-46"
     d="m 251.2775,529.78689 c 0,0 10.03929,-40.15716 47.68662,-42.66697 37.64733,-2.50983 57.7259,50.19643 57.7259,50.19643 0,0 12.5491,-60.23572 52.70626,-62.74554 40.15715,-2.50983 50.19643,55.21608 50.19643,55.21608 0,0 12.54911,-47.68662 42.66697,-45.1768 30.11787,2.50983 45.1768,47.68662 45.1768,47.68662 0,0 10.03928,-40.15715 42.66697,-40.15715 32.62768,0 47.68661,40.15715 47.68661,40.15715 0,0 -7.52946,-35.1375 32.62769,-40.15715 40.15715,-5.01964 65.25537,32.62769 65.25537,32.62769 0,0 12.54911,-42.66698 42.66696,-42.66698 30.11787,0 32.62769,50.19644 32.62769,50.19644 0,0 15.05893,-45.17679 40.15715,-45.17679 25.09822,0 42.66697,35.1375 42.66697,35.1375 0,0 10.03929,-40.15715 32.62768,-42.66697 22.5884,-2.50982 32.62769,40.15715 32.62769,40.15715"
     style="fill:none;stroke:#0907ff;stroke-width:0.80000001px;stroke-linecap:butt;stroke-linejoin:miter;stroke-opacity:1" /><path
     sodipodi:nodetypes="cscscscscscscscsc"
     id="path4456-6"
     d="m -304.48211,608.27654 c 0,0 10.03928,-40.15716 47.68661,-42.66697 37.64733,-2.50983 57.72591,50.19643 57.72591,50.19643 0,0 12.5491,-60.23572 52.70626,-62.74554 40.15715,-2.50983 50.19643,55.21608 50.19643,55.21608 0,0 12.54911,-47.68662 42.666966,-45.1768 30.11787,2.50983 45.1768,47.68662 45.1768,47.68662 0,0 10.03928,-40.15715 42.66697,-40.15715 32.62768,0 47.68661,40.15715 47.68661,40.15715 0,0 -7.52946,-35.1375 32.627694,-40.15715 40.15715,-5.01964 65.25537,32.62769 65.25537,32.62769 0,0 12.54911,-42.66698 42.66696,-42.66698 30.11787,0 32.62769,50.19644 32.62769,50.19644 0,0 15.05893,-45.17679 40.15715,-45.17679 25.09822,0 42.66697,35.1375 42.66697,35.1375 0,0 10.03929,-40.15715 32.62768,-42.66697 22.5884,-2.50982 32.62769,40.15715 32.62769,40.15715"
     style="fill:none;stroke:#0907ff;stroke-width:0.80000001px;stroke-linecap:butt;stroke-linejoin:miter;stroke-opacity:1" /><path
     sodipodi:nodetypes="ccscscscscscsc"
     id="path4456-64"
     d="m 405.53934,530.28012 c 40.15715,-2.50983 50.19643,55.21608 50.19643,55.21608 0,0 12.54911,-47.68662 42.66697,-45.1768 30.11787,2.50983 45.1768,47.68662 45.1768,47.68662 0,0 10.03928,-40.15715 42.66697,-40.15715 32.62768,0 47.68661,40.15715 47.68661,40.15715 0,0 -7.52946,-35.1375 32.62769,-40.15715 40.15715,-5.01964 65.25537,32.62769 65.25537,32.62769 0,0 12.54911,-42.66698 42.66696,-42.66698 30.11787,0 32.62769,50.19644 32.62769,50.19644 0,0 15.05893,-45.17679 40.15715,-45.17679 25.09822,0 42.66697,35.1375 42.66697,35.1375 0,0 10.03929,-40.15715 32.62768,-42.66697 22.5884,-2.50982 32.62769,40.15715 32.62769,40.15715"
     style="fill:none;stroke:#0907ff;stroke-width:0.80000001px;stroke-linecap:butt;stroke-linejoin:miter;stroke-opacity:1" /><path
     sodipodi:nodetypes="ccscscscscscscsc"
     id="path4456-02"
     d="m 336.81027,678.52581 c 37.64733,-2.50983 57.7259,50.19643 57.7259,50.19643 0,0 12.5491,-60.23572 52.70626,-62.74554 40.15715,-2.50983 50.19643,55.21608 50.19643,55.21608 0,0 12.54911,-47.68662 42.66697,-45.1768 30.11787,2.50983 45.1768,47.68662 45.1768,47.68662 0,0 10.03928,-40.15715 42.66697,-40.15715 32.62768,0 47.68661,40.15715 47.68661,40.15715 0,0 -7.52946,-35.1375 32.62769,-40.15715 40.15715,-5.01964 65.25537,32.62769 65.25537,32.62769 0,0 12.54911,-42.66698 42.66696,-42.66698 30.11787,0 32.62769,50.19644 32.62769,50.19644 0,0 15.05893,-45.17679 40.15715,-45.17679 25.09822,0 42.66697,35.1375 42.66697,35.1375 0,0 10.03932,-40.15715 32.62772,-42.66697 22.5884,-2.50982 32.6276,40.15715 32.6276,40.15715"
     style="fill:none;stroke:#0907ff;stroke-width:0.80000001px;stroke-linecap:butt;stroke-linejoin:miter;stroke-opacity:1" /><path
     sodipodi:nodetypes="ccscscscscscsc"
     id="path4456-8"
     d="m 413.32292,720.10586 c 40.15715,-2.50983 50.19643,55.21608 50.19643,55.21608 0,0 12.54911,-47.68662 42.66697,-45.1768 30.11787,2.50983 45.1768,47.68662 45.1768,47.68662 0,0 10.03928,-40.15715 42.66697,-40.15715 32.62768,0 47.68661,40.15715 47.68661,40.15715 0,0 -7.52946,-35.1375 32.62769,-40.15715 40.15715,-5.01964 65.25537,32.62769 65.25537,32.62769 0,0 12.54911,-42.66698 42.66696,-42.66698 30.11787,0 32.62769,50.19644 32.62769,50.19644 0,0 15.05893,-45.17679 40.15715,-45.17679 25.09822,0 42.66697,35.1375 42.66697,35.1375 0,0 10.03929,-40.15715 32.62771,-42.66697 22.5884,-2.50982 32.6277,40.15715 32.6277,40.15715"
     style="fill:none;stroke:#0907ff;stroke-width:0.80000001px;stroke-linecap:butt;stroke-linejoin:miter;stroke-opacity:1" /><path
     sodipodi:nodetypes="cscscscscscscscsc"
     id="path4456-56"
     d="m -285.53673,768.70832 c 0,0 10.03928,-40.1572 47.68661,-42.667 37.64733,-2.5098 57.72591,50.1964 57.72591,50.1964 0,0 12.5491,-60.2357 52.70626,-62.7455 40.157154,-2.5099 50.196432,55.2161 50.196432,55.2161 0,0 12.54911,-47.6867 42.66697,-45.1768 30.1178657,2.5098 45.176796,47.6866 45.176796,47.6866 0,0 10.03928,-40.1572 42.66697,-40.1572 32.627677,0 47.686602,40.1572 47.686602,40.1572 0,0 -7.529455,-35.1375 32.62769,-40.1572 40.15716,-5.0196 65.25538,32.6277 65.25538,32.6277 0,0 12.54911,-42.667 42.66696,-42.667 30.11787,0 32.62769,50.1965 32.62769,50.1965 0,0 15.05893,-45.1768 40.15715,-45.1768 25.09822,0 42.66697,35.1375 42.66697,35.1375 0,0 10.03929,-40.1572 32.62768,-42.667 22.5884,-2.5098 32.62769,40.1572 32.62769,40.1572"
     style="fill:none;stroke:#0907ff;stroke-width:0.80000001px;stroke-linecap:butt;stroke-linejoin:miter;stroke-opacity:1" /><path
     sodipodi:nodetypes="cscscscscscscscsc"
     id="path4456-34"
     d="m -288.10069,695.45907 c 0,0 10.03929,-40.15716 47.68661,-42.66697 37.64733,-2.50983 57.72591,50.19643 57.72591,50.19643 0,0 12.5491,-60.23572 52.70626,-62.74554 40.157142,-2.50983 50.196422,55.21608 50.196422,55.21608 0,0 12.54911,-47.68662 42.66697,-45.1768 30.1178691,2.50983 45.176799,47.68662 45.176799,47.68662 0,0 10.03928,-40.15715 42.66697,-40.15715 32.62768,0 47.686615,40.15715 47.686615,40.15715 0,0 -7.529465,-35.1375 32.627694,-40.15715 40.15715,-5.01964 65.25537,32.62769 65.25537,32.62769 0,0 12.54911,-42.66698 42.66696,-42.66698 30.11787,0 32.62769,50.19644 32.62769,50.19644 0,0 15.05893,-45.17679 40.15715,-45.17679 25.09822,0 42.66697,35.1375 42.66697,35.1375 0,0 10.03929,-40.15715 32.62768,-42.66697 22.5884,-2.50982 32.62769,40.15715 32.62769,40.15715"
     style="fill:none;fill-opacity:1;stroke:#0907ff;stroke-width:0.80000000999999998px;stroke-linecap:butt;stroke-linejoin:miter;stroke-opacity:1" /></g><path
   sodipodi:type="arc"
   style="fill:#ffffff;stroke:#000000;stroke-width:14;stroke-miterlimit:4;stroke-opacity:1;stroke-dasharray:none;fill-opacity:1"
   id="path3600-1"
   sodipodi:cx="-209.74576"
   sodipodi:cy="390.12711"
   sodipodi:rx="163.6017"
   sodipodi:ry="163.6017"
   d="m -46.144058,390.12711 c 0,90.35472 -73.246972,163.6017 -163.601702,163.6017 -90.35472,0 -163.6017,-73.24698 -163.6017,-163.6017 0,-90.35473 73.24698,-163.6017 163.6017,-163.6017 90.35473,0 163.601702,73.24697 163.601702,163.6017 z"
   transform="matrix(0.8,0,0,-0.8,234.09764,966.50847)" /><path
   sodipodi:type="arc"
   style="fill:#ffffff;stroke:#000000;stroke-width:14;stroke-miterlimit:4;stroke-opacity:1;stroke-dasharray:none;fill-opacity:1"
   id="path3600"
   sodipodi:cx="-209.74576"
   sodipodi:cy="390.12711"
   sodipodi:rx="163.6017"
   sodipodi:ry="163.6017"
   d="m -46.144058,390.12711 c 0,90.35472 -73.246972,163.6017 -163.601702,163.6017 -90.35472,0 -163.6017,-73.24698 -163.6017,-163.6017 0,-90.35473 73.24698,-163.6017 163.6017,-163.6017 90.35473,0 163.601702,73.24697 163.601702,163.6017 z"
   transform="matrix(0.8,0,0,-0.8,764.27792,969.86441)" /><path
   style="fill:none;stroke:#000000;stroke-width:9;stroke-linecap:butt;stroke-linejoin:miter;stroke-opacity:1;stroke-miterlimit:4;stroke-dasharray:none;marker-start:url(#Arrow1Mstart);marker-end:url(#Arrow1Mend)"
   d="m 255.88983,163.60169 310.42373,0"
   id="path3624"
   transform="matrix(0.8,0,0,-0.8,0,792)" /><text
   xml:space="preserve"
   style="font-size:115.19999695px;font-style:normal;font-variant:normal;font-weight:normal;font-stretch:normal;fill:#000000;fill-opacity:1;stroke:none;font-family:FreeSerif;-inkscape-font-specification:FreeSerif"
   x="288.62949"
   y="-547.14117"
   id="text4452"
   transform="scale(1,-1)"><tspan
     sodipodi:role="line"
     id="tspan4454"
     x="288.62949"
     y="-547.14117"
     style="font-style:italic;-inkscape-font-specification:Andale Mono Italic">d</tspan></text>

<path
   style="fill:#ff0000;stroke:#000000;stroke-width:7.19999980999999956;stroke-linecap:butt;stroke-linejoin:miter;stroke-miterlimit:4;stroke-opacity:1;stroke-dasharray:none;marker-start:url(#Arrow1Mstart);marker-end:url(#Arrow1Mend)"
   d="m -54.068909,660.11381 232.761069,0"
   id="path3624-7"
   sodipodi:nodetypes="cc" /><text
   xml:space="preserve"
   style="font-size:57.59999847px;font-style:normal;font-variant:normal;font-weight:normal;font-stretch:normal;fill:#000000;fill-opacity:1;stroke:none;font-family:FreeSerif;-inkscape-font-specification:Andale Mono"
   x="11.620045"
   y="-598.15497"
   id="text4452-0"
   transform="scale(1,-1)"><tspan
     sodipodi:role="line"
     id="tspan4454-0"
     x="11.620045"
     y="-598.15497"
     style="font-size:57.59999847px;font-style:normal;-inkscape-font-specification:Andale Mono">1nm</tspan></text>

<path
   sodipodi:type="arc"
   style="fill:#ffffff;fill-opacity:1;stroke:#000000;stroke-width:14;stroke-miterlimit:4;stroke-opacity:1;stroke-dasharray:none"
   id="path3600-1-7"
   sodipodi:cx="-209.74576"
   sodipodi:cy="390.12711"
   sodipodi:rx="163.6017"
   sodipodi:ry="163.6017"
   d="m -46.144058,390.12711 a 163.6017,163.6017 0 1 1 -327.203402,0 163.6017,163.6017 0 1 1 327.203402,0 z"
   transform="matrix(0.8,0,0,-0.8,231.78975,433.09974)" /><path
   sodipodi:type="arc"
   style="fill:#ffffff;fill-opacity:1;stroke:#000000;stroke-width:14;stroke-miterlimit:4;stroke-opacity:1;stroke-dasharray:none"
   id="path3600-3"
   sodipodi:cx="-209.74576"
   sodipodi:cy="390.12711"
   sodipodi:rx="163.6017"
   sodipodi:ry="163.6017"
   d="m -46.144058,390.12711 a 163.6017,163.6017 0 1 1 -327.203402,0 163.6017,163.6017 0 1 1 327.203402,0 z"
   transform="matrix(0.8,0,0,-0.8,761.96999,436.45568)" /><path
   style="fill:none;stroke:#000000;stroke-width:7.19999981;stroke-linecap:butt;stroke-linejoin:miter;stroke-miterlimit:4;stroke-opacity:1;stroke-dasharray:none;marker-start:url(#Arrow1Mstart);marker-end:url(#Arrow1Mend)"
   d="m 202.40397,127.70992 248.33899,0"
   id="path3624-6" /><text
   xml:space="preserve"
   style="font-size:115.19999695px;font-style:normal;font-variant:normal;font-weight:normal;font-stretch:normal;fill:#000000;fill-opacity:1;stroke:none;font-family:FreeSerif;-inkscape-font-specification:FreeSerif"
   x="286.32156"
   y="-13.73244"
   id="text4452-5"
   transform="scale(1,-1)"><tspan
     sodipodi:role="line"
     id="tspan4454-6"
     x="286.32156"
     y="-13.73244"
     style="font-style:italic;-inkscape-font-specification:Andale Mono Italic">d</tspan></text>
<path
   style="fill:none;stroke:#000000;stroke-width:7.19999981;stroke-linecap:butt;stroke-linejoin:miter;stroke-miterlimit:4;stroke-opacity:1;stroke-dasharray:none;marker-start:url(#Arrow1Mstart);marker-end:url(#Arrow1Mend)"
   d="m 66.206102,513.61716 0,-248.33898"
   id="path3624-8" /></g></svg>