<?xml version="1.0" encoding="UTF-8" standalone="no"?>
<!-- Created with Inkscape (http://www.inkscape.org/) -->

<svg
   xmlns:dc="http://purl.org/dc/elements/1.1/"
   xmlns:cc="http://creativecommons.org/ns#"
   xmlns:rdf="http://www.w3.org/1999/02/22-rdf-syntax-ns#"
   xmlns:svg="http://www.w3.org/2000/svg"
   xmlns="http://www.w3.org/2000/svg"
   xmlns:sodipodi="http://sodipodi.sourceforge.net/DTD/sodipodi-0.dtd"
   xmlns:inkscape="http://www.inkscape.org/namespaces/inkscape"
   id="svg2"
   version="1.1"
   inkscape:version="0.47 r22583"
   width="765"
   height="300"
   xml:space="preserve"
   sodipodi:docname="rods-diagram.svg"><metadata
     id="metadata8"><rdf:RDF><cc:Work
         rdf:about=""><dc:format>image/svg+xml</dc:format><dc:type
           rdf:resource="http://purl.org/dc/dcmitype/StillImage" /><dc:title /></cc:Work></rdf:RDF></metadata><defs
     id="defs6"><marker
       inkscape:stockid="Arrow1Mend"
       orient="auto"
       refY="0"
       refX="0"
       id="Arrow1Mend"
       style="overflow:visible"><path
         id="path3638"
         d="M 0,0 5,-5 -12.5,0 5,5 0,0 z"
         style="fill-rule:evenodd;stroke:#000000;stroke-width:1pt;marker-start:none"
         transform="matrix(-0.4,0,0,-0.4,-4,0)" /></marker><marker
       inkscape:stockid="Arrow1Mstart"
       orient="auto"
       refY="0"
       refX="0"
       id="Arrow1Mstart"
       style="overflow:visible"><path
         id="path3635"
         d="M 0,0 5,-5 -12.5,0 5,5 0,0 z"
         style="fill-rule:evenodd;stroke:#000000;stroke-width:1pt;marker-start:none"
         transform="matrix(0.4,0,0,0.4,4,0)" /></marker><marker
       inkscape:stockid="Arrow1Lstart"
       orient="auto"
       refY="0"
       refX="0"
       id="Arrow1Lstart"
       style="overflow:visible"><path
         id="path3629"
         d="M 0,0 5,-5 -12.5,0 5,5 0,0 z"
         style="fill-rule:evenodd;stroke:#000000;stroke-width:1pt;marker-start:none"
         transform="matrix(0.8,0,0,0.8,10,0)" /></marker><inkscape:perspective
       sodipodi:type="inkscape:persp3d"
       inkscape:vp_x="0 : 0.5 : 1"
       inkscape:vp_y="0 : 1000 : 0"
       inkscape:vp_z="1 : 0.5 : 1"
       inkscape:persp3d-origin="0.5 : 0.33333333 : 1"
       id="perspective10" /><clipPath
       clipPathUnits="userSpaceOnUse"
       id="clipPath20"><path
         d="m 0,0 3240,0 0,3420 L 0,3420 0,0 z"
         id="path22" /></clipPath><inkscape:perspective
       id="perspective3610"
       inkscape:persp3d-origin="0.5 : 0.33333333 : 1"
       inkscape:vp_z="1 : 0.5 : 1"
       inkscape:vp_y="0 : 1000 : 0"
       inkscape:vp_x="0 : 0.5 : 1"
       sodipodi:type="inkscape:persp3d" /><inkscape:perspective
       id="perspective4466"
       inkscape:persp3d-origin="0.5 : 0.33333333 : 1"
       inkscape:vp_z="1 : 0.5 : 1"
       inkscape:vp_y="0 : 1000 : 0"
       inkscape:vp_x="0 : 0.5 : 1"
       sodipodi:type="inkscape:persp3d" /><inkscape:perspective
       id="perspective4466-7"
       inkscape:persp3d-origin="0.5 : 0.33333333 : 1"
       inkscape:vp_z="1 : 0.5 : 1"
       inkscape:vp_y="0 : 1000 : 0"
       inkscape:vp_x="0 : 0.5 : 1"
       sodipodi:type="inkscape:persp3d" /><inkscape:perspective
       id="perspective4466-4"
       inkscape:persp3d-origin="0.5 : 0.33333333 : 1"
       inkscape:vp_z="1 : 0.5 : 1"
       inkscape:vp_y="0 : 1000 : 0"
       inkscape:vp_x="0 : 0.5 : 1"
       sodipodi:type="inkscape:persp3d" /><inkscape:perspective
       id="perspective4466-48"
       inkscape:persp3d-origin="0.5 : 0.33333333 : 1"
       inkscape:vp_z="1 : 0.5 : 1"
       inkscape:vp_y="0 : 1000 : 0"
       inkscape:vp_x="0 : 0.5 : 1"
       sodipodi:type="inkscape:persp3d" /><inkscape:perspective
       id="perspective4466-3"
       inkscape:persp3d-origin="0.5 : 0.33333333 : 1"
       inkscape:vp_z="1 : 0.5 : 1"
       inkscape:vp_y="0 : 1000 : 0"
       inkscape:vp_x="0 : 0.5 : 1"
       sodipodi:type="inkscape:persp3d" /><inkscape:perspective
       id="perspective4466-6"
       inkscape:persp3d-origin="0.5 : 0.33333333 : 1"
       inkscape:vp_z="1 : 0.5 : 1"
       inkscape:vp_y="0 : 1000 : 0"
       inkscape:vp_x="0 : 0.5 : 1"
       sodipodi:type="inkscape:persp3d" /><inkscape:perspective
       id="perspective4466-5"
       inkscape:persp3d-origin="0.5 : 0.33333333 : 1"
       inkscape:vp_z="1 : 0.5 : 1"
       inkscape:vp_y="0 : 1000 : 0"
       inkscape:vp_x="0 : 0.5 : 1"
       sodipodi:type="inkscape:persp3d" /><inkscape:perspective
       id="perspective4466-69"
       inkscape:persp3d-origin="0.5 : 0.33333333 : 1"
       inkscape:vp_z="1 : 0.5 : 1"
       inkscape:vp_y="0 : 1000 : 0"
       inkscape:vp_x="0 : 0.5 : 1"
       sodipodi:type="inkscape:persp3d" /><inkscape:perspective
       id="perspective4466-75"
       inkscape:persp3d-origin="0.5 : 0.33333333 : 1"
       inkscape:vp_z="1 : 0.5 : 1"
       inkscape:vp_y="0 : 1000 : 0"
       inkscape:vp_x="0 : 0.5 : 1"
       sodipodi:type="inkscape:persp3d" /><inkscape:perspective
       id="perspective4466-30"
       inkscape:persp3d-origin="0.5 : 0.33333333 : 1"
       inkscape:vp_z="1 : 0.5 : 1"
       inkscape:vp_y="0 : 1000 : 0"
       inkscape:vp_x="0 : 0.5 : 1"
       sodipodi:type="inkscape:persp3d" /><inkscape:perspective
       id="perspective4466-53"
       inkscape:persp3d-origin="0.5 : 0.33333333 : 1"
       inkscape:vp_z="1 : 0.5 : 1"
       inkscape:vp_y="0 : 1000 : 0"
       inkscape:vp_x="0 : 0.5 : 1"
       sodipodi:type="inkscape:persp3d" /><inkscape:perspective
       id="perspective4466-50"
       inkscape:persp3d-origin="0.5 : 0.33333333 : 1"
       inkscape:vp_z="1 : 0.5 : 1"
       inkscape:vp_y="0 : 1000 : 0"
       inkscape:vp_x="0 : 0.5 : 1"
       sodipodi:type="inkscape:persp3d" /><inkscape:perspective
       id="perspective4466-67"
       inkscape:persp3d-origin="0.5 : 0.33333333 : 1"
       inkscape:vp_z="1 : 0.5 : 1"
       inkscape:vp_y="0 : 1000 : 0"
       inkscape:vp_x="0 : 0.5 : 1"
       sodipodi:type="inkscape:persp3d" /><inkscape:perspective
       id="perspective4596"
       inkscape:persp3d-origin="0.5 : 0.33333333 : 1"
       inkscape:vp_z="1 : 0.5 : 1"
       inkscape:vp_y="0 : 1000 : 0"
       inkscape:vp_x="0 : 0.5 : 1"
       sodipodi:type="inkscape:persp3d" /><marker
       inkscape:stockid="Arrow1Mstart"
       orient="auto"
       refY="0"
       refX="0"
       id="Arrow1Mstart-1"
       style="overflow:visible"><path
         id="path3635-1"
         d="M 0,0 5,-5 -12.5,0 5,5 0,0 z"
         style="fill-rule:evenodd;stroke:#000000;stroke-width:1pt;marker-start:none"
         transform="matrix(0.4,0,0,0.4,4,0)" /></marker><marker
       inkscape:stockid="Arrow1Mend"
       orient="auto"
       refY="0"
       refX="0"
       id="Arrow1Mend-4"
       style="overflow:visible"><path
         id="path3638-9"
         d="M 0,0 5,-5 -12.5,0 5,5 0,0 z"
         style="fill-rule:evenodd;stroke:#000000;stroke-width:1pt;marker-start:none"
         transform="matrix(-0.4,0,0,-0.4,-4,0)" /></marker><inkscape:perspective
       id="perspective4630"
       inkscape:persp3d-origin="0.5 : 0.33333333 : 1"
       inkscape:vp_z="1 : 0.5 : 1"
       inkscape:vp_y="0 : 1000 : 0"
       inkscape:vp_x="0 : 0.5 : 1"
       sodipodi:type="inkscape:persp3d" /></defs><sodipodi:namedview
     pagecolor="#ffffff"
     bordercolor="#666666"
     borderopacity="1"
     objecttolerance="10"
     gridtolerance="10"
     guidetolerance="10"
     inkscape:pageopacity="0"
     inkscape:pageshadow="2"
     inkscape:window-width="1215"
     inkscape:window-height="856"
     id="namedview4"
     showgrid="false"
     inkscape:zoom="1.2224419"
     inkscape:cx="389.22789"
     inkscape:cy="153.37241"
     inkscape:window-x="471"
     inkscape:window-y="57"
     inkscape:window-maximized="0"
     inkscape:current-layer="g12"
     inkscape:object-paths="true"
     inkscape:snap-global="false"
     showborder="true" /><g
     id="g12"
     inkscape:groupmode="layer"
     inkscape:label="ink_ext_XXXXXX"
     transform="matrix(1.25,0,0,-1.25,0,300)"><path
   style="fill:none;stroke:#0907ff;stroke-width:0.45293212px;stroke-linecap:butt;stroke-linejoin:miter;stroke-opacity:1"
   d="m -37.636473,226.83236 c 0,0 5.61043,-23.03327 26.649561,-24.47285 21.039119,-1.43958 32.259989,28.79158 32.259989,28.79158 0,0 7.01305,-34.5499 29.45478,-35.98947 22.44174,-1.43959 28.05217,31.67074 28.05217,31.67074 0,0 7.01304,-27.35201 23.844343,-25.91243 16.8313,1.43958 25.24695,27.35201 25.24695,27.35201 0,0 5.61044,-23.03327 23.84435,-23.03327 18.2339,0 26.64955,23.03327 26.64955,23.03327 0,0 -4.20782,-20.15411 18.23391,-23.03327 22.44174,-2.87916 36.46782,18.71453 36.46782,18.71453"
   id="path4456"
   sodipodi:nodetypes="cscscscscsc" /><path
   style="fill:none;stroke:#0907ff;stroke-width:0.45293212px;stroke-linecap:butt;stroke-linejoin:miter;stroke-opacity:1"
   d="m 340.30076,85.668371 c 22.44174,-1.43959 28.05217,31.670739 28.05217,31.670739 0,0 7.01304,-27.352009 23.84434,-25.912429 16.83131,1.43958 25.24696,27.352009 25.24696,27.352009 0,0 5.61043,-23.033269 23.84434,-23.033269 18.23391,0 26.64956,23.033269 26.64956,23.033269 0,0 -4.20782,-20.154109 18.23391,-23.033269 22.44174,-2.87916 36.46782,18.714529 36.46782,18.714529 0,0 7.01305,-24.472849 23.84434,-24.472849 16.83131,0 18.23391,28.791589 18.23391,28.791589 0,0 8.41565,-25.912429 22.44174,-25.912429 14.02608,0 23.84434,20.154109 23.84434,20.154109 0,0 5.61044,-23.033269 18.23391,-24.472849 12.62348,-1.43958 18.23391,23.033269 18.23391,23.033269"
   id="path4456-0"
   sodipodi:nodetypes="ccscscscscscsc" /><path
   style="fill:none;stroke:#0907ff;stroke-width:0.45293212px;stroke-linecap:butt;stroke-linejoin:miter;stroke-opacity:1"
   d="m -11.281932,45.961131 c 0,0 5.6104295,-23.03327 26.649559,-24.47284 21.03912,-1.43959 32.25999,28.79158 32.25999,28.79158 0,0 7.01304,-34.5499 29.45478,-35.98948 22.441745,-1.43959 28.052173,31.67074 28.052173,31.67074 0,0 7.01304,-27.35201 23.84434,-25.91243 16.8313,1.43959 25.24695,27.35201 25.24695,27.35201 0,0 5.61043,-23.03327 23.84434,-23.03327 18.23391,0 26.64956,23.03327 26.64956,23.03327 0,0 -4.20782,-20.15411 18.23391,-23.03327 22.44174,-2.87915 36.46783,18.71454 36.46783,18.71454"
   id="path4456-4"
   sodipodi:nodetypes="cscscscscsc" /><path
   style="fill:none;stroke:#0907ff;stroke-width:0.45293212px;stroke-linecap:butt;stroke-linejoin:miter;stroke-opacity:1"
   d="m 231.50186,223.95062 c 0,0 5.61044,-23.03328 26.64956,-24.47285 21.03913,-1.43959 32.26,28.79158 32.26,28.79158 0,0 7.01303,-34.5499 29.45478,-35.98948 22.44173,-1.43958 28.05216,31.67075 28.05216,31.67075 0,0 7.01305,-27.35201 23.84435,-25.91244 16.8313,1.43959 25.24695,27.35201 25.24695,27.35201 0,0 5.61043,-23.03326 23.84435,-23.03326 18.2339,0 26.64955,23.03326 26.64955,23.03326 0,0 -4.20782,-20.1541 18.23392,-23.03326 22.44173,-2.87916 36.46782,18.71453 36.46782,18.71453 0,0 7.01304,-24.47285 23.84433,-24.47285 16.83131,0 18.23392,28.79158 18.23392,28.79158 0,0 8.41565,-25.91242 22.44173,-25.91242 14.02609,0 23.84435,20.1541 23.84435,20.1541 0,0 5.61043,-23.03326 18.2339,-24.47284 12.62348,-1.43958 18.23392,23.03327 18.23392,23.03327"
   id="path4456-15"
   sodipodi:nodetypes="cscscscscscscscsc" /><path
   style="fill:none;stroke:#0907ff;stroke-width:0.45293212px;stroke-linecap:butt;stroke-linejoin:miter;stroke-opacity:1"
   d="m 258.33194,47.235591 c 0,0 5.61043,-23.03328 26.64956,-24.47285 21.03913,-1.43958 32.25999,28.79158 32.25999,28.79158 0,0 7.01304,-34.5499 29.45478,-35.98947 22.44174,-1.43959 28.05217,31.67074 28.05217,31.67074 0,0 7.01304,-27.35201 23.84434,-25.91243 16.83131,1.43958 25.24696,27.35201 25.24696,27.35201 0,0 5.61043,-23.03327 23.84434,-23.03327 18.23391,0 26.64956,23.03327 26.64956,23.03327 0,0 -4.20782,-20.15411 18.23391,-23.03327 22.44174,-2.87916 36.46782,18.71453 36.46782,18.71453 0,0 7.01305,-24.47285 23.84434,-24.47285 16.83131,0 18.23391,28.79159 18.23391,28.79159 0,0 8.41565,-25.91243 22.44174,-25.91243 14.02608,0 23.84434,20.15411 23.84434,20.15411 0,0 5.61044,-23.03327 18.23391,-24.47285 12.62348,-1.43958 18.23391,23.03327 18.23391,23.03327"
   id="path4456-46"
   sodipodi:nodetypes="cscscscscscscscsc" /><path
   style="fill:none;stroke:#0907ff;stroke-width:0.45293212px;stroke-linecap:butt;stroke-linejoin:miter;stroke-opacity:1"
   d="m -52.253103,92.255541 c 0,0 5.61043,-23.03327 26.64956,-24.47284 21.0391305,-1.43959 32.2600005,28.79158 32.2600005,28.79158 0,0 7.0130295,-34.5499 29.4547795,-35.98948 22.44173,-1.43958 28.05216,31.67074 28.05216,31.67074 0,0 7.01304,-27.352 23.84434,-25.91243 16.831313,1.43959 25.246963,27.35201 25.246963,27.35201 0,0 5.61043,-23.03327 23.84434,-23.03327 18.2339,0 26.64955,23.03327 26.64955,23.03327 0,0 -4.20782,-20.1541 18.23392,-23.03327 22.44173,-2.87915 36.46782,18.71454 36.46782,18.71454 0,0 7.01304,-24.47285 23.84434,-24.47285 16.8313,0 18.23391,28.79158 18.23391,28.79158 0,0 8.41565,-25.91242 22.44173,-25.91242 14.02609,0 23.84435,20.1541 23.84435,20.1541 0,0 5.61043,-23.03326 18.2339,-24.47284 12.62348,-1.43958 18.23392,23.03327 18.23392,23.03327"
   id="path4456-6"
   sodipodi:nodetypes="cscscscscscscscsc" /><path
   style="fill:none;stroke:#0907ff;stroke-width:0.45293212px;stroke-linecap:butt;stroke-linejoin:miter;stroke-opacity:1"
   d="m 341.26869,73.041177 c 13.93418,-25.65341 31.32431,6.148064 31.32431,6.148064 0,0 7.01304,-27.35201 23.84434,-25.91243 16.83131,1.43958 25.24696,27.35201 25.24696,27.35201 0,0 5.61043,-23.03327 23.84434,-23.03327 18.23391,0 26.64956,23.03327 26.64956,23.03327 0,0 -4.20782,-20.15411 18.23391,-23.03327 22.44174,-2.87916 36.46782,18.71453 36.46782,18.71453 0,0 7.01304,-24.47285 23.84434,-24.47285 16.8313,0 18.23391,28.79159 18.23391,28.79159 0,0 8.41565,-25.91243 22.44174,-25.91243 14.02608,0 23.84434,20.15411 23.84434,20.15411 0,0 5.61043,-23.03327 18.23391,-24.47285 12.62347,-1.43958 18.23391,23.03327 18.23391,23.03327"
   id="path4456-64"
   sodipodi:nodetypes="ccscscscscscsc" /><path
   style="fill:none;stroke:#0907ff;stroke-width:0.45293212px;stroke-linecap:butt;stroke-linejoin:miter;stroke-opacity:1"
   d="m 353.44357,139.09003 c 0,0 -3.45781,-18.1892 18.98393,-19.62878 22.44174,-1.43958 23.47118,37.56059 23.47118,37.56059 0,0 7.01304,-27.352 23.84434,-25.91243 16.83131,1.43959 25.24696,27.35201 25.24696,27.35201 0,0 5.61043,-23.03327 23.84434,-23.03327 18.23391,0 26.64956,23.03327 26.64956,23.03327 0,0 -4.20782,-20.1541 18.23391,-23.03327 22.44174,-2.87915 36.46782,18.71454 36.46782,18.71454 0,0 7.01304,-24.47285 23.84434,-24.47285 16.8313,0 18.23391,28.79158 18.23391,28.79158 0,0 8.41565,-25.91242 22.44174,-25.91242 14.02608,0 23.84434,20.1541 23.84434,20.1541 0,0 5.61045,-23.03326 18.23393,-24.47284 12.62348,-1.43958 18.23386,23.03327 18.23386,23.03327"
   id="path4456-02"
   sodipodi:nodetypes="cscscscscscscsc" /><path
   style="fill:none;stroke:#0907ff;stroke-width:0.45293212px;stroke-linecap:butt;stroke-linejoin:miter;stroke-opacity:1"
   d="m 353.47166,177.3401 c 18.51518,-34.8154 28.05217,-2.35951 28.05217,-2.35951 0,0 2.43205,-14.26344 19.26335,-12.82387 16.8313,1.43959 25.24695,27.35201 25.24695,27.35201 0,0 5.61043,-23.03327 23.84435,-23.03327 18.2339,0 26.64955,23.03327 26.64955,23.03327 0,0 -4.20782,-20.1541 18.23392,-23.03327 22.44173,-2.87915 36.46782,18.71454 36.46782,18.71454 0,0 7.01304,-24.47285 23.84433,-24.47285 16.83131,0 18.23392,28.79158 18.23392,28.79158 0,0 8.41565,-25.91242 22.44173,-25.91242 14.02609,0 23.84435,20.1541 23.84435,20.1541 0,0 5.61043,-23.03326 18.23392,-24.47284 12.62348,-1.43958 18.23392,23.03327 18.23392,23.03327"
   id="path4456-8"
   sodipodi:nodetypes="ccscscscscscsc" /><path
   style="fill:none;stroke:#0907ff;stroke-width:0.45293212px;stroke-linecap:butt;stroke-linejoin:miter;stroke-opacity:1"
   d="m -41.665513,184.27573 c 0,0 5.61043,-23.0333 26.64955,-24.47287 21.0391305,-1.43956 32.26,28.79157 32.26,28.79157 0,0 7.01304,-34.54989 29.45478,-35.98946 22.44174,-1.43962 28.05217,31.67076 28.05217,31.67076 0,0 7.01304,-27.35206 23.844345,-25.91243 16.831298,1.43956 25.246948,27.35199 25.246948,27.35199 0,0 5.61043,-23.03329 23.84434,-23.03329 18.23391,0 26.64955,23.03329 26.64955,23.03329 0,0 -4.20782,-20.1541 18.23392,-23.03329 22.44174,-2.87914 36.46782,18.71453 36.46782,18.71453 0,0 7.01304,-24.47286 23.84434,-24.47286 16.83131,0 18.23391,28.79162 18.23391,28.79162 0,0 8.41565,-25.91243 22.44174,-25.91243 14.02608,0 23.84434,20.15411 23.84434,20.15411 0,0 5.61044,-23.0333 18.23391,-24.47287 12.62348,-1.43956 18.23392,23.0333 18.23392,23.0333"
   id="path4456-56"
   sodipodi:nodetypes="cscscscscscscscsc" /><path
   style="fill:none;stroke:#0907ff;stroke-width:0.45293212px;stroke-linecap:butt;stroke-linejoin:miter;stroke-opacity:1"
   d="m -43.098383,142.26155 c 0,0 5.61044,-23.03328 26.64956,-24.47285 21.0391305,-1.43958 32.26,28.79158 32.26,28.79158 0,0 7.01304,-34.5499 29.45478,-35.98947 22.44173,-1.43959 28.05216,31.67074 28.05216,31.67074 0,0 7.01304,-27.35201 23.84434,-25.91243 16.831303,1.43958 25.246953,27.35201 25.246953,27.35201 0,0 5.61043,-23.03327 23.84435,-23.03327 18.2339,0 26.64955,23.03327 26.64955,23.03327 0,0 -4.20782,-20.15411 18.23392,-23.03327 22.44173,-2.87916 36.46782,18.71453 36.46782,18.71453 0,0 7.01304,-24.47285 23.84434,-24.47285 16.8313,0 18.23391,28.79159 18.23391,28.79159 0,0 8.41565,-25.91243 22.44173,-25.91243 14.02609,0 23.84435,20.15411 23.84435,20.15411 0,0 5.61043,-23.03327 18.2339,-24.47285 12.62348,-1.43958 18.23392,23.03327 18.23392,23.03327"
   id="path4456-34"
   sodipodi:nodetypes="cscscscscscscscsc" /><path
   sodipodi:type="arc"
   style="fill:#ffffff;fill-opacity:1;stroke:#000000;stroke-width:14;stroke-miterlimit:4;stroke-opacity:1;stroke-dasharray:none"
   id="path3600-1"
   sodipodi:cx="-209.74576"
   sodipodi:cy="390.12711"
   sodipodi:rx="163.6017"
   sodipodi:ry="163.6017"
   d="m -46.144058,390.12711 c 0,90.35472 -73.246972,163.6017 -163.601702,163.6017 -90.35472,0 -163.6017,-73.24698 -163.6017,-163.6017 0,-90.35473 73.24698,-163.6017 163.6017,-163.6017 90.35473,0 163.601702,73.24697 163.601702,163.6017 z"
   transform="matrix(0.44707825,0,0,-0.45886261,248.73101,297.72959)" /><path
   sodipodi:type="arc"
   style="fill:#ffffff;fill-opacity:1;stroke:#000000;stroke-width:14;stroke-miterlimit:4;stroke-opacity:1;stroke-dasharray:none"
   id="path3600"
   sodipodi:cx="-209.74576"
   sodipodi:cy="390.12711"
   sodipodi:rx="163.6017"
   sodipodi:ry="163.6017"
   d="m -46.144058,390.12711 c 0,90.35472 -73.246972,163.6017 -163.601702,163.6017 -90.35472,0 -163.6017,-73.24698 -163.6017,-163.6017 0,-90.35473 73.24698,-163.6017 163.6017,-163.6017 90.35473,0 163.601702,73.24697 163.601702,163.6017 z"
   transform="matrix(0.44707825,0,0,-0.45886261,545.0211,299.65448)" /><path
   style="fill:none;stroke:#000000;stroke-width:4.07638884;stroke-linecap:butt;stroke-linejoin:miter;stroke-miterlimit:4;stroke-opacity:1;stroke-dasharray:none;marker-start:url(#Arrow1Mstart);marker-end:url(#Arrow1Mend)"
   d="m 232.30883,122.56463 138.78371,0"
   id="path3624" />

<path
   style="fill:#ff0000;stroke:#000000;stroke-width:4.07638884;stroke-linecap:butt;stroke-linejoin:miter;stroke-miterlimit:4;stroke-opacity:1;stroke-dasharray:none;marker-start:url(#Arrow1Mstart);marker-end:url(#Arrow1Mend)"
   d="m 155.15878,123.10517 36.49196,54.72779"
   id="path3624-7"
   sodipodi:nodetypes="cc" /><text
   xml:space="preserve"
   style="font-size:32.61111069px;font-style:normal;font-variant:normal;font-weight:normal;font-stretch:normal;line-height:125%;fill:#000000;fill-opacity:1;stroke:none;font-family:FreeSerif;-inkscape-font-specification:Andale Mono"
   x="144.77051"
   y="-152.58269"
   id="text4452-0"
   transform="scale(0.98707563,-1.0130936)"
   sodipodi:linespacing="125%"><tspan
     sodipodi:role="line"
     id="tspan4454-0"
     x="144.77051"
     y="-152.58269"
     style="font-size:44.79999992;font-style:italic;font-variant:normal;font-weight:normal;font-stretch:normal;text-align:start;line-height:125%;writing-mode:lr-tb;text-anchor:start;font-family:FreeSerif;-inkscape-font-specification:FreeSerif Italic">r</tspan></text>



<text
   transform="scale(0.98707563,-1.0130936)"
   id="text2964"
   y="-83.041092"
   x="293.77841"
   style="font-size:65.22222137px;font-style:normal;font-variant:normal;font-weight:normal;font-stretch:normal;fill:#000000;fill-opacity:1;stroke:none;font-family:FreeSerif;-inkscape-font-specification:FreeSerif"
   xml:space="preserve"><tspan
     style="font-size:44.79999924px;font-style:italic;-inkscape-font-specification:Andale Mono Italic"
     y="-83.041092"
     x="293.77841"
     id="tspan2966"
     sodipodi:role="line">d</tspan></text>


</g></svg>