<?xml version="1.0" encoding="UTF-8" standalone="no"?>
<!-- Created with Inkscape (http://www.inkscape.org/) -->

<svg
   xmlns:dc="http://purl.org/dc/elements/1.1/"
   xmlns:cc="http://creativecommons.org/ns#"
   xmlns:rdf="http://www.w3.org/1999/02/22-rdf-syntax-ns#"
   xmlns:svg="http://www.w3.org/2000/svg"
   xmlns="http://www.w3.org/2000/svg"
   xmlns:sodipodi="http://sodipodi.sourceforge.net/DTD/sodipodi-0.dtd"
   xmlns:inkscape="http://www.inkscape.org/namespaces/inkscape"
   id="svg2"
   version="1.1"
   inkscape:version="0.47 r22583"
   width="765"
   height="990"
   xml:space="preserve"
   sodipodi:docname="logo.eps"><metadata
     id="metadata8"><rdf:RDF><cc:Work
         rdf:about=""><dc:format>image/svg+xml</dc:format><dc:type
           rdf:resource="http://purl.org/dc/dcmitype/StillImage" /><dc:title></dc:title></cc:Work></rdf:RDF></metadata><defs
     id="defs6"><inkscape:perspective
       sodipodi:type="inkscape:persp3d"
       inkscape:vp_x="0 : 0.5 : 1"
       inkscape:vp_y="0 : 1000 : 0"
       inkscape:vp_z="1 : 0.5 : 1"
       inkscape:persp3d-origin="0.5 : 0.33333333 : 1"
       id="perspective10" /><clipPath
       clipPathUnits="userSpaceOnUse"
       id="clipPath20"><path
         d="m 0,0 3240,0 0,3420 L 0,3420 0,0 z"
         id="path22" /></clipPath></defs><sodipodi:namedview
     pagecolor="#ffffff"
     bordercolor="#666666"
     borderopacity="1"
     objecttolerance="10"
     gridtolerance="10"
     guidetolerance="10"
     inkscape:pageopacity="0"
     inkscape:pageshadow="2"
     inkscape:window-width="640"
     inkscape:window-height="493"
     id="namedview4"
     showgrid="false"
     inkscape:zoom="0.23838384"
     inkscape:cx="382.5"
     inkscape:cy="486.61017"
     inkscape:window-x="0"
     inkscape:window-y="25"
     inkscape:window-maximized="0"
     inkscape:current-layer="g12" /><g
     id="g12"
     inkscape:groupmode="layer"
     inkscape:label="ink_ext_XXXXXX"
     transform="matrix(1.25,0,0,-1.25,0,990)"><g
       id="g14"
       transform="scale(0.1,0.1)"><g
         id="g16"><g
           id="g18"
           clip-path="url(#clipPath20)"><path
             d="m 2731.6,993.289 c -278.85,0 -506.13,210.851 -506.13,472.401 l -0.02,1883.98 372.44,0 0.02,-1893.83 c 0,-69.44 59.34,-131.91 133.69,-131.91 74.35,0 133.7,62.47 133.7,131.91 l -0.03,1893.83 372.45,0 0.02,-1883.98 c 0,-261.55 -227.27,-472.401 -506.14,-472.401 M 1620.35,1322.04 c 74.3,0 133.69,62.17 133.69,131.32 0,15.85 -0.42,85.98 -0.42,174.51 0,82.02 -23.97,155.08 -53.93,192.27 l -460.43,559.97 c -93.82,118.33 -124.61,271.76 -124.61,395.43 0,88.52 -0.42,149.04 -0.42,164.58 0,260.19 227.24,470 506.13,470 278.9,0 506.14,-209.81 506.14,-469.99 l 0.01,-273.07 -372.45,0 0,283 c 0,69.15 -59.39,131.3 -133.7,131.3 -74.3,0 -133.69,-62.15 -133.69,-131.3 0,-15.86 0.43,-86 0.43,-174.52 0,-82.01 23.96,-155.08 53.93,-192.27 l 458.2,-557.14 c 95.48,-118.69 126.83,-273.67 126.83,-398.26 0,-88.53 0.42,-149.04 0.42,-164.59 0,-260.18 -227.23,-469.991 -506.13,-469.991 -278.9,0 -506.14,209.811 -506.14,469.991 l 0,298.2 372.44,0 0,-308.12 c 0,-69.15 59.39,-131.32 133.7,-131.32 m -1244.909,133.8 c 0,-69.44 59.352,-131.91 133.7,-131.91 74.339,0 133.691,62.47 133.691,131.91 l -0.02,1496.47 c 0,69.44 -59.351,131.9 -133.699,131.9 -74.332,0 -133.691,-62.46 -133.691,-131.9 l 0.019,-1496.47 z m 639.829,9.85 c 0,-261.55 -227.278,-472.401 -506.129,-472.401 -278.86,0 -506.13709,210.851 -506.13709,472.401 L 2.98047,2942.31 c 0,261.54 227.28153,472.4 506.13253,472.4 278.867,0 506.137,-210.85 506.137,-472.4 l 0.02,-1476.62"
             style="fill:#f36118;fill-opacity:1;fill-rule:evenodd;stroke:none"
             id="path24" /><path
             d="m 1258.45,87.0117 0,-5.1015 c -0.26,-13.461 1.23,-23.2813 4.49,-29.461 3.26,-6.1797 9.86,-9.2304 19.79,-9.1406 10.05,-0.0703 16.67,3.0117 19.88,9.2305 3.22,6.2304 4.68,16.0195 4.41,29.3711 l 0,5.1015 39.34,0 0,-14.5625 C 1346.41,50.5 1341.21,34.1406 1330.75,23.3711 1320.3,12.6016 1304.3,7.21875 1282.73,7.26172 c -42.7,-0.1211 -63.9,21.60938 -63.62,65.18748 l 0,14.5625 39.34,0 z m 225.63,0 0.44,-75.1523 -34.25,0 0,75.1523 33.81,0 z m 60.01,0 0.89,-1.7812 -0.01,1.7812 33.53,0 0,-75.1523 -32.3,0 -37.14,75.1523 35.03,0 z m 142.15,0 39.34,0 0,-75.1523 -39.34,0 0,75.1523 z m 199.55,0 5.19,-18.9101 5.18,18.9101 37.34,0 -21.86,-75.1523 -41.53,0 -21.88,75.1523 37.56,0 z m 204.33,0 0,-39.1015 85.48,0 0,-36.0508 -124.81,0 0,75.1523 39.33,0 z m 169.28,0 39.34,0 0,-74.9726 -39.34,0 0,74.9726 z m 94.46,0 35.95,-74.9726 -43.47,0 -33.93,74.9726 41.45,0 z m 235.45,0 c 2.54,-6.6523 3.88,-14.1523 4.01,-22.4805 -0.25,-17.2812 -5.83,-31.1093 -16.76,-41.5117 -10.92,-10.3984 -25.74,-15.74997 -44.43,-16.00778 -27.93,0.08984 -49.3,12.69918 -64.11,37.82808 l 30.59,22.75 c 5,-8.789 10.24,-15.3086 15.68,-19.5312 5.47,-4.207 11.73,-6.3086 18.79,-6.2774 6.9,0.1094 12.32,1.9883 16.28,5.6172 3.97,3.6211 6,8.3204 6.08,14.0625 0.11,10.0977 -6.44,18.0196 -19.67,23.7696 l -4.11,1.7812 57.65,0 z m 98.35,0 39.35,0 0,-75.1523 -39.35,0 0,75.1523 z m 191.4,0 39.34,0 0,-75.1523 -39.34,0 0,75.1523 z m 246.37,0 -0.25,-0.5 0,-74.6523 -39.33,0 0,74.6523 -0.25,0.5 39.83,0"
             style="fill:#231f20;fill-opacity:1;fill-rule:evenodd;stroke:none"
             id="path26" /><path
             d="m 213.684,327.012 c -3.5,-0.731 -6.981,-1.383 -10.43,-1.883 -14.723,-2.16 -27.301,-3.129 -37.731,-2.91 -12.75,-0.239 -26.632,1.34 -41.64,4.722 l 89.801,0.071 z m 543.769,0 c -13.883,-2.332 -27.492,-3.551 -40.812,-3.59 -13.68,0.047 -26.368,1.238 -38.079,3.558 l 78.891,0.032 z m 233.399,0 c -10.211,-3.383 -20.86,-4.942 -31.93,-4.903 -11.801,-0.019 -22.41,1.629 -31.84,4.93 l 63.77,-0.027 z m 134.328,0 c -0.34,-4.641 -0.74,-9.352 -1.22,-14.121 -2.01,-20.352 -4.01,-39.719 -12.79,-58.11 -8.78,-18.383 -23.2,-33.422 -43.27,-45.14 -20.09,-11.719 -48.06,-17.801 -83.939,-18.172 -26.219,0.312 -47.668,3.722 -64.348,10.242 -16.672,6.527 -29.429,14.25 -38.269,23.219 -8.84,8.949 -14.621,17.25 -17.34,24.879 l 57.34,35.371 c 4.398,-6.719 10.937,-13.809 19.617,-21.25 8.68,-7.41 20.812,-11.442 36.41,-12.071 8.223,-0.199 17.801,1.922 28.759,6.391 10.94,4.441 19.37,12.539 25.29,24.23 4.07,10.418 5.85,24.25 5.3,41.481 l 0,3.051 88.46,0 z m 202.56,0 c -7.1,-0.801 -14.86,-1.301 -23.29,-1.5 -8.91,-0.184 -19.21,0.328 -30.89,1.519 l 54.18,-0.019 z m 756.89,0 c -12.38,-2.403 -23.37,-3.571 -32.97,-3.543 -18.32,-0.34 -35.25,0.832 -50.77,3.511 l 83.74,0.032 z m 340.48,0 0,-1.961 c -14.13,-1.129 -26.92,-1.582 -38.4,-1.34 -16.41,-0.18 -31.03,0.961 -43.87,3.359 l 82.27,-0.058 z m 137.87,0 c -6.45,-1.063 -13.06,-1.602 -19.81,-1.582 -6.14,0.09 -12,0.601 -17.57,1.57 l 37.38,0.012 z m 391.37,0 0,-1.961 c -14.11,-1.129 -26.91,-1.582 -38.39,-1.34 -16.41,-0.18 -31.03,0.961 -43.86,3.359 l 82.25,-0.058 z m 199.75,0 c -13.88,-2.332 -27.48,-3.551 -40.81,-3.59 -13.67,0.047 -26.37,1.238 -38.07,3.558 l 78.88,0.032 z M 1219.11,198.73 l 39.34,0 0,-111.7183 -39.34,0 0,111.7183 z m 87.91,0 39.34,0 0,-111.7183 -39.34,0 0,111.7183 z m 143.25,-111.7183 0,111.7183 37.89,0 55.93,-111.7183 -35.03,0 -25.27,51.1363 0.29,-51.1363 -33.81,0 z m 94.7,0 -0.71,111.7183 34.24,0 0,-111.7183 -33.53,0 z m 141.27,111.7183 39.34,0 0,-111.7183 -39.34,0 0,111.7183 z m 161.99,-111.7183 -32.52,111.7183 39.34,0 30.74,-111.7183 -37.56,0 z m 47.93,0 30.53,111.7183 39.33,0 -32.52,-111.7183 -37.34,0 z m 154.63,0 0,111.7183 119.73,0 0,-36.05 -80.39,0 0,-33.481 54.89,0 0,-36.0506 -54.89,0 0,-6.1367 -39.34,0 z m 208.61,0 0,111.8863 44.69,0 c 11.88,0.122 22.34,-0.296 31.42,-1.269 9.06,-0.969 16.8,-3.188 23.22,-6.66 8.04,-4.508 14.17,-10.809 18.39,-18.84 4.22,-8.039 6.34,-17.52 6.37,-28.438 -0.03,-12.589 -2.81,-23.199 -8.35,-31.832 -5.52,-8.621 -13.58,-14.8902 -24.18,-18.7887 l 2.9,-6.0586 -41.45,0 -0.56,1.2071 -13.1,0 0,-1.2071 -39.35,0 z m 272.26,0 -20.25,8.7695 c -7.44,3.3204 -13.97,7.2188 -19.6,11.6878 -12.42,10.402 -18.65,24.363 -18.71,41.922 0.2,16.691 5.36,29.839 15.5,39.461 10.14,9.617 24.16,14.539 42.07,14.738 25.9,-0.129 45.25,-11.121 58.04,-32.988 l -28.17,-21.211 c -9.35,14.019 -20.04,21.007 -32.07,20.968 -6.12,-0.097 -10.91,-1.699 -14.38,-4.828 -3.46,-3.133 -5.22,-7.23 -5.28,-12.301 0,-4.679 1.76,-8.878 5.31,-12.558 3.54,-3.692 8.9,-7.184 16.05,-10.453 l 24.97,-10.957 c 7.58,-3.352 14.08,-7.192 19.48,-11.532 6.69,-5.671 11.6,-12.5816 14.69,-20.6988 l -57.65,-0.0195 z m 156,111.7183 39.35,0 0,-111.7183 -39.35,0 0,111.7183 z m 191.4,-111.7183 0,75.6683 -44.92,0 0,36.05 129.19,0 0,-36.05 -44.93,0 0,-75.6683 -39.34,0 z m 206.54,0 -54.16,111.7183 41.78,0 32.3,-69.8 32.3,69.8 41.51,0 -53.9,-111.7183 -39.83,0 z m -786.85,80.1993 0,-49.082 10.92,0 c 11.85,-0.289 20.58,1.172 26.17,4.41 5.58,3.223 8.37,9.941 8.32,20.121 0.05,10.199 -2.74,16.91 -8.32,20.141 -5.59,3.219 -14.32,4.687 -26.17,4.41 l -10.92,0"
             style="fill:#231f20;fill-opacity:1;fill-rule:evenodd;stroke:none"
             id="path28" /><path
             d="m 315.066,407.012 c -5.878,-13.032 -13.328,-24.66 -22.367,-34.93 -13.461,-14.82 -28.062,-25.793 -43.781,-32.961 -12.051,-5.492 -23.789,-9.512 -35.238,-12.062 l -89.801,-0.047 c -3.91,0.808 -7.91,1.82 -11.981,2.949 -19.6597,5.461 -38.0699,15.629 -55.2105,30.508 -13.3281,11.57 -24.0508,27.09 -32.1602,46.562 l 290.5387,-0.019 z m 69.801,0 91.403,0 0,-76.543 -91.403,0 0,76.543 z m 305.352,0 c 11.14,-7.032 25.449,-10.59 42.969,-10.703 15.742,0 33.558,3.57 53.429,10.711 l 33.41,-0.008 9.153,-58.172 c -24.692,-10.52 -48.602,-17.781 -71.731,-21.77 l -78.89,-0.058 c -26.961,5.297 -48.7,16.617 -65.2,33.949 -11.921,12.5 -20.851,27.859 -26.812,46.07 l 103.672,-0.019 z m 280.828,0 c 6.043,-9.032 15.051,-13.551 27.031,-13.582 11.432,-0.051 20.402,4.422 26.912,13.59 l 101.41,-0.008 0,-37.082 c 0.3,-13.532 -0.11,-27.828 -1.22,-42.942 l -88.46,0.024 0.01,32.519 c -14.1,-16.48 -29.42,-26.91 -45.882,-32.461 l -63.77,-0.058 c -18.969,6.679 -33.14,20.039 -42.5,40.117 -5.211,11.16 -9.41,24.449 -12.609,39.851 l 99.078,0.032 z m 296.813,0 c 3.58,-5.41 7.86,-9.012 12.86,-10.821 l 8.87,-2.781 c 4.13,-1.051 7.44,-1.461 9.94,-1.219 6.79,0.008 10.43,0.45 13.76,1.239 7.68,1.652 13.57,5.05 17.69,10.242 0.83,1.039 1.61,2.18 2.36,3.41 l 89.26,-0.07 c -5.16,-17.891 -14.36,-33.883 -27.59,-47.953 -5.02,-6.399 -14.17,-13.411 -27.48,-21.059 -9.4,-5.398 -22.66,-9.07 -39.79,-10.988 l -54.18,0 c -2.2,0.226 -4.44,0.488 -6.73,0.769 -14.5,1.719 -27.35,5.66 -38.57,11.821 -18.22,11.16 -31.54,25.128 -39.93,41.937 -3.91,7.84 -7.16,16.32 -9.73,25.441 l 89.26,0.032 z m 203.5,0 91.71,0 0,-76.543 -91.71,0 0,76.543 z m 180.81,0 91.7,0 0,-76.543 -91.7,0 0,76.543 z m 541.81,0 c -1.72,-3.66 -3.61,-7.391 -5.68,-11.192 -9.31,-17.07 -24.74,-32.89 -46.57,-47.48 -14.28,-8.68 -29.7,-14.981 -46.39,-18.961 -3.68,-0.891 -7.25,-1.66 -10.71,-2.34 l -83.74,-0.027 c -19.2,3.289 -36.26,8.918 -51.21,16.82 -22.89,12.098 -43.57,33.09 -61.96,63.219 l 306.26,-0.039 z m 191.57,0 c 7.25,-2.66 16.25,-3.903 26.98,-3.723 l 12.58,0.652 0,-76.929 -82.27,0 c -22.11,4.207 -38.91,12.179 -50.39,23.949 -12.53,12.871 -20.58,31.57 -24.14,56.098 l 117.24,-0.047 z m 169,0 c 6.75,-6.5 15.09,-9.871 25.04,-10.043 11,0.031 20.31,3.39 27.92,10.09 l 117.73,-0.047 c 2.74,-3.481 6.71,-5.922 11.9,-7.364 l 0,-69.546 c -5.4,-0.551 -10.47,-0.793 -15.21,-0.672 -37.31,-0.219 -64,14.269 -80.12,43.468 -16.02,-16.019 -31.96,-27.949 -47.82,-35.769 -9.92,-4.91 -20.25,-8.258 -31.01,-10.078 l -37.37,-0.039 c -19.31,3.297 -35.15,11.797 -47.47,25.5 -12.8,14.187 -20.54,32.34 -23.25,54.437 l 99.66,0.063 z m 360.26,0 c 7.24,-2.66 16.23,-3.903 26.97,-3.723 l 12.58,0.652 0,-76.929 -82.26,0 c -22.12,4.207 -38.9,12.179 -50.39,23.949 -12.54,12.871 -20.59,31.57 -24.15,56.098 l 117.25,-0.047 z m 172.07,0 c 11.13,-7.032 25.46,-10.59 42.97,-10.703 15.74,0 33.55,3.57 53.43,10.711 l 33.41,-0.008 9.14,-58.172 c -24.68,-10.52 -48.6,-17.781 -71.73,-21.77 l -78.87,-0.058 c -26.98,5.297 -48.7,16.617 -65.21,33.949 -11.92,12.5 -20.86,27.859 -26.82,46.07 l 103.68,-0.019"
             style="fill:#231f20;fill-opacity:1;fill-rule:evenodd;stroke:none"
             id="path30" /><path
             d="m 112.5,487.012 c 0.93,-19.422 4.43,-35.633 10.512,-48.59 7.718,-16.442 22.957,-24.902 45.758,-25.371 18.46,0.469 31.699,5.687 39.718,15.648 8.012,9.961 12.891,21.84 14.641,35.66 0.98,7.832 1.633,15.36 1.941,22.621 l 107.489,0.032 c -1.368,-20.211 -4.118,-38.114 -8.219,-53.711 -2.461,-9.321 -5.551,-18.11 -9.27,-26.332 l -290.5388,0.043 c -2.3203,5.578 -4.4218,11.457 -6.3124,17.66 -5.0469,18.387 -8.41021,36.949 -10.05864,55.68 -0.19922,2.257 -0.39063,4.468 -0.5586,6.628 L 112.5,487.012 z m 272.371,0 91.399,0 0,-79.992 -91.399,0 0,79.992 z m 278.809,0 0,-25.832 c 0.121,-20.551 6.16,-36.461 18.121,-47.739 2.57,-2.429 5.379,-4.582 8.418,-6.492 l -103.668,0.063 c -5.879,17.968 -8.86,38.687 -8.942,62.187 l 0,17.813 86.071,0 z m 294.519,0 c 0.321,-27.992 2.5,-49.75 6.539,-65.262 1.524,-5.809 3.621,-10.73 6.313,-14.738 l -99.082,0 c -4.617,22.23 -7.129,48.91 -7.539,80.008 l 93.769,-0.008 z m 168.201,0 0,-80 -101.41,0 c 6.01,8.48 9.93,20.957 11.74,37.597 l 0,42.403 89.67,0 z m 129.69,0 0,-8.172 c -0.01,-17.192 0.66,-30.231 1.94,-41.899 0.54,-4.851 1.45,-9.293 2.61,-13.421 l 2.34,-6.911 c 1.45,-3.66 3.07,-6.871 4.88,-9.589 l -89.26,-0.008 c -2.94,10.398 -5,21.66 -6.19,33.769 -1.38,14.219 -2.28,29.649 -2.68,46.289 l 86.36,-0.058 z m 174.62,0 c -0.27,-25.91 -1.95,-48.012 -5.02,-66.321 -0.78,-4.691 -1.81,-9.25 -3.09,-13.679 l -89.26,0 c 1.36,2.32 2.59,4.918 3.66,7.82 3.21,7.406 5.22,16.039 6.02,25.867 1.12,13.922 1.6,28.313 1.12,43.16 l 0,3.153 86.57,0 z m 40.65,0 91.71,0 0,-79.992 -91.71,0 0,79.992 z m 180.81,0 91.7,0 0,-80 -91.7,0 0,80 z m 555.39,0 c 0.18,-2.813 0.31,-5.641 0.4,-8.551 0.41,-7.82 -0.42,-19.281 -2.47,-34.332 -1.58,-11.617 -5.41,-23.988 -11.52,-37.098 l -306.26,-0.019 c -2.85,4.707 -5.65,9.597 -8.39,14.718 l 76.45,53.411 c 8.88,-20.262 20.82,-36.309 35.85,-48.032 15.85,-12.379 34.37,-18.64 55.47,-18.847 8.32,-0.172 17.46,1.429 27.45,4.66 10.28,3.328 19.21,9.316 26.76,17.91 7.82,8.879 11.74,21.258 12.12,36.758 0.12,7.18 -0.7,13.691 -2.48,19.469 l 96.62,-0.047 z m 150.69,0 0,-9.5 c -0.56,-27.082 2.86,-46.313 10.25,-57.68 3.79,-5.801 9.47,-10.094 17.05,-12.844 l -117.24,0.024 c -1.59,11 -2.29,23.117 -2.09,36.398 l 0,43.602 92.03,0 z m 205.61,0 c -14.53,-13.18 -21.87,-28.692 -22.01,-46.571 0.25,-13.222 3.89,-23.722 10.93,-31.519 0.58,-0.633 1.17,-1.262 1.77,-1.84 l -99.66,-0.07 c -0.66,5.297 -1.02,10.886 -1.08,16.718 0,23.942 5.26,45.04 15.79,63.25 l 94.26,0.032 z m 156.73,0 0,-65.293 c 0.12,-6.09 1.66,-11 4.64,-14.731 l -117.72,0.024 c 2.82,2.527 5.4,5.457 7.74,8.847 8.7,12.571 13.15,31.243 13.32,55.993 l 0,15.16 92.02,0 z m 166.91,0 0,-9.5 c -0.56,-27.082 2.87,-46.313 10.26,-57.68 3.78,-5.801 9.46,-10.094 17.04,-12.844 l -117.24,0.024 c -1.6,11 -2.29,23.117 -2.09,36.398 l 0,43.602 92.03,0 z m 172.83,0 0,-25.832 c 0.12,-20.551 6.17,-36.461 18.13,-47.739 2.56,-2.429 5.37,-4.582 8.42,-6.492 l -103.68,0.063 c -5.87,17.968 -8.85,38.687 -8.93,62.187 l 0,17.813 86.06,0 z m -2273.709,-80 c 9.918,3.558 20.359,8.027 31.309,13.367 l 2.101,-13.367 -33.41,0 z m 2396.659,0 c 9.92,3.558 20.35,8.027 31.3,13.367 l 2.11,-13.367 -33.41,0"
             style="fill:#231f20;fill-opacity:1;fill-rule:evenodd;stroke:none"
             id="path32" /><path
             d="m 112.309,567.012 0,-63.782 C 112.191,497.59 112.25,492.18 112.5,487 L 7.60156,487.012 C 6.33984,502.66 5.76953,515.602 5.89062,525.77 l 0,41.242 106.41838,0 z m 221.269,0 0,-45.34 c 0.063,-12.223 -0.277,-23.781 -1.019,-34.684 l -107.481,0.024 c 0.242,5.547 0.281,10.968 0.133,16.218 l 0,63.782 108.367,0 z m 148.262,0 C 477.941,554.941 476.078,540 476.27,522.25 l 0,-35.238 -91.399,0 0,80 96.969,0 z m 181.84,0 0,-22.262 86.05,0 0,22.262 77.461,0 0,-75.071 -163.511,0 0,-4.929 -86.071,0 0,66.449 c 0.02,4.598 0.141,9.121 0.371,13.519 l 85.7,0.032 z m 295.39,0 c -0.949,-14.953 -1.218,-32.711 -0.82,-53.282 l 0,-8.011 c -0.109,-6.528 -0.121,-12.778 -0.051,-18.739 l -93.769,0.032 c -0.071,5.289 -0.071,10.699 -0.02,16.226 -0.23,23.41 0.192,44.653 1.25,63.711 l 93.41,0.063 z m 77.66,0 89.67,0 0,-80 -89.67,0 0,80 z m 219.62,0 c -0.12,-2.903 -0.21,-5.813 -0.26,-8.731 -0.16,-4.031 -0.11,-7.961 0,-11.761 l 0,-59.508 -86.36,0 c -0.24,9.957 -0.3,20.289 -0.19,31.039 -0.28,15.109 0.19,31.429 1.43,48.988 l 85.38,-0.027 z m 172.45,0 c 1.31,-16.684 1.92,-35.68 1.81,-57.012 0.15,-7.98 0.18,-15.66 0.1,-23.02 l -86.57,0.032 0,28.918 c 0.11,7.949 0.18,15.582 0,22.91 0.15,9.992 0.02,19.379 -0.4,28.148 l 85.06,0.024 z m 42.56,0 91.71,0 0,-80 -91.71,0 0,80 z m 272.51,0 0,-80 -91.7,0 0,75.578 c 0.05,1.371 0.07,2.832 0.04,4.39 l 91.66,0.032 z m 436.62,0 c 0.49,-0.66 0.96,-1.313 1.44,-1.981 3.36,-3.961 8.45,-13.48 15.14,-28.883 5.69,-13.078 9.21,-29.449 10.49,-49.179 l -96.62,0.043 c -1.34,4.386 -3.24,8.328 -5.7,11.84 -5.7,8.07 -15.43,15.41 -28.88,22.136 -13.31,6.672 -31.82,14.793 -55.49,24.293 -16.77,6.489 -32.55,13.731 -47.34,21.739 l 206.96,-0.008 z m 85.73,0 92.02,0 0,-80 -92.02,0 0,80 z m 454.37,0 0,-80 -92.02,0 0,26.308 c -27.94,-4.039 -49.35,-12.672 -64.21,-25.898 -0.17,-0.16 -0.34,-0.301 -0.5,-0.453 l -94.26,0.043 c 24.15,41.738 75.99,68.418 155.53,79.988 l 95.46,0.012 z m 74.88,0 92.03,0 0,-80 -92.03,0 0,80 z m 264.86,0 0,-22.262 86.06,0 0,22.262 77.46,0 0,-75.071 -163.52,0 0,-4.929 -86.06,0 0,66.449 c 0.01,4.598 0.14,9.121 0.36,13.519 l 85.7,0.032"
             style="fill:#231f20;fill-opacity:1;fill-rule:evenodd;stroke:none"
             id="path34" /><path
             d="m 5.89062,567.012 0,93.308 c -0.33984,25.809 2.44922,50.539 8.35938,74.2 5.9102,23.671 16.9609,45.152 33.168,64.468 15.2304,17.242 33.2617,29.543 54.102,36.961 20.828,7.43 42.597,11.031 65.3,10.852 24.52,0.238 47.5,-3.321 68.938,-10.672 21.441,-7.359 40.211,-19.969 56.293,-37.82 13.367,-14.571 23.617,-34.098 30.738,-58.59 7.129,-24.457 10.719,-56.629 10.789,-96.469 l 0,-76.238 -108.367,0 0,110.398 c 0.348,11.899 -0.332,23.75 -2.031,35.488 -1.711,11.743 -6.469,21.551 -14.301,29.422 -7.84,7.86 -20.781,11.961 -38.82,12.27 -18.899,-0.59 -32.442,-5.789 -40.641,-15.61 -8.199,-9.808 -13.188,-20.742 -14.969,-32.761 -1.781,-12.02 -2.5,-21.617 -2.14,-28.809 l 0,-110.398 -106.41838,0 z m 378.97638,0 0,119.019 79.25,0 6.071,-45.14 c 12.832,35.629 40.511,53.847 83.042,54.691 l 6.079,0 0,-86.672 -8.77,0 c -27.031,0.168 -46.238,-6.719 -57.641,-20.68 -4.668,-5.71 -8.359,-12.761 -11.058,-21.16 l -96.973,-0.058 z m 193.113,0 c 2.059,40.297 12.829,71.449 32.329,93.437 21.601,24.383 52.851,36.633 93.75,36.77 38.441,-0.379 68.468,-11.821 90.121,-34.348 21.64,-22.531 32.64,-53.871 33.008,-94.039 l 0,-1.82 -77.458,0 0,8.519 c -0.089,39.559 -14.441,59.391 -43.019,59.5 -13.094,-0.051 -23.492,-4.949 -31.203,-14.711 -7.707,-9.75 -11.649,-24.011 -11.828,-42.789 l 0,-10.519 -85.7,0 z m 287.68,0 c 0.449,8.008 1.02,15.679 1.699,22.988 2.289,24.52 7.829,45.09 16.621,61.711 7.598,13.949 18.239,24.75 31.899,32.398 13.68,7.661 29.379,11.532 47.09,11.653 17.351,-0.102 36.781,-7 46.071,-11.742 6.82,-3.469 20.42,-11.84 27.69,-24.481 l 0,27.68 89.67,0 0,-120.207 -89.67,0 0,10.328 c -1.23,12.48 -3.4,22.57 -6.5,30.422 -5.55,14.047 -16.72,21.039 -33.5,20.929 -18.14,0.141 -29.292,-9.16 -33.41,-27.91 -1.98,-8.929 -3.39,-20.199 -4.25,-33.793 l -93.41,0.024 z m 305.31,0 c 0.17,2.437 0.36,4.867 0.56,7.32 1.66,20.359 6.28,39.84 13.86,58.438 7.6,18.609 20.15,33.902 37.65,45.851 17.49,11.961 41.93,18.149 73.29,18.559 12.47,0.269 25.57,-0.641 39.33,-2.758 13.76,-2.113 27.09,-7.063 40.02,-14.84 12.92,-7.781 24.36,-20.023 34.32,-36.754 7.97,-14.168 13.43,-31.949 16.4,-53.328 0.96,-6.949 1.76,-14.449 2.4,-22.488 l -85.06,0 c -0.32,6.59 -0.8,12.84 -1.45,18.75 -1.52,13.758 -5.55,24.636 -12.12,32.617 -6.57,7.973 -17.3,12.051 -32.21,12.203 -14.03,-0.32 -24.04,-5.031 -30.01,-14.094 -5.96,-9.066 -9.52,-20.558 -10.65,-34.476 -0.39,-4.953 -0.73,-9.953 -0.95,-15.012 l -85.38,0.012 z m 300.39,0 0,119.019 84.55,0 0,-65.742 c 12.05,19.77 25.36,36.742 41.87,50.902 16.52,14.161 36.17,21.571 58.94,22.219 28.52,-0.769 48.96,-7.66 61.33,-20.64 12.38,-13.008 19.9,-27.489 22.61,-43.469 2.68,-15.969 3.76,-28.821 3.21,-38.531 l 0,-23.758 -91.66,0 c -0.06,4.117 -0.39,8.918 -1.01,14.359 -0.83,7.488 -3.37,14.199 -7.6,20.141 -4.23,5.918 -11.35,9.039 -21.34,9.379 -12.76,-0.321 -23.67,-4.051 -32.77,-11.153 -9.09,-7.109 -17.9,-15.699 -26.42,-25.738 l 0,-6.988 -91.71,0 z m 502.17,0 c -6.55,3.539 -12.89,7.238 -19.06,11.058 -19.86,12.379 -35.78,28.539 -47.79,48.52 -11.89,19.789 -18.1,45.75 -18.43,78.07 0.34,41.461 13.7,74.719 39.97,100.078 26.24,25.344 63.58,38.563 112.46,39.301 34.42,0 64.19,-7.41 89.46,-22.18 24.69,-14.398 46.41,-35.89 65.16,-64.558 l -73.85,-51.403 c -7.76,14.653 -18.55,27.153 -32.31,37.461 -14.77,11.051 -31.88,16.789 -51.09,17.27 -18.09,-0.508 -31.84,-4.328 -40.48,-12.039 -8.22,-7.32 -13.53,-15.141 -15.58,-23.508 -1.85,-7.531 -2.83,-12.953 -2.42,-15.883 0.71,-18.058 7.41,-31.961 20.29,-41.539 12.37,-9.199 26.28,-16.359 41.82,-21.539 l 60.3,-23.199 c 14.47,-5.442 29.04,-13.09 43.67,-22.942 13.8,-9.32 25.45,-20.359 34.84,-32.98 l -206.96,0.012 z m 292.69,0 0,52.258 -51.63,0 0,67.531 51.63,0 0,127.738 92.03,0 0,-127.738 64.21,0 0,-67.531 -64.21,0 0,-52.258 -92.03,0 z m 358.91,0 c 1.14,0.16 2.29,0.32 3.45,0.476 l 0,28.071 c -0.11,10.589 -4.2,19.179 -12.25,25.839 -8.05,6.653 -19.41,10.082 -34.09,10.282 -25.83,-0.328 -52.97,-12.379 -81.43,-36.121 l -43.04,55.523 c 36.65,31.09 79.89,46.477 129.76,46.137 88.05,-0.34 132.4,-41.129 133.06,-122.367 l 0,-7.84 -95.46,0 z m 170.34,0 0,52.258 -51.63,0 0,67.531 51.63,0 0,127.738 92.03,0 0,-127.738 64.21,0 0,-67.531 -64.21,0 0,-52.258 -92.03,0 z m 179.16,0 c 2.06,40.297 12.84,71.449 32.33,93.437 21.61,24.383 52.87,36.633 93.75,36.77 38.45,-0.379 68.48,-11.821 90.13,-34.348 21.63,-22.531 32.63,-53.871 33.01,-94.039 l 0,-1.82 -77.46,0 0,8.519 c -0.1,39.559 -14.45,59.391 -43.03,59.5 -13.09,-0.051 -23.49,-4.949 -31.2,-14.711 -7.7,-9.75 -11.65,-24.011 -11.83,-42.789 l 0,-10.519 -85.7,0"
             style="fill:#231f20;fill-opacity:1;fill-rule:evenodd;stroke:none"
             id="path36" /></g></g></g></g></svg>